<?xml version="1.0" standalone="no"?>
<!DOCTYPE svg PUBLIC "-//W3C//DTD SVG 1.1//EN" "http://www.w3.org/Graphics/SVG/1.1/DTD/svg11.dtd" >
<svg>
<metadata>
Created by FontForge 20090622 at Tue Sep 15 10:31:35 2015
 By deploy user
(C)2007 House Industries/Brand Design Co., Inc. All Rights Reserved.
</metadata>
<defs>
<font id="Neutraface2Text-BookItalic" horiz-adv-x="520" >
  <font-face 
    font-family="Neutraface 2 Text Book"
    font-weight="400"
    font-style="italic"
    font-stretch="normal"
    units-per-em="1000"
    panose-1="2 11 5 3 2 2 2 9 1 2"
    ascent="780"
    descent="-220"
    x-height="414"
    cap-height="680"
    bbox="-116 -258 1156 965"
    underline-thickness="20"
    underline-position="-113"
    slope="-10"
    unicode-range="U+0020-U+FB04"
  />
<missing-glyph horiz-adv-x="232" 
 />
    <glyph glyph-name="ff" unicode="ff" horiz-adv-x="555" 
d="M372 356h-176l-80 -454q-12 -67 -40 -90.5t-82 -23.5h-42l10 55h30q22 0 36 13.5t21 52.5l79 447h-66l10 58h66l31 176q21 125 125 125q60 0 92 -44l-44 -42q-19 25 -46 25q-24 0 -38.5 -15t-21.5 -53l-30 -172h176l35 193q23 128 127 128q64 0 100 -50l-47 -40
q-22 29 -51 29q-25 0 -40 -15.5t-22 -55.5l-33 -189h107l-10 -58h-108l-76 -432q-11 -67 -39.5 -90.5t-82.5 -23.5h-39l10 55h28q21 0 35 13.5t21 51.5z" />
    <glyph glyph-name="fi" unicode="fi" horiz-adv-x="502" 
d="M447 536q-19 0 -33.5 13.5t-14.5 33.5t14.5 33.5t33.5 13.5t33 -13.5t14 -33.5t-14 -33.5t-33 -13.5zM195 356l-79 -454q-12 -67 -40 -90.5t-82 -23.5h-42l10 55h30q22 0 36 13.5t21 52.5l78 447h-65l10 58h66l34 195q21 126 125 126q65 0 99 -49l-47 -40q-21 28 -50 28
q-23 0 -38 -15.5t-22 -53.5l-33 -191h245l-58 -327q-6 -32 19 -32h41l-9 -55h-49q-45 0 -61 22t-8 70l47 264h-178z" />
    <glyph glyph-name="fl" unicode="fl" horiz-adv-x="498" 
d="M394 0q-45 0 -61 22t-7 70l111 630h69l-114 -635q-5 -32 20 -32h45l-9 -55h-54zM128 356h-66l10 58h66l34 194q23 127 123 127q56 0 89 -40l-40 -44q-21 23 -45 23t-38.5 -15t-21.5 -55l-33 -190h100l-10 -58h-100l-80 -454q-12 -67 -40 -90.5t-82 -23.5h-42l10 55h30
q22 0 36 13.5t21 52.5z" />
    <glyph glyph-name="ffi" unicode="ffi" horiz-adv-x="747" 
d="M692 536q-19 0 -33 13.5t-14 33.5t14 33.5t33 13.5t33 -13.5t14 -33.5t-14 -33.5t-33 -13.5zM440 356l-75 -432q-11 -67 -39.5 -90.5t-82.5 -23.5h-39l10 55h28q21 0 35 13.5t21 51.5l74 426h-176l-80 -454q-12 -67 -40 -90.5t-82 -23.5h-42l10 55h30q22 0 36 13.5
t21 52.5l79 447h-66l10 58h66l31 176q21 125 125 125q60 0 92 -44l-44 -42q-19 25 -46 25q-24 0 -38.5 -15t-21.5 -53l-30 -172h177l34 195q21 126 125 126q65 0 99 -49l-47 -40q-21 28 -50 28q-23 0 -38 -15.5t-22 -53.5l-33 -191h245l-58 -327q-5 -32 20 -32h40l-9 -55
h-49q-45 0 -61 22t-8 70l47 264h-178z" />
    <glyph glyph-name="ffl" unicode="ffl" horiz-adv-x="743" 
d="M640 0q-45 0 -61 22t-8 70l111 630h69l-113 -635q-6 -32 19 -32h45l-9 -55h-53zM372 356h-176l-80 -454q-11 -67 -39.5 -90.5t-82.5 -23.5h-42l10 55h30q22 0 36 13.5t21 52.5l79 447h-66l10 58h66l31 176q21 125 125 125q60 0 92 -44l-44 -42q-19 25 -46 25
q-24 0 -38.5 -15t-21.5 -53l-30 -172h176l35 194q23 127 123 127q56 0 89 -40l-40 -44q-21 23 -45 23t-38.5 -15t-21.5 -55l-33 -190h100l-10 -58h-100l-76 -432q-12 -67 -40.5 -90.5t-82.5 -23.5h-39l10 55h28q21 0 35 13.5t21 51.5z" />
    <glyph glyph-name="f_b" unicode="fb" horiz-adv-x="807" 
d="M557 -8q-59 0 -103 33.5t-60 90.5l-16 -116h-68l126 722h68l-68 -387q56 88 151 88q79 0 127.5 -55t48.5 -144q0 -100 -60 -166t-146 -66zM128 356h-66l10 58h66l34 194q23 127 123 127q56 0 89 -40l-40 -44q-21 23 -45 23t-38.5 -15t-21.5 -55l-33 -190h100l-10 -58
h-100l-80 -454q-12 -67 -40 -90.5t-82 -23.5h-42l10 55h30q22 0 36 13.5t21 52.5zM541 51q68 0 110 49t42 124q0 62 -33.5 100.5t-89.5 38.5q-67 0 -111.5 -48t-44.5 -121q0 -63 34.5 -103t92.5 -40z" />
    <glyph glyph-name="f_f_b" unicode="ffb" horiz-adv-x="1053" 
d="M802 -8q-59 0 -103 33.5t-59 90.5l-17 -116h-68l127 722h68l-69 -387q56 88 152 88q78 0 127 -55.5t49 -143.5q0 -100 -60.5 -166t-146.5 -66zM128 356h-66l10 58h66l31 176q21 125 125 125q60 0 92 -44l-44 -42q-19 25 -46 25q-24 0 -38.5 -15t-21.5 -53l-30 -172h176
l35 194q23 127 123 127q56 0 89 -40l-40 -44q-21 23 -45 23t-38.5 -15t-21.5 -55l-33 -190h100l-10 -58h-100l-76 -432q-12 -67 -40.5 -90.5t-82.5 -23.5h-39l10 55h28q21 0 35 13.5t21 51.5l75 426h-176l-80 -454q-11 -67 -39.5 -90.5t-82.5 -23.5h-42l10 55h30
q22 0 36 13.5t21 52.5zM787 51q68 0 110 49t42 124q0 62 -34 100.5t-90 38.5q-67 0 -111.5 -48t-44.5 -121q0 -63 35 -103t93 -40z" />
    <glyph glyph-name="f_f_f" unicode="fff" horiz-adv-x="798" 
d="M617 356h-176l-78 -444q-12 -67 -40.5 -90.5t-81.5 -23.5h-42l10 55h30q22 0 36 13.5t21 52.5l77 437h-177l-80 -454q-12 -67 -40 -90.5t-82 -23.5h-42l10 55h30q22 0 36 13.5t21 52.5l79 447h-66l10 58h66l31 176q21 125 125 125q60 0 92 -44l-44 -42q-19 25 -46 25
q-24 0 -38.5 -15t-21.5 -53l-30 -172h177l33 186q21 125 125 125q60 0 92 -44l-44 -42q-19 25 -46 25q-24 0 -38.5 -15t-21.5 -53l-32 -182h176l35 193q23 128 127 128q64 0 100 -50l-47 -40q-22 29 -51 29q-25 0 -40 -15.5t-22 -55.5l-33 -189h107l-10 -58h-108l-76 -432
q-11 -67 -39.5 -90.5t-82.5 -23.5h-39l10 55h28q21 0 35 13.5t21 51.5z" />
    <glyph glyph-name="f_f_f_i" unicode="fffi" horiz-adv-x="991" 
d="M937 536q-19 0 -33.5 13.5t-14.5 33.5t14.5 33.5t33.5 13.5t33 -13.5t14 -33.5t-14 -33.5t-33 -13.5zM685 356l-76 -432q-12 -67 -40.5 -90.5t-81.5 -23.5h-39l10 55h27q22 0 36 13.5t21 51.5l75 426h-176l-78 -444q-12 -67 -40.5 -90.5t-81.5 -23.5h-42l10 55h30
q22 0 36 13.5t21 52.5l77 437h-177l-80 -454q-12 -67 -40 -90.5t-82 -23.5h-42l10 55h30q22 0 36 13.5t21 52.5l79 447h-66l10 58h66l31 176q21 125 125 125q60 0 92 -44l-44 -42q-19 25 -46 25q-24 0 -38.5 -15t-21.5 -53l-30 -172h177l33 186q21 125 125 125q60 0 92 -44
l-44 -42q-19 25 -46 25q-24 0 -38.5 -15t-21.5 -53l-32 -182h176l35 195q21 126 125 126q65 0 99 -49l-47 -40q-21 28 -50 28q-23 0 -38 -15.5t-22 -53.5l-34 -191h246l-58 -327q-6 -32 19 -32h41l-9 -55h-49q-45 0 -61 22t-8 70l47 264h-178z" />
    <glyph glyph-name="f_f_f_l" unicode="fffl" horiz-adv-x="988" 
d="M884 0q-45 0 -61 22t-7 70l111 630h68l-113 -635q-5 -32 20 -32h45l-9 -55h-54zM617 356h-176l-78 -444q-12 -67 -40.5 -90.5t-81.5 -23.5h-42l10 55h30q22 0 36 13.5t21 52.5l77 437h-177l-80 -454q-12 -67 -40 -90.5t-82 -23.5h-42l10 55h30q22 0 36 13.5t21 52.5
l79 447h-66l10 58h66l31 176q21 125 125 125q60 0 92 -44l-44 -42q-19 25 -46 25q-24 0 -38.5 -15t-21.5 -53l-30 -172h177l33 186q21 125 125 125q60 0 92 -44l-44 -42q-19 25 -46 25q-24 0 -38.5 -15t-21.5 -53l-32 -182h176l35 194q23 127 123 127q56 0 89 -40l-40 -44
q-21 23 -45 23t-38.5 -15t-21.5 -55l-34 -190h101l-11 -58h-100l-76 -432q-12 -67 -40.5 -90.5t-81.5 -23.5h-39l10 55h27q22 0 36 13.5t21 51.5z" />
    <glyph glyph-name="f_f_h" unicode="ffh" horiz-adv-x="1022" 
d="M554 0l127 722h68l-67 -385q52 86 143 86q70 0 108 -50t23 -134l-27 -152q-5 -32 20 -32h38l-10 -55h-43q-88 0 -71 94l24 139q11 60 -11.5 94.5t-74.5 34.5q-115 0 -138 -129l-41 -233h-68zM128 356h-66l10 58h66l31 176q21 125 125 125q60 0 92 -44l-44 -42
q-19 25 -46 25q-24 0 -38.5 -15t-21.5 -53l-30 -172h176l35 194q23 127 123 127q56 0 89 -40l-40 -44q-21 23 -45 23t-38.5 -15t-21.5 -55l-33 -190h100l-10 -58h-100l-76 -432q-12 -67 -40.5 -90.5t-82.5 -23.5h-39l10 55h28q21 0 35 13.5t21 51.5l75 426h-176l-80 -454
q-11 -67 -39.5 -90.5t-82.5 -23.5h-42l10 55h30q22 0 36 13.5t21 52.5z" />
    <glyph glyph-name="f_f_iacute" unicode="ff&#xed;" horiz-adv-x="747" 
d="M650 505l98 193h84l-127 -193h-55zM440 356l-75 -432q-11 -67 -39.5 -90.5t-82.5 -23.5h-39l10 55h28q21 0 35 13.5t21 51.5l74 426h-176l-80 -454q-12 -67 -40 -90.5t-82 -23.5h-42l10 55h30q22 0 36 13.5t21 52.5l79 447h-66l10 58h66l31 176q21 125 125 125
q60 0 92 -44l-44 -42q-19 25 -46 25q-24 0 -38.5 -15t-21.5 -53l-30 -172h177l34 195q21 126 125 126q65 0 99 -49l-47 -40q-21 28 -50 28q-23 0 -38 -15.5t-22 -53.5l-33 -191h245l-58 -327q-5 -32 20 -32h40l-9 -55h-49q-45 0 -61 22t-8 70l47 264h-178z" />
    <glyph glyph-name="f_f_icircumflex" unicode="ff&#xee;" horiz-adv-x="747" 
d="M440 356l-75 -432q-11 -67 -39.5 -90.5t-82.5 -23.5h-39l10 55h28q21 0 35 13.5t21 51.5l74 426h-176l-80 -454q-12 -67 -40 -90.5t-82 -23.5h-42l10 55h30q22 0 36 13.5t21 52.5l79 447h-66l10 58h66l31 176q21 125 125 125q60 0 92 -44l-44 -42q-19 25 -46 25
q-24 0 -38.5 -15t-21.5 -53l-30 -172h177l34 195q21 126 125 126q65 0 99 -49l-47 -40q-21 28 -50 28q-23 0 -38 -15.5t-22 -53.5l-33 -191h245l-58 -327q-5 -32 20 -32h40l-9 -55h-49q-45 0 -61 22t-8 70l47 264h-178zM559 503l158 193h10l94 -193h-56l-56 108l-90 -108
h-60z" />
    <glyph glyph-name="f_f_idieresis" unicode="ff&#xef;" horiz-adv-x="747" 
d="M768 537q-18 0 -31.5 13t-13.5 31t13.5 31t31.5 13q17 0 30.5 -13t13.5 -31t-13.5 -31t-30.5 -13zM632 537q-17 0 -30.5 13t-13.5 31t13.5 31t30.5 13q18 0 31.5 -13t13.5 -31t-13.5 -31t-31.5 -13zM440 356l-75 -432q-11 -67 -39.5 -90.5t-82.5 -23.5h-39l10 55h28
q21 0 35 13.5t21 51.5l74 426h-176l-80 -454q-12 -67 -40 -90.5t-82 -23.5h-42l10 55h30q22 0 36 13.5t21 52.5l79 447h-66l10 58h66l31 176q21 125 125 125q60 0 92 -44l-44 -42q-19 25 -46 25q-24 0 -38.5 -15t-21.5 -53l-30 -172h177l34 195q21 126 125 126q65 0 99 -49
l-47 -40q-21 28 -50 28q-23 0 -38 -15.5t-22 -53.5l-33 -191h245l-58 -327q-5 -32 20 -32h40l-9 -55h-49q-45 0 -61 22t-8 70l47 264h-178z" />
    <glyph glyph-name="f_f_j" unicode="ffj" horiz-adv-x="747" 
d="M692 536q-19 0 -33 13.5t-14 33.5t14 33.5t33 13.5t33 -13.5t14 -33.5t-14 -33.5t-33 -13.5zM440 356l-75 -432q-11 -67 -39.5 -90.5t-82.5 -23.5h-39l10 55h28q21 0 35 13.5t21 51.5l74 426h-176l-80 -454q-12 -67 -40 -90.5t-82 -23.5h-42l10 55h30q22 0 36 13.5
t21 52.5l79 447h-66l10 58h66l31 176q21 125 125 125q60 0 92 -44l-44 -42q-19 25 -46 25q-24 0 -38.5 -15t-21.5 -53l-30 -172h177l34 195q21 126 125 126q65 0 99 -49l-47 -40q-21 28 -50 28q-23 0 -38 -15.5t-22 -53.5l-33 -191h245l-91 -521q-21 -115 -114 -115
q-56 0 -90 36l41 41q19 -19 44 -19q22 0 33.5 13t16.5 44l82 463h-178z" />
    <glyph glyph-name="f_f_k" unicode="ffk" horiz-adv-x="975" 
d="M776 238l96 -162q13 -21 37 -21h26l-10 -55h-29q-29 0 -47 11t-35 39l-89 149l-21 -17l-40 -36l-20 -17l-6 -32l-10 -65l-6 -32h-68l127 722h68l-82 -463q-5 -26 -15 -61l228 216h81zM196 356l-80 -454q-11 -67 -39.5 -90.5t-82.5 -23.5h-42l10 55h30q22 0 36 13.5
t21 52.5l79 447h-66l10 58h66l31 176q21 125 125 125q60 0 92 -44l-44 -42q-19 25 -46 25q-24 0 -38.5 -15t-21.5 -53l-30 -172h176l35 194q23 127 123 127q56 0 89 -40l-40 -44q-21 23 -45 23t-38.5 -15t-21.5 -55l-33 -190h100l-10 -58h-100l-76 -432q-12 -67 -40.5 -90.5
t-82.5 -23.5h-39l10 55h28q21 0 35 13.5t21 51.5l75 426h-176z" />
    <glyph glyph-name="f_f_t" unicode="fft" horiz-adv-x="824" 
d="M-48 -212l10 55h30q22 0 36 13.5t21 52.5l78 447h-65l10 58h66l31 176q21 125 125 125q57 0 90 -45l-38 -45q-22 29 -50 29q-24 0 -38.5 -15t-21.5 -53l-30 -172h177l34 195q23 126 125 126q62 0 97 -49l-44 -41q-22 29 -51 29q-47 0 -60 -69l-33 -191h177l26 146h68
l-26 -146h112l-10 -58h-112l-41 -231q-13 -74 39 -74q30 0 57 23l29 -47q-38 -35 -94 -35q-54 0 -82.5 33.5t-15.5 102.5l40 228h-177l-77 -432q-11 -67 -39.5 -90.5t-82.5 -23.5h-39l10 55h28q21 0 35 13.5t21 51.5l76 426h-177l-80 -454q-12 -67 -40 -90.5t-82 -23.5h-42z
" />
    <glyph glyph-name="f_h" unicode="fh" horiz-adv-x="777" 
d="M309 0l127 722h68l-68 -385q53 86 144 86q70 0 108 -50t23 -134l-27 -152q-5 -32 20 -32h38l-10 -55h-43q-88 0 -71 94l24 139q11 60 -11.5 94.5t-74.5 34.5q-115 0 -138 -129l-41 -233h-68zM128 356h-66l10 58h66l34 194q23 127 123 127q56 0 89 -40l-40 -44
q-21 23 -45 23t-38.5 -15t-21.5 -55l-33 -190h100l-10 -58h-100l-80 -454q-12 -67 -40 -90.5t-82 -23.5h-42l10 55h30q22 0 36 13.5t21 52.5z" />
    <glyph glyph-name="f_iacute" unicode="f&#xed;" horiz-adv-x="502" 
d="M195 356l-79 -454q-12 -67 -40 -90.5t-82 -23.5h-42l10 55h30q22 0 36 13.5t21 52.5l78 447h-65l10 58h66l34 195q21 126 125 126q65 0 99 -49l-47 -40q-21 28 -50 28q-23 0 -38 -15.5t-22 -53.5l-33 -191h245l-58 -327q-6 -32 19 -32h41l-9 -55h-49q-45 0 -61 22t-8 70
l47 264h-178zM405 505l98 193h84l-127 -193h-55z" />
    <glyph glyph-name="f_icircumflex" unicode="f&#xee;" horiz-adv-x="502" 
d="M195 356l-79 -454q-12 -67 -40 -90.5t-82 -23.5h-42l10 55h30q22 0 36 13.5t21 52.5l78 447h-65l10 58h66l34 195q21 126 125 126q65 0 99 -49l-47 -40q-21 28 -50 28q-23 0 -38 -15.5t-22 -53.5l-33 -191h245l-58 -327q-6 -32 19 -32h41l-9 -55h-49q-45 0 -61 22t-8 70
l47 264h-178zM314 503l158 193h10l94 -193h-56l-56 108l-90 -108h-60z" />
    <glyph glyph-name="f_idieresis" unicode="f&#xef;" horiz-adv-x="502" 
d="M195 356l-79 -454q-12 -67 -40 -90.5t-82 -23.5h-42l10 55h30q22 0 36 13.5t21 52.5l78 447h-65l10 58h66l34 195q21 126 125 126q65 0 99 -49l-47 -40q-21 28 -50 28q-23 0 -38 -15.5t-22 -53.5l-33 -191h245l-58 -327q-6 -32 19 -32h41l-9 -55h-49q-45 0 -61 22t-8 70
l47 264h-178zM523 537q-18 0 -31.5 13t-13.5 31t13.5 31t31.5 13q17 0 30.5 -13t13.5 -31t-13.5 -31t-30.5 -13zM387 537q-17 0 -30.5 13t-13.5 31t13.5 31t30.5 13q18 0 31.5 -13t13.5 -31t-13.5 -31t-31.5 -13z" />
    <glyph glyph-name="f_j" unicode="fj" horiz-adv-x="502" 
d="M447 536q-19 0 -33.5 13.5t-14.5 33.5t14.5 33.5t33.5 13.5t33 -13.5t14 -33.5t-14 -33.5t-33 -13.5zM195 356l-79 -454q-12 -67 -40 -90.5t-82 -23.5h-42l10 55h30q22 0 36 13.5t21 52.5l78 447h-65l10 58h66l34 195q21 126 125 126q65 0 99 -49l-47 -40q-21 28 -50 28
q-23 0 -38 -15.5t-22 -53.5l-33 -191h245l-91 -521q-21 -115 -114 -115q-56 0 -90 36l41 41q19 -19 44 -19q22 0 33.5 13t16.5 44l82 463h-178z" />
    <glyph glyph-name="f_k" unicode="fk" horiz-adv-x="730" 
d="M399 130l-22 -130h-68l127 722h68l-82 -463q-5 -26 -15 -61l228 216h81l-185 -176l96 -162q13 -21 37 -21h26l-10 -55h-29q-29 0 -47 11t-35 39l-89 149zM128 356h-66l10 58h66l34 194q23 127 123 127q56 0 89 -40l-40 -44q-21 23 -45 23t-38.5 -15t-21.5 -55l-33 -190
h100l-10 -58h-100l-80 -454q-12 -67 -40 -90.5t-82 -23.5h-42l10 55h30q22 0 36 13.5t21 52.5z" />
    <glyph glyph-name="f_t" unicode="ft" horiz-adv-x="578" 
d="M-48 -212l10 55h30q22 0 36 13.5t21 52.5l78 447h-65l10 58h66l34 195q21 126 125 126q62 0 97 -49l-44 -41q-22 29 -51 29q-23 0 -38 -15.5t-22 -53.5l-33 -191h177l25 146h68l-25 -146h111l-10 -58h-112l-41 -231q-13 -74 40 -74q30 0 57 23l29 -47q-40 -35 -94 -35
t-82.5 33.5t-16.5 102.5l41 228h-177l-80 -454q-12 -67 -40 -90.5t-82 -23.5h-42z" />
    <glyph glyph-name=".notdef" horiz-adv-x="232" 
 />
    <glyph glyph-name=".null" horiz-adv-x="0" 
 />
    <glyph glyph-name="nonmarkingreturn" horiz-adv-x="333" 
 />
    <glyph glyph-name="space" unicode=" " horiz-adv-x="232" 
 />
    <glyph glyph-name="exclam" unicode="!" horiz-adv-x="236" 
d="M88 190l77 490h77l-101 -490h-53zM90 -7q-21 0 -36.5 15.5t-15.5 37.5t15.5 37.5t36.5 15.5t36.5 -15.5t15.5 -37.5t-15.5 -37.5t-36.5 -15.5z" />
    <glyph glyph-name="quotedbl" unicode="&#x22;" horiz-adv-x="281" 
d="M223 470l29 210h73l-46 -210h-56zM95 470l29 210h73l-47 -210h-55z" />
    <glyph glyph-name="numbersign" unicode="#" horiz-adv-x="429" 
d="M155 449h-79l10 55h83l27 109h57l-27 -109h98l27 109h58l-27 -109h68l-10 -55h-72l-28 -110h81l-10 -55h-84l-27 -107h-58l27 107h-98l-27 -107h-57l27 107h-68l10 55h71zM310 449h-98l-28 -110h98z" />
    <glyph glyph-name="dollar" unicode="$" horiz-adv-x="427" 
d="M148 -4q-56 10 -95 40.5t-56 69.5l57 28q32 -68 103 -84l33 190q-119 46 -119 140q0 62 46 97t118 35h3l18 101h50l-19 -107q78 -19 113 -85l-51 -32q-23 49 -71 63l-30 -168l6 -2q67 -26 98.5 -60.5t31.5 -86.5q0 -68 -51.5 -105t-135.5 -38l-19 -108h-50zM206 46
q53 2 82 25t29 63q0 29 -18.5 49.5t-61.5 36.5zM228 458q-92 -3 -92 -75q0 -52 65 -79z" />
    <glyph glyph-name="percent" unicode="%" horiz-adv-x="778" 
d="M194 218q-60 0 -101 39.5t-41 100.5q0 66 46 110t108 44q60 0 101 -39t41 -99q0 -68 -45.5 -112t-108.5 -44zM163 0l401 504h70l-401 -504h-70zM589 -8q-60 0 -101 39.5t-41 100.5q0 66 46 109.5t108 43.5q60 0 101 -39t41 -99q0 -68 -45.5 -111.5t-108.5 -43.5zM194 271
q40 0 66.5 28t26.5 74q0 40 -22 62.5t-59 22.5q-40 0 -66.5 -27.5t-26.5 -71.5q0 -41 22.5 -64.5t58.5 -23.5zM589 44q40 0 66.5 28.5t26.5 73.5q0 40 -22.5 63t-58.5 23q-40 0 -66.5 -28t-26.5 -72q0 -41 22.5 -64.5t58.5 -23.5z" />
    <glyph glyph-name="ampersand" unicode="&#x26;" horiz-adv-x="652" 
d="M339 388l121 -195q38 70 55 175h67q-23 -141 -84 -235l20 -32q16 -25 27.5 -33t32.5 -8h30l-11 -60h-30q-42 0 -64 15.5t-49 59.5l-2 3q-84 -86 -204 -86q-95 0 -152 48.5t-57 128.5q0 83 54.5 136.5t154.5 98.5l-3 5q-44 69 -44 135q0 62 42.5 103t109.5 41q61 0 98 -37
t37 -94q0 -97 -149 -169zM311 432q56 27 84.5 55.5t28.5 67.5q0 34 -20 55t-52 21q-37 0 -60 -24t-23 -62q0 -45 29 -93zM418 132l-142 228q-79 -36 -120.5 -79.5t-41.5 -108.5q0 -54 37 -86t96 -32q104 0 171 78z" />
    <glyph glyph-name="quotesingle" unicode="'" horiz-adv-x="153" 
d="M95 470l29 210h73l-47 -210h-55z" />
    <glyph glyph-name="parenleft" unicode="(" horiz-adv-x="277" 
d="M147 -135q-107 140 -107 338q0 295 256 515l36 -39q-220 -205 -220 -474q0 -178 82 -308z" />
    <glyph glyph-name="parenright" unicode=")" horiz-adv-x="275" 
d="M11 -135l-36 39q220 207 220 477q0 174 -82 306l46 31q107 -138 107 -335q0 -299 -255 -518z" />
    <glyph glyph-name="asterisk" unicode="*" horiz-adv-x="398" 
d="M210 374l28 127l-104 -64l-25 56l120 37l-112 57l35 51l92 -81l-5 123h64l-27 -125l103 64l25 -56l-120 -36l112 -58l-35 -50l-91 80l4 -125h-64z" />
    <glyph glyph-name="plus" unicode="+" horiz-adv-x="371" 
d="M219 223l-22 -125h-62l22 125h-115l11 59h114l23 126h62l-23 -126h116l-11 -59h-115z" />
    <glyph glyph-name="comma" unicode="," horiz-adv-x="196" 
d="M-8 -112l55 112q-29 14 -29 48q0 22 16 37.5t37 15.5q23 0 37.5 -15t14.5 -38q0 -20 -18 -46l-75 -114h-38z" />
    <glyph glyph-name="hyphen" unicode="-" horiz-adv-x="277" 
d="M44 201l11 60h188l-10 -60h-189z" />
    <glyph glyph-name="period" unicode="." horiz-adv-x="196" 
d="M71 -7q-21 0 -37 15.5t-16 37.5q0 23 16 38.5t37 15.5t36.5 -15.5t15.5 -38.5q0 -22 -15.5 -37.5t-36.5 -15.5z" />
    <glyph glyph-name="slash" unicode="/" horiz-adv-x="416" 
d="M-38 -128l445 850h72l-445 -850h-72z" />
    <glyph glyph-name="zero" unicode="0" horiz-adv-x="608" 
d="M298 -8q-106 0 -177 71.5t-71 178.5q0 120 82 195t194 75q105 0 177 -71.5t72 -177.5q0 -121 -82 -196t-195 -75zM300 53q87 0 144.5 58.5t57.5 153.5q0 82 -49.5 134t-128.5 52q-87 0 -144.5 -58.5t-57.5 -152.5q0 -83 49.5 -135t128.5 -52z" />
    <glyph glyph-name="one" unicode="1" horiz-adv-x="288" 
d="M92 0l78 446h-108l10 58h178l-89 -504h-69z" />
    <glyph glyph-name="two" unicode="2" horiz-adv-x="448" 
d="M-2 0v9l218 177q73 58 105.5 97t32.5 82q0 41 -25 63t-65 22q-89 0 -127 -96l-63 19q24 69 74 104t118 35q69 0 113.5 -39.5t44.5 -102.5q0 -57 -38 -105.5t-114 -109.5l-87 -71q-20 -15 -47 -29l10 1q9 1 21.5 2t20.5 1h206l-11 -59h-387z" />
    <glyph glyph-name="three" unicode="3" horiz-adv-x="489" 
d="M207 -103q-75 0 -129 33.5t-82 92.5l60 31q46 -96 150 -96q66 0 108.5 37t42.5 107q0 60 -39.5 94t-104.5 34q-45 0 -85 -19l-6 10l190 191l42 37q-34 -3 -56 -3h-197l10 58h360v-7l-185 -186l-39 -33q77 2 129.5 -47.5t52.5 -128.5q0 -92 -61.5 -148.5t-160.5 -56.5z
" />
    <glyph glyph-name="four" unicode="4" horiz-adv-x="518" 
d="M391 76h75l-10 -55h-75l-20 -115h-69l20 115h-319l6 34l460 459h10zM322 76l41 228q3 24 15 59q-10 -15 -39 -44l-203 -207l-44 -38q30 2 52 2h178z" />
    <glyph glyph-name="five" unicode="5" horiz-adv-x="478" 
d="M199 -103q-71 0 -122 32t-74 81l60 29q41 -81 134 -81q69 0 110.5 40t41.5 106q0 60 -36.5 93.5t-103.5 33.5q-75 0 -138 -48l-6 4l55 317h317l-10 -58h-256l-31 -177q39 21 91 21q85 0 138 -52t53 -133q0 -91 -63 -149.5t-160 -58.5z" />
    <glyph glyph-name="six" unicode="6" horiz-adv-x="506" 
d="M243 -8q-90 0 -146 55.5t-56 140.5q0 84 79 172l221 251h80l-177 -200q-12 -13 -62 -51q53 32 97 32q81 0 133.5 -53.5t52.5 -136.5q0 -92 -63.5 -151t-158.5 -59zM243 53q67 0 108.5 42t41.5 108q0 60 -34.5 96.5t-96.5 36.5q-69 0 -109.5 -43t-40.5 -107
q0 -58 35.5 -95.5t95.5 -37.5z" />
    <glyph glyph-name="seven" unicode="7" horiz-adv-x="441" 
d="M15 -94l342 540h-287l10 58h382v-9l-372 -589h-75z" />
    <glyph glyph-name="eight" unicode="8" horiz-adv-x="517" 
d="M245 -8q-92 0 -150 51t-58 128q0 67 44.5 113.5t120.5 60.5q-68 36 -68 112q0 70 51.5 115.5t129.5 45.5q74 0 120.5 -41.5t46.5 -102.5q0 -52 -31 -89.5t-84 -52.5q51 -20 77.5 -58.5t26.5 -87.5q0 -89 -64.5 -141.5t-161.5 -52.5zM248 53q66 0 108.5 37.5t42.5 99.5
q0 56 -37.5 88t-100.5 32q-68 0 -110 -37t-42 -99q0 -53 38 -87t101 -34zM302 366q49 0 79 29t30 76q0 40 -27 65t-72 25q-48 0 -78.5 -29t-30.5 -76q0 -40 26.5 -65t72.5 -25z" />
    <glyph glyph-name="nine" unicode="9" horiz-adv-x="505" 
d="M91 -94l169 176q21 22 61 52q-40 -25 -87 -25q-81 0 -134 54t-53 136q0 92 63 152.5t157 60.5q90 0 146 -56.5t56 -140.5q0 -94 -90 -192l-205 -217h-83zM248 165q70 0 110.5 43.5t40.5 108.5q0 59 -36 96.5t-96 37.5q-66 0 -107.5 -43t-41.5 -109q0 -60 34.5 -97
t95.5 -37z" />
    <glyph glyph-name="colon" unicode=":" horiz-adv-x="205" 
d="M114 218q-21 0 -36.5 15t-15.5 38t15.5 38.5t36.5 15.5q22 0 37.5 -15.5t15.5 -38.5t-15.5 -38t-37.5 -15zM75 -7q-21 0 -36.5 15.5t-15.5 37.5q0 23 15.5 38.5t36.5 15.5q22 0 37.5 -15.5t15.5 -38.5q0 -22 -15.5 -37.5t-37.5 -15.5z" />
    <glyph glyph-name="semicolon" unicode=";" horiz-adv-x="205" 
d="M114 218q-21 0 -36.5 15t-15.5 38t15.5 38.5t36.5 15.5q22 0 37.5 -15.5t15.5 -38.5t-15.5 -38t-37.5 -15zM-3 -112l55 112q-29 13 -29 48q0 22 15.5 37.5t36.5 15.5q23 0 38 -15t15 -38q0 -20 -18 -46l-75 -114h-38z" />
    <glyph glyph-name="less" unicode="&#x3c;" horiz-adv-x="354" 
d="M281 94l-242 144v11l294 143l-12 -67l-183 -84l153 -86z" />
    <glyph glyph-name="equal" unicode="=" horiz-adv-x="369" 
d="M55 282l11 61h285l-11 -61h-285zM33 152l10 62h285l-11 -62h-284z" />
    <glyph glyph-name="greater" unicode="&#x3e;" horiz-adv-x="354" 
d="M25 94l12 67l184 84l-154 86l10 61l242 -144v-11z" />
    <glyph glyph-name="question" unicode="?" horiz-adv-x="468" 
d="M178 187l31 176h44q71 0 110.5 40.5t39.5 102.5q0 56 -33 88.5t-87 32.5q-90 0 -139 -89l-54 30q27 57 78 88.5t116 31.5q85 0 137 -50.5t52 -131.5q0 -86 -58.5 -141.5t-150.5 -55.5l-21 -122h-65zM186 -7q-21 0 -36 15.5t-15 37.5t15 37.5t36 15.5t37 -15.5t16 -37.5
t-16 -37.5t-37 -15.5z" />
    <glyph glyph-name="at" unicode="@" horiz-adv-x="872" 
d="M421 -206q-168 0 -273 105.5t-105 269.5q0 180 120 298.5t292 118.5q166 0 269 -100.5t103 -257.5q0 -115 -48.5 -174t-121.5 -59q-48 0 -77 22.5t-38 61.5q-23 -41 -59 -64t-79 -23q-74 0 -120.5 51t-46.5 128q0 89 53 147.5t130 58.5q50 0 86 -27.5t50 -73.5l14 91h67
l-41 -227q-8 -45 8.5 -69t53.5 -24q46 0 77 46.5t31 136.5q0 133 -84.5 217.5t-225.5 84.5q-150 0 -249 -103.5t-99 -258.5q0 -141 85 -231.5t228 -90.5q89 0 168 37l22 -49q-78 -42 -190 -42zM418 48q52 0 88.5 43.5t36.5 102.5q0 52 -32 89t-79 37q-55 0 -90 -40.5
t-35 -108.5q0 -56 30.5 -89.5t80.5 -33.5z" />
    <glyph glyph-name="A" unicode="A" horiz-adv-x="642" 
d="M499 0l-35 155h-303l-88 -155h-73l398 687h11l161 -687h-71zM343 474l-148 -260h256l-58 257q-13 55 -13 80l-2 -5q-3 -6 -6.5 -14l-8 -18t-10 -20.5z" />
    <glyph glyph-name="B" unicode="B" horiz-adv-x="598" 
d="M51 0l119 680h220q82 0 125.5 -44t43.5 -111q0 -129 -123 -165q52 -14 82 -53t30 -97q0 -93 -60 -151.5t-171 -58.5h-266zM133 62h179q81 0 122.5 40.5t41.5 109.5q0 53 -31 84t-93 31h-172zM191 388h162q66 0 100.5 35.5t34.5 95.5q0 43 -27 71t-80 28h-149z" />
    <glyph glyph-name="C" unicode="C" horiz-adv-x="712" 
d="M392 -8q-139 0 -230 93t-91 235q0 158 105.5 263t257.5 105q177 0 261 -133l-56 -37q-72 107 -207 107q-122 0 -205 -87.5t-83 -215.5q0 -116 70.5 -191.5t180.5 -75.5q131 0 218 99l52 -41q-105 -121 -273 -121z" />
    <glyph glyph-name="D" unicode="D" horiz-adv-x="659" 
d="M54 0l120 680h154q149 0 230.5 -82.5t81.5 -219.5q0 -171 -107 -274.5t-288 -103.5h-191zM136 62h105q159 0 242 87.5t83 230.5q0 109 -61.5 173.5t-184.5 64.5h-86z" />
    <glyph glyph-name="E" unicode="E" horiz-adv-x="566" 
d="M54 0l120 680h405l-10 -62h-336l-43 -245h298l-10 -62h-299l-44 -249h349l-11 -62h-419z" />
    <glyph glyph-name="F" unicode="F" horiz-adv-x="544" 
d="M54 0l120 680h401l-12 -62h-330l-46 -263h300l-11 -63h-300l-51 -292h-71z" />
    <glyph glyph-name="G" unicode="G" horiz-adv-x="735" 
d="M409 -8q-149 0 -242 90.5t-93 236.5q0 160 106.5 264.5t256.5 104.5q160 0 244 -97l-52 -46q-67 80 -193 80q-123 0 -206 -87t-83 -217q0 -120 72 -193.5t190 -73.5q98 0 178 48l28 161h-198l11 62h264l-45 -261q-100 -72 -238 -72z" />
    <glyph glyph-name="H" unicode="H" horiz-adv-x="677" 
d="M54 0l120 680h71l-57 -318h355l57 318h71l-120 -680h-71l52 300h-355l-52 -300h-71z" />
    <glyph glyph-name="I" unicode="I" horiz-adv-x="259" 
d="M58 0l120 680h71l-120 -680h-71z" />
    <glyph glyph-name="J" unicode="J" horiz-adv-x="455" 
d="M176 -8q-62 0 -105.5 29.5t-63.5 74.5l61 34q39 -74 110 -74q95 0 114 108l91 516h71l-92 -526q-28 -162 -186 -162z" />
    <glyph glyph-name="K" unicode="K" horiz-adv-x="592" 
d="M54 0l119 680h72l-54 -305q-3 -16 -20 -81q29 42 59 73l308 313h84l-303 -310l207 -370h-80l-180 321l-103 -99l-38 -222h-71z" />
    <glyph glyph-name="L" unicode="L" horiz-adv-x="515" 
d="M54 0l120 680h71l-109 -617h315l-11 -63h-386z" />
    <glyph glyph-name="M" unicode="M" horiz-adv-x="826" 
d="M54 0l121 688h10l241 -393l385 393h10l-121 -688h-68l79 449q2 13 6 32t8 34l4 15q-39 -52 -59 -72l-249 -259h-11l-159 261q-16 24 -40 72q0 -28 -10 -83l-79 -449h-68z" />
    <glyph glyph-name="N" unicode="N" horiz-adv-x="697" 
d="M558 -7l-312 481l-16 26l-15 25.5t-6 11.5q0 -42 -7 -75l-81 -462h-67l121 687h11l313 -483l36 -64q2 42 7 76l82 464h67l-121 -687h-12z" />
    <glyph glyph-name="O" unicode="O" horiz-adv-x="784" 
d="M395 -8q-139 0 -230.5 91.5t-91.5 234.5q0 161 105 265.5t258 104.5q138 0 230.5 -91.5t92.5 -233.5q0 -161 -105.5 -266t-258.5 -105zM398 55q125 0 206.5 88t81.5 221q0 116 -69.5 188t-181.5 72q-125 0 -207 -87t-82 -219q0 -116 69.5 -189.5t182.5 -73.5z" />
    <glyph glyph-name="P" unicode="P" horiz-adv-x="574" 
d="M54 0l119 680h169q105 0 163.5 -49t58.5 -142q0 -110 -70 -169.5t-192 -59.5h-131l-46 -260h-71zM181 321h123q187 0 187 166q0 64 -39.5 98t-115.5 34h-102z" />
    <glyph glyph-name="Q" unicode="Q" horiz-adv-x="784" 
d="M632 80l79 -102l-53 -40l-80 103q-85 -49 -183 -49q-139 0 -230.5 91.5t-91.5 234.5q0 161 105 265.5t258 104.5q138 0 230.5 -91.5t92.5 -233.5q0 -172 -127 -283zM541 89l-92 119l53 40l92 -120q92 87 92 236q0 116 -69.5 188t-181.5 72q-125 0 -207 -87t-82 -219
q0 -116 69.5 -190t182.5 -74q81 0 143 35z" />
    <glyph glyph-name="R" unicode="R" horiz-adv-x="602" 
d="M455 0l-125 269h-24h-134l-47 -269h-71l119 680h174q104 0 162.5 -49.5t59.5 -140.5q0 -83 -45 -137t-125 -74l133 -279h-77zM182 328h125q92 0 140.5 41t48.5 119q0 63 -39.5 97t-115.5 34h-108z" />
    <glyph glyph-name="S" unicode="S" horiz-adv-x="525" 
d="M243 -8q-82 0 -141 39t-88 95l58 37q63 -109 171 -109q70 0 107.5 35.5t37.5 94.5q0 39 -21.5 65.5t-74.5 60.5l-47 30q-61 39 -90.5 81t-29.5 98q0 76 52.5 122.5t132.5 46.5q111 0 175 -103l-55 -40q-25 39 -52.5 60t-69.5 21q-49 0 -81 -28t-32 -75q0 -39 19.5 -65.5
t66.5 -55.5l47 -29q69 -43 100.5 -85.5t31.5 -104.5q0 -87 -59 -139t-158 -52z" />
    <glyph glyph-name="T" unicode="T" horiz-adv-x="543" 
d="M200 0l110 618h-206l11 62h481l-11 -62h-204l-109 -618h-72z" />
    <glyph glyph-name="U" unicode="U" horiz-adv-x="648" 
d="M313 -8q-111 0 -176 69.5t-44 190.5l75 428h72l-75 -429q-17 -96 25 -146t126 -50q74 0 118.5 38t59.5 123l81 464h72l-84 -473q-37 -215 -250 -215z" />
    <glyph glyph-name="V" unicode="V" horiz-adv-x="641" 
d="M283 -7l-164 687h73l105 -452q4 -15 7.5 -38.5t5.5 -40.5t2 -18q16 47 44 95l259 454h75l-394 -687h-13z" />
    <glyph glyph-name="W" unicode="W" horiz-adv-x="932" 
d="M218 -7l-101 687h74l63 -444q5 -37 5 -84q13 40 36 81l251 454h12l89 -451q3 -12 6 -30.5t5 -35.5l2 -16q7 34 29 80l220 446h74l-342 -687h-11l-93 468q-10 47 -10 76l-3 -5q-2 -6 -5.5 -14l-7.5 -17.5t-9 -19.5l-9 -18l-263 -470h-12z" />
    <glyph glyph-name="X" unicode="X" horiz-adv-x="613" 
d="M1 0l295 371l-138 309h76l94 -207q4 -10 7.5 -23.5t6.5 -23.5l2 -11q20 39 32 56l166 209h79l-246 -310l166 -370h-77l-119 266q-4 10 -8 24.5t-6 23.5l-2 10q-16 -33 -33 -55l-216 -269h-79z" />
    <glyph glyph-name="Y" unicode="Y" horiz-adv-x="606" 
d="M227 0l44 251l-160 429h76l111 -301q4 -12 8 -29.5l7 -30t3 -13.5q20 40 41 71l216 303h77l-307 -430l-44 -250h-72z" />
    <glyph glyph-name="Z" unicode="Z" horiz-adv-x="577" 
d="M9 0v11l469 608h-318l11 61h428v-11l-470 -608h372l-11 -61h-481z" />
    <glyph glyph-name="bracketleft" unicode="[" horiz-adv-x="299" 
d="M14 -128l150 850h191l-10 -59h-122l-129 -732h122l-11 -59h-191z" />
    <glyph glyph-name="backslash" unicode="\" horiz-adv-x="408" 
d="M265 -128l-150 850h67l150 -850h-67z" />
    <glyph glyph-name="bracketright" unicode="]" horiz-adv-x="300" 
d="M-24 -128l11 59h122l129 732h-122l10 59h192l-150 -850h-192z" />
    <glyph glyph-name="asciicircum" unicode="^" horiz-adv-x="412" 
d="M112 463l173 225h10l96 -225h-55l-61 129l-104 -129h-59z" />
    <glyph glyph-name="underscore" unicode="_" horiz-adv-x="254" 
d="M-61 -128l11 61h258l-10 -61h-259z" />
    <glyph glyph-name="grave" unicode="`" horiz-adv-x="497" 
d="M259 505l-87 193h80l61 -193h-54z" />
    <glyph glyph-name="a" unicode="a" horiz-adv-x="528" 
d="M216 -8q-76 0 -123.5 54.5t-47.5 144.5q0 102 59 167t145 65q55 0 97 -33t57 -89l17 113h68l-57 -327q-5 -32 20 -32h38l-10 -55h-45q-43 0 -58 18t-11 54l3 13q-57 -93 -152 -93zM233 51q64 0 107.5 47.5t43.5 121.5q0 62 -33.5 102.5t-89.5 40.5q-65 0 -105.5 -48.5
t-40.5 -124.5q0 -62 32 -100.5t86 -38.5z" />
    <glyph glyph-name="b" unicode="b" horiz-adv-x="540" 
d="M290 -8q-59 0 -103 33.5t-60 90.5l-16 -116h-68l126 722h68l-68 -387q56 88 151 88q79 0 127.5 -55t48.5 -144q0 -100 -60 -166t-146 -66zM274 51q68 0 110 49t42 124q0 62 -33.5 100.5t-89.5 38.5q-67 0 -111.5 -48t-44.5 -121q0 -63 34.5 -103t92.5 -40z" />
    <glyph glyph-name="c" unicode="c" horiz-adv-x="455" 
d="M250 -8q-88 0 -146 58.5t-58 147.5q0 96 64 160.5t160 64.5q102 0 159 -74l-50 -40q-39 54 -109 54q-69 0 -111.5 -47t-42.5 -119q0 -63 37 -104.5t97 -41.5q64 0 110 41l40 -45q-59 -55 -150 -55z" />
    <glyph glyph-name="d" unicode="d" horiz-adv-x="541" 
d="M220 -8q-78 0 -126.5 55.5t-48.5 143.5q0 102 60.5 167t148.5 65q56 0 99 -32t58 -83l74 414h68l-112 -635q-6 -32 19 -32h38l-9 -55h-46q-43 0 -58 18.5t-11 54.5l3 13q-25 -44 -67 -69t-90 -25zM238 51q67 0 111.5 47.5t44.5 121.5q1 62 -34.5 102.5t-93.5 40.5
q-68 0 -109.5 -48.5t-41.5 -124.5q0 -62 33.5 -100.5t89.5 -38.5z" />
    <glyph glyph-name="e" unicode="e" horiz-adv-x="508" 
d="M115 186q3 -60 41.5 -98.5t101.5 -38.5q80 0 130 52l42 -42q-65 -67 -173 -67q-92 0 -151 57.5t-59 147.5q0 97 65 161.5t159 64.5q98 0 149.5 -67t39.5 -170h-345zM119 237h276q0 58 -32.5 94t-93.5 36q-58 0 -98.5 -35.5t-51.5 -94.5z" />
    <glyph glyph-name="f" unicode="f" horiz-adv-x="310" 
d="M128 356h-66l10 58h66l34 193q23 128 127 128q64 0 100 -50l-47 -40q-22 29 -51 29q-25 0 -40 -15.5t-22 -55.5l-33 -189h107l-10 -58h-107l-80 -454q-12 -67 -40 -90.5t-82 -23.5h-42l10 55h30q22 0 36 13.5t21 52.5z" />
    <glyph glyph-name="g" unicode="g" horiz-adv-x="533" 
d="M202 -223q-68 0 -119.5 31t-76.5 78l55 34q48 -83 141 -83q124 0 152 143l20 99q-56 -87 -152 -87q-78 0 -126.5 55.5t-48.5 143.5q0 102 61 167t149 65q57 0 100 -33t59 -89l16 113h68l-78 -442q-18 -98 -74.5 -146.5t-145.5 -48.5zM240 51q67 0 111.5 47.5t45.5 121.5
q0 62 -35.5 102.5t-93.5 40.5q-68 0 -109.5 -48.5t-41.5 -124.5q0 -62 33.5 -100.5t89.5 -38.5z" />
    <glyph glyph-name="h" unicode="h" horiz-adv-x="510" 
d="M42 0l127 722h68l-68 -385q53 86 144 86q70 0 107.5 -50t23.5 -134l-27 -152q-6 -32 19 -32h38l-9 -55h-44q-87 0 -70 94l24 139q11 60 -11.5 94.5t-74.5 34.5q-115 0 -138 -129l-41 -233h-68z" />
    <glyph glyph-name="i" unicode="i" horiz-adv-x="233" 
d="M178 535q-19 0 -33.5 13.5t-14.5 34.5t14 35t34 14q19 0 33.5 -14t14.5 -35t-14 -34.5t-34 -13.5zM127 0q-45 0 -61 22t-8 70l56 322h68l-57 -327q-6 -32 19 -32h41l-10 -55h-48z" />
    <glyph glyph-name="j" unicode="j" horiz-adv-x="225" 
d="M180 535q-19 0 -33.5 13.5t-14.5 34.5t14 35t34 14q19 0 33.5 -14t14.5 -35t-14 -34.5t-34 -13.5zM-22 -222q-58 0 -94 40l43 40q20 -22 46 -22q22 0 34 13t17 44l92 521h68l-91 -521q-21 -115 -115 -115z" />
    <glyph glyph-name="k" unicode="k" horiz-adv-x="462" 
d="M132 130l-22 -130h-68l127 722h68l-82 -463q-5 -26 -15 -61l228 216h81l-185 -176l96 -162q13 -21 37 -21h26l-10 -55h-29q-30 0 -48 11t-34 39l-89 149z" />
    <glyph glyph-name="l" unicode="l" horiz-adv-x="235" 
d="M132 0q-45 0 -61 22t-8 70l112 630h68l-113 -635q-6 -32 19 -32h46l-10 -55h-53z" />
    <glyph glyph-name="m" unicode="m" horiz-adv-x="742" 
d="M35 0l73 414h68l-16 -75q50 84 134 84q43 0 72 -24t40 -65q50 89 149 89q67 0 101 -50.5t19 -133.5l-27 -152q-5 -32 20 -32h38l-10 -55h-46q-45 0 -61 22t-7 70l24 141q23 129 -72 129q-101 0 -124 -129l-41 -233h-68l41 233q11 60 -6.5 94.5t-64.5 34.5
q-104 0 -127 -129l-41 -233h-68z" />
    <glyph glyph-name="n" unicode="n" horiz-adv-x="501" 
d="M35 0l73 414h68l-17 -83q50 92 147 92q70 0 108 -50t23 -134l-27 -152q-6 -32 20 -32h38l-10 -55h-46q-45 0 -61 22t-8 70l25 141q11 60 -11.5 94.5t-74.5 34.5q-115 0 -138 -129l-41 -233h-68z" />
    <glyph glyph-name="o" unicode="o" horiz-adv-x="521" 
d="M253 -8q-87 0 -147 59.5t-60 145.5q0 96 65 161t159 65q87 0 146.5 -60t59.5 -146q0 -96 -64.5 -160.5t-158.5 -64.5zM254 51q68 0 110 47t42 120q0 63 -38 104t-99 41q-67 0 -110 -47.5t-43 -119.5q0 -63 38.5 -104t99.5 -41z" />
    <glyph glyph-name="p" unicode="p" horiz-adv-x="534" 
d="M-2 -212l110 626h68l-18 -85q57 94 156 94q78 0 127 -55.5t49 -143.5q0 -100 -60.5 -166t-146.5 -66q-58 0 -101.5 32.5t-58.5 84.5l-57 -321h-68zM268 51q68 0 110 49t42 124q0 62 -34 100.5t-90 38.5q-67 0 -111.5 -48t-44.5 -121q0 -63 35 -103t93 -40z" />
    <glyph glyph-name="q" unicode="q" horiz-adv-x="534" 
d="M405 -212q-45 0 -61 22t-8 70l36 199q-56 -87 -152 -87q-78 0 -126.5 55.5t-48.5 143.5q0 102 60.5 167t148.5 65q57 0 100.5 -33t58.5 -89l17 113h68l-95 -539q-6 -32 19 -32h38l-9 -55h-46zM238 51q67 0 111.5 47.5t44.5 121.5q1 62 -34.5 102.5t-93.5 40.5
q-68 0 -109.5 -48.5t-41.5 -124.5q0 -62 33.5 -100.5t89.5 -38.5z" />
    <glyph glyph-name="r" unicode="r" horiz-adv-x="330" 
d="M35 0l73 414h68l-20 -89q48 97 129 97q28 0 54 -13l-27 -61q-17 10 -41 10q-51 0 -84.5 -37t-45.5 -105l-38 -216h-68z" />
    <glyph glyph-name="s" unicode="s" horiz-adv-x="402" 
d="M186 -8q-60 0 -104 25t-66 66l51 33q42 -68 121 -68q84 0 84 62q0 24 -18 38.5t-73 42.5q-51 25 -76.5 52t-25.5 70q0 52 37.5 81t94.5 29q86 0 133 -64l-46 -37q-35 46 -88 46q-30 0 -48.5 -13t-18.5 -37q0 -23 17 -38.5t61 -36.5q28 -13 44.5 -23t35.5 -25.5t28 -35.5
t9 -44q0 -57 -39 -90t-113 -33z" />
    <glyph glyph-name="t" unicode="t" horiz-adv-x="328" 
d="M179 -8q-53 0 -81.5 33.5t-15.5 102.5l40 228h-62l10 58h62l26 146h68l-26 -146h112l-10 -58h-112l-41 -231q-13 -74 39 -74q30 0 57 23l29 -47q-38 -35 -95 -35z" />
    <glyph glyph-name="u" unicode="u" horiz-adv-x="503" 
d="M193 -9q-70 0 -107.5 50t-23.5 134l42 239h68l-41 -233q-11 -60 11.5 -94.5t74.5 -34.5q114 0 137 129l42 233h68l-58 -327q-5 -32 20 -32h38l-10 -55h-45q-42 0 -58 21t-11 52l1 7q-54 -89 -148 -89z" />
    <glyph glyph-name="v" unicode="v" horiz-adv-x="451" 
d="M189 -8l-131 422h71l70 -239q12 -41 12 -71q7 27 31 69l146 241h73l-260 -422h-12z" />
    <glyph glyph-name="w" unicode="w" horiz-adv-x="669" 
d="M161 -9l-100 423h71l51 -232l4.5 -26t4 -25.5t1.5 -11.5q4 16 31 63l143 238h9l68 -235q3 -11 5.5 -26t4.5 -25.5t2 -11.5q5 21 28 63l126 229h71l-234 -423h-11l-69 246q-12 39 -12 61l-4 -10l-10.5 -23t-12.5 -25l-156 -249h-11z" />
    <glyph glyph-name="x" unicode="x" horiz-adv-x="460" 
d="M-6 0l198 221l-104 193h76l57 -108l17 -45q14 28 27 44l97 109h80l-169 -190l122 -224h-77l-72 135l-19 50q-17 -33 -32 -49l-122 -136h-79z" />
    <glyph glyph-name="y" unicode="y" horiz-adv-x="454" 
d="M22 -212l148 251l-111 375h71l72 -255q11 -39 11 -66q8 32 27 66l150 255h73l-368 -626h-73z" />
    <glyph glyph-name="z" unicode="z" horiz-adv-x="421" 
d="M10 0v10l294 347h-211l10 57h318v-11l-293 -347h230l-10 -56h-338z" />
    <glyph glyph-name="braceleft" unicode="{" horiz-adv-x="362" 
d="M217 -128q-61 0 -94 34.5t-18 116.5l31 180q7 40 -3.5 54t-38.5 14h-59l10 59h56q30 0 47 16.5t24 57.5l33 184q14 78 50 106t91 28h71l-10 -59h-55q-34 0 -51.5 -16.5t-26.5 -63.5l-34 -194q-8 -44 -28 -63.5t-54 -25.5q63 -16 48 -98l-32 -185q-9 -49 4.5 -67.5
t48.5 -18.5h51l-11 -59h-50z" />
    <glyph glyph-name="bar" unicode="|" horiz-adv-x="236" 
d="M25 -128l150 850h67l-150 -850h-67z" />
    <glyph glyph-name="braceright" unicode="}" horiz-adv-x="362" 
d="M-25 -128l10 59h56q33 0 51 16.5t26 63.5l35 201q8 44 28 63.5t55 25.5q-62 16 -49 98l32 178q9 49 -4.5 67.5t-48.5 18.5h-51l10 59h51q60 0 93.5 -35t18.5 -116l-31 -173q-7 -40 3.5 -54t39.5 -14h59l-11 -59h-55q-30 0 -47 -16.5t-25 -57.5l-34 -191
q-14 -78 -50.5 -106t-90.5 -28h-71z" />
    <glyph glyph-name="asciitilde" unicode="~" horiz-adv-x="386" 
d="M110 224l-51 6q19 110 93 110q29 0 64 -31q4 -3 11 -9.5t10 -9t8 -6t9 -4.5t8 -1q15 0 24 13t17 47l51 -6q-18 -110 -92 -110q-30 0 -65 31q-3 3 -9 8.5t-8.5 8t-7 5.5t-7 4.5t-6 2.5t-7.5 1q-28 0 -42 -60z" />
    <glyph glyph-name="uni00A0" unicode="&#xa0;" horiz-adv-x="181" 
 />
    <glyph glyph-name="exclamdown" unicode="&#xa1;" horiz-adv-x="235" 
d="M194 687q21 0 36 -15.5t15 -37.5t-15 -37.5t-36 -15.5t-37 15.5t-16 37.5t16 37.5t37 15.5zM195 490l-77 -490h-77l101 490h53z" />
    <glyph glyph-name="cent" unicode="&#xa2;" horiz-adv-x="455" 
d="M188 1q-64 19 -103 72.5t-39 124.5q0 93 61.5 157.5t154.5 67.5l19 106h50l-19 -109q72 -12 117 -71l-50 -40q-31 41 -77 52l-55 -311h3q61 0 110 41l40 -44q-59 -55 -150 -55h-13l-19 -108h-50zM252 363q-62 -6 -99.5 -51.5t-37.5 -114.5q0 -47 22.5 -84.5t60.5 -52.5z
" />
    <glyph glyph-name="sterling" unicode="&#xa3;" horiz-adv-x="540" 
d="M188 260h-96l10 55h78q-10 78 -10 113q0 89 52.5 139.5t140.5 50.5q117 0 171 -106l-55 -33q-42 78 -117 78q-122 0 -122 -134q0 -22 7 -108h157l-10 -55h-141q6 -46 6 -99q0 -30 -8 -59q67 -51 110 -51q51 0 93 44l41 -42q-52 -61 -134 -61q-62 0 -134 60
q-42 -60 -117 -60q-46 0 -74 25t-28 63q0 42 29 66t74 24q41 0 87 -28v9q0 47 -10 109zM185 88q-43 36 -74 36q-22 0 -35.5 -12t-13.5 -31t13 -31t35 -12q50 0 75 50z" />
    <glyph glyph-name="yen" unicode="&#xa5;" horiz-adv-x="518" 
d="M184 0l23 129h-170l9 55h167l-28 70h-127l10 55h97l-73 195h74l76 -216q4 -13 8.5 -30.5l7.5 -28.5l2 -11q0 1 4.5 11t13.5 27.5t18 30.5l158 217h76l-146 -195h95l-10 -55h-127l-52 -70h167l-9 -55h-171l-22 -129h-71z" />
    <glyph glyph-name="section" unicode="&#xa7;" horiz-adv-x="486" 
d="M145 413q-12 27 -12 61q0 63 44.5 103.5t112.5 40.5q107 0 152 -91l-55 -29q-32 63 -96 63q-43 0 -66.5 -24t-23.5 -62q0 -57 58 -83l89 -42q108 -48 108 -136q0 -82 -96 -117q15 -27 15 -64q0 -62 -44 -99t-120 -37q-67 0 -114 31t-65 76l57 27q35 -77 120 -77
q44 0 70 21.5t26 57.5q0 29 -16.5 47t-53.5 35l-80 37q-58 27 -83 59t-25 82q0 44 27 76t71 44zM331 133q59 20 59 75q0 51 -69 83l-87 41q-40 18 -65 45q-57 -19 -57 -77q0 -31 16 -50t53 -37l80 -36q46 -21 70 -44z" />
    <glyph glyph-name="dieresis" unicode="&#xa8;" horiz-adv-x="497" 
d="M400 537q-18 0 -31.5 13.5t-13.5 32.5q0 18 13.5 31.5t31.5 13.5t31.5 -13t13.5 -32t-13.5 -32.5t-31.5 -13.5zM233 537q-18 0 -31.5 13.5t-13.5 32.5q0 18 13.5 31.5t31.5 13.5t31.5 -13t13.5 -32t-13.5 -32.5t-31.5 -13.5z" />
    <glyph glyph-name="copyright" unicode="&#xa9;" horiz-adv-x="599" 
d="M308 -7q-107 0 -183.5 74.5t-76.5 184.5q0 111 76.5 185.5t183.5 74.5t183.5 -74.5t76.5 -185.5q0 -110 -76.5 -184.5t-183.5 -74.5zM308 33q92 0 154.5 62t62.5 157q0 96 -62.5 158t-154.5 62q-93 0 -155.5 -62t-62.5 -158q0 -95 63 -157t155 -62zM308 103
q-62 0 -103 42t-41 104q0 67 43 110t106 43q69 0 113 -49l-42 -37q-26 32 -69 32q-38 0 -63.5 -28t-25.5 -71q0 -40 23 -66t59 -26q43 0 71 30l39 -37q-43 -47 -110 -47z" />
    <glyph glyph-name="ordfeminine" unicode="&#xaa;" horiz-adv-x="471" 
d="M213 146q-64 0 -106 46t-42 123q0 88 51.5 142.5t125.5 54.5q46 0 81 -27t47 -74l14 93h61l-48 -274q-5 -27 18 -27h32l-9 -50h-38q-36 0 -50 16t-12 45v6q-48 -74 -125 -74zM228 200q54 0 90 39t36 101q0 52 -27.5 85t-75.5 33q-55 0 -88 -39.5t-33 -103.5
q0 -52 26 -83.5t72 -31.5z" />
    <glyph glyph-name="guillemotleft" unicode="&#xab;" horiz-adv-x="390" 
d="M252 37l-65 151l1 8l118 165h75l-126 -172l68 -152h-71zM102 37l-66 151l1 8l118 165h75l-125 -172l67 -152h-70z" />
    <glyph glyph-name="registered" unicode="&#xae;" horiz-adv-x="515" 
d="M204 362l42 237h75q40 0 61.5 -20t21.5 -52q0 -58 -58 -74l39 -91h-45l-35 85h-43l-15 -85h-43zM304 265q-90 0 -153 61t-63 153q0 93 63 154t153 61q91 0 155 -61t64 -154q0 -92 -64 -153t-155 -61zM304 299q79 0 129.5 49.5t50.5 130.5q0 82 -50 131.5t-130 49.5
q-78 0 -127 -49.5t-49 -131.5q0 -81 49 -130.5t127 -49.5zM268 480h42q50 0 50 44q0 39 -42 39h-36z" />
    <glyph glyph-name="macron" unicode="&#xaf;" horiz-adv-x="497" 
d="M190 539l10 54h229l-10 -54h-229z" />
    <glyph glyph-name="degree" unicode="&#xb0;" horiz-adv-x="323" 
d="M187 286q-47 0 -79.5 31.5t-32.5 77.5q0 50 35 83.5t85 33.5q47 0 79 -31.5t32 -77.5q0 -50 -35 -83.5t-84 -33.5zM187 330q30 0 48.5 21t18.5 53q0 29 -16 46t-44 17q-30 0 -49 -20.5t-19 -52.5q0 -29 16.5 -46.5t44.5 -17.5z" />
    <glyph glyph-name="acute" unicode="&#xb4;" horiz-adv-x="497" 
d="M267 505l98 193h84l-127 -193h-55z" />
    <glyph glyph-name="paragraph" unicode="&#xb6;" horiz-adv-x="573" 
d="M228 0l54 304h-5q-83 0 -130 48.5t-47 123.5q0 87 59 145.5t154 58.5h252l-120 -680h-69l110 620h-79l-110 -620h-69z" />
    <glyph glyph-name="periodcentered" unicode="&#xb7;" horiz-adv-x="201" 
d="M107 189q-21 0 -37.5 16t-16.5 39t16 38.5t38 15.5t38 -15.5t16 -38.5t-16 -39t-38 -16z" />
    <glyph glyph-name="cedilla" unicode="&#xb8;" horiz-adv-x="497" 
d="M209 -232q-38 0 -64.5 17t-37.5 43l42 23q17 -38 57 -38q22 0 35.5 13t13.5 35q0 21 -13.5 35t-39.5 14h-20l15 90h46l-9 -53q30 -5 51 -28.5t21 -58.5q0 -42 -28.5 -67t-68.5 -25z" />
    <glyph glyph-name="ordmasculine" unicode="&#xba;" horiz-adv-x="445" 
d="M238 146q-74 0 -123 50.5t-49 126.5q0 81 54 135t130 54q74 0 123 -51.5t49 -125.5q0 -84 -53.5 -136.5t-130.5 -52.5zM239 200q52 0 85 37.5t33 99.5q0 52 -29.5 86.5t-78.5 34.5q-53 0 -85 -38t-32 -99q0 -53 29 -87t78 -34z" />
    <glyph glyph-name="guillemotright" unicode="&#xbb;" horiz-adv-x="389" 
d="M159 37l126 173l-68 151h71l65 -150l-1 -8l-118 -166h-75zM8 37l126 173l-68 151h71l66 -150l-2 -8l-118 -166h-75z" />
    <glyph glyph-name="questiondown" unicode="&#xbf;" horiz-adv-x="467" 
d="M329 687q21 0 36.5 -15t15.5 -37t-15.5 -37.5t-36.5 -15.5t-36.5 15.5t-15.5 37.5t15.5 37t36.5 15zM338 494l-31 -176h-44q-71 0 -110.5 -40.5t-39.5 -102.5q0 -56 33 -88.5t87 -32.5q90 0 139 89l53 -30q-26 -57 -77 -88.5t-116 -31.5q-85 0 -137 50.5t-52 131.5
q0 86 58.5 141.5t150.5 55.5l21 122h65z" />
    <glyph glyph-name="Agrave" unicode="&#xc0;" horiz-adv-x="642" 
d="M499 0l-35 155h-303l-88 -155h-73l398 687h11l161 -687h-71zM343 474l-148 -260h256l-58 257q-13 55 -13 80l-2 -5q-3 -6 -6.5 -14l-8 -18t-10 -20.5zM382 756l-87 193h80l61 -193h-54z" />
    <glyph glyph-name="Aacute" unicode="&#xc1;" horiz-adv-x="642" 
d="M499 0l-35 155h-303l-88 -155h-73l398 687h11l161 -687h-71zM343 474l-148 -260h256l-58 257q-13 55 -13 80l-2 -5q-3 -6 -6.5 -14l-8 -18t-10 -20.5zM379 756l98 193h84l-127 -193h-55z" />
    <glyph glyph-name="Acircumflex" unicode="&#xc2;" horiz-adv-x="642" 
d="M499 0l-35 155h-303l-88 -155h-73l398 687h11l161 -687h-71zM343 474l-148 -260h256l-58 257q-13 55 -13 80l-2 -5q-3 -6 -6.5 -14l-8 -18t-10 -20.5zM278 754l158 193h10l94 -193h-56l-56 108l-90 -108h-60z" />
    <glyph glyph-name="Atilde" unicode="&#xc3;" horiz-adv-x="642" 
d="M305 759l-52 6q21 110 100 110q31 0 70 -31t56 -31t27.5 13.5t18.5 47.5l53 -6q-19 -110 -100 -110q-36 0 -72 31q-38 31 -55 31q-16 0 -26.5 -13.5t-19.5 -47.5zM499 0l-35 155h-303l-88 -155h-73l398 687h11l161 -687h-71zM343 474l-148 -260h256l-58 257
q-13 55 -13 80l-2 -5q-3 -6 -6.5 -14l-8 -18t-10 -20.5z" />
    <glyph glyph-name="Adieresis" unicode="&#xc4;" horiz-adv-x="642" 
d="M499 0l-35 155h-303l-88 -155h-73l398 687h11l161 -687h-71zM343 474l-148 -260h256l-58 257q-13 55 -13 80l-2 -5q-3 -6 -6.5 -14l-8 -18t-10 -20.5zM499 759q-18 0 -31.5 13.5t-13.5 32.5q0 18 13.5 31.5t31.5 13.5t31.5 -13t13.5 -32t-13.5 -32.5t-31.5 -13.5z
M332 759q-18 0 -31.5 13.5t-13.5 32.5q0 18 13.5 31.5t31.5 13.5t31.5 -13t13.5 -32t-13.5 -32.5t-31.5 -13.5z" />
    <glyph glyph-name="Aring" unicode="&#xc5;" horiz-adv-x="642" 
d="M499 0l-35 155h-303l-88 -155h-73l398 687h11l161 -687h-71zM343 474l-148 -260h256l-58 257q-13 55 -13 80l-2 -5q-3 -6 -6.5 -14l-8 -18t-10 -20.5zM423 742q-43 0 -73.5 29.5t-30.5 70.5q0 42 30.5 71.5t73.5 29.5t73.5 -29.5t30.5 -71.5q0 -41 -30.5 -70.5
t-73.5 -29.5zM423 785q23 0 38 16t15 41q0 26 -14.5 41.5t-38.5 15.5t-39 -15.5t-15 -41.5q0 -25 15.5 -41t38.5 -16z" />
    <glyph glyph-name="AE" unicode="&#xc6;" horiz-adv-x="928" 
d="M-10 0l562 680h389l-11 -62h-332l-44 -245h296l-11 -62h-296l-44 -249h347l-12 -62h-416l24 142h-258l-115 -142h-79zM234 202h219l49 280q4 28 22 87q-29 -48 -54 -78z" />
    <glyph glyph-name="Ccedilla" unicode="&#xc7;" horiz-adv-x="712" 
d="M332 -232q-38 0 -64.5 17t-37.5 43l41 23q19 -38 57 -38q23 0 36.5 13t13.5 35q0 21 -13.5 35t-39.5 14h-21l16 91q-112 23 -180.5 110t-68.5 209q0 158 105.5 263t257.5 105q177 0 261 -133l-56 -37q-72 107 -207 107q-122 0 -205 -87.5t-83 -215.5q0 -116 70.5 -191.5
t180.5 -75.5q131 0 218 99l52 -41q-105 -121 -273 -121q-19 0 -27 1l-8 -46q29 -5 50 -28.5t21 -58.5q0 -42 -28 -67t-68 -25z" />
    <glyph glyph-name="Egrave" unicode="&#xc8;" horiz-adv-x="566" 
d="M54 0l120 680h405l-10 -62h-336l-43 -245h298l-10 -62h-299l-44 -249h349l-11 -62h-419zM359 756l-87 193h80l61 -193h-54z" />
    <glyph glyph-name="Eacute" unicode="&#xc9;" horiz-adv-x="566" 
d="M356 756l98 193h84l-127 -193h-55zM54 0l120 680h405l-10 -62h-336l-43 -245h298l-10 -62h-299l-44 -249h349l-11 -62h-419z" />
    <glyph glyph-name="Ecircumflex" unicode="&#xca;" horiz-adv-x="566" 
d="M252 754l158 193h10l94 -193h-56l-56 108l-90 -108h-60zM54 0l120 680h405l-10 -62h-336l-43 -245h298l-10 -62h-299l-44 -249h349l-11 -62h-419z" />
    <glyph glyph-name="Edieresis" unicode="&#xcb;" horiz-adv-x="566" 
d="M481 759q-18 0 -31.5 13.5t-13.5 32.5q0 18 13.5 31.5t31.5 13.5t31.5 -13t13.5 -32t-13.5 -32.5t-31.5 -13.5zM314 759q-18 0 -31.5 13.5t-13.5 32.5q0 18 13.5 31.5t31.5 13.5t31.5 -13t13.5 -32t-13.5 -32.5t-31.5 -13.5zM54 0l120 680h405l-10 -62h-336l-43 -245h298
l-10 -62h-299l-44 -249h349l-11 -62h-419z" />
    <glyph glyph-name="Igrave" unicode="&#xcc;" horiz-adv-x="259" 
d="M58 0l120 680h71l-120 -680h-71zM197 756l-87 193h80l61 -193h-54z" />
    <glyph glyph-name="Iacute" unicode="&#xcd;" horiz-adv-x="259" 
d="M58 0l120 680h71l-120 -680h-71zM197 756l98 193h84l-127 -193h-55z" />
    <glyph glyph-name="Icircumflex" unicode="&#xce;" horiz-adv-x="259" 
d="M58 0l120 680h71l-120 -680h-71zM94 754l158 193h10l94 -193h-56l-56 108l-90 -108h-60z" />
    <glyph glyph-name="Idieresis" unicode="&#xcf;" horiz-adv-x="259" 
d="M58 0l120 680h71l-120 -680h-71zM319 759q-18 0 -31.5 13.5t-13.5 32.5q0 18 13.5 31.5t31.5 13.5t31.5 -13t13.5 -32t-13.5 -32.5t-31.5 -13.5zM152 759q-18 0 -31.5 13.5t-13.5 32.5q0 18 13.5 31.5t31.5 13.5t31.5 -13t13.5 -32t-13.5 -32.5t-31.5 -13.5z" />
    <glyph glyph-name="Eth" unicode="&#xd0;" horiz-adv-x="660" 
d="M54 0l54 311h-77l11 61h77l55 308h154q147 0 229.5 -83.5t82.5 -218.5q0 -171 -107 -274.5t-288 -103.5h-191zM136 62h105q159 0 242 87.5t83 230.5q0 109 -61.5 173.5t-184.5 64.5h-86l-44 -246h181l-11 -61h-181z" />
    <glyph glyph-name="Ntilde" unicode="&#xd1;" horiz-adv-x="697" 
d="M558 -7l-312 481l-16 26l-15 25.5t-6 11.5q0 -42 -7 -75l-81 -462h-67l121 687h11l313 -483l36 -64q2 42 7 76l82 464h67l-121 -687h-12zM336 759l-53 6q22 110 101 110q31 0 70 -31t56 -31t27 13.5t19 47.5l53 -6q-21 -110 -100 -110q-36 0 -72 31q-38 31 -55 31
q-16 0 -26.5 -13.5t-19.5 -47.5z" />
    <glyph glyph-name="Ograve" unicode="&#xd2;" horiz-adv-x="784" 
d="M395 -8q-139 0 -230.5 91.5t-91.5 234.5q0 161 105 265.5t258 104.5q138 0 230.5 -91.5t92.5 -233.5q0 -161 -105.5 -266t-258.5 -105zM398 55q125 0 206.5 88t81.5 221q0 116 -69.5 188t-181.5 72q-125 0 -207 -87t-82 -219q0 -116 69.5 -189.5t182.5 -73.5zM436 756
l-87 193h80l61 -193h-54z" />
    <glyph glyph-name="Oacute" unicode="&#xd3;" horiz-adv-x="784" 
d="M436 756l98 193h84l-127 -193h-55zM395 -8q-139 0 -230.5 91.5t-91.5 234.5q0 161 105 265.5t258 104.5q138 0 230.5 -91.5t92.5 -233.5q0 -161 -105.5 -266t-258.5 -105zM398 55q125 0 206.5 88t81.5 221q0 116 -69.5 188t-181.5 72q-125 0 -207 -87t-82 -219
q0 -116 69.5 -189.5t182.5 -73.5z" />
    <glyph glyph-name="Ocircumflex" unicode="&#xd4;" horiz-adv-x="784" 
d="M333 754l158 193h10l94 -193h-56l-56 108l-90 -108h-60zM395 -8q-139 0 -230.5 91.5t-91.5 234.5q0 161 105 265.5t258 104.5q138 0 230.5 -91.5t92.5 -233.5q0 -161 -105.5 -266t-258.5 -105zM398 55q125 0 206.5 88t81.5 221q0 116 -69.5 188t-181.5 72
q-125 0 -207 -87t-82 -219q0 -116 69.5 -189.5t182.5 -73.5z" />
    <glyph glyph-name="Otilde" unicode="&#xd5;" horiz-adv-x="784" 
d="M363 759l-53 6q22 110 101 110q29 0 70 -31q39 -31 56 -31q16 0 26.5 13.5t19.5 47.5l53 -6q-21 -110 -101 -110q-34 0 -72 31q-34 28 -47 30q-4 1 -7 1q-16 0 -26.5 -13.5t-19.5 -47.5zM395 -8q-139 0 -230.5 91.5t-91.5 234.5q0 161 105 265.5t258 104.5
q138 0 230.5 -91.5t92.5 -233.5q0 -161 -105.5 -266t-258.5 -105zM398 55q125 0 206.5 88t81.5 221q0 116 -69.5 188t-181.5 72q-125 0 -207 -87t-82 -219q0 -116 69.5 -189.5t182.5 -73.5z" />
    <glyph glyph-name="Odieresis" unicode="&#xd6;" horiz-adv-x="784" 
d="M555 759q-18 0 -31.5 13.5t-13.5 32.5q0 18 13.5 31.5t31.5 13.5t31.5 -13t13.5 -32t-13.5 -32.5t-31.5 -13.5zM388 759q-18 0 -31.5 13.5t-13.5 32.5q0 18 13.5 31.5t31.5 13.5t31.5 -13t13.5 -32t-13.5 -32.5t-31.5 -13.5zM395 -8q-139 0 -230.5 91.5t-91.5 234.5
q0 161 105 265.5t258 104.5q138 0 230.5 -91.5t92.5 -233.5q0 -161 -105.5 -266t-258.5 -105zM398 55q125 0 206.5 88t81.5 221q0 116 -69.5 188t-181.5 72q-125 0 -207 -87t-82 -219q0 -116 69.5 -189.5t182.5 -73.5z" />
    <glyph glyph-name="multiply" unicode="&#xd7;" horiz-adv-x="383" 
d="M243 250l84 -104l-46 -39l-84 103l-117 -102l-38 41l119 104l-84 105l46 38l83 -103l119 104l38 -42z" />
    <glyph glyph-name="Oslash" unicode="&#xd8;" horiz-adv-x="784" 
d="M692 569q67 -88 67 -206q0 -161 -105.5 -266t-256.5 -105q-126 0 -216 76l-78 -77l-42 43l79 78q-67 86 -67 206q0 160 104.5 265t256.5 105q127 0 216 -76l78 76l42 -43zM190 161l412 404q-65 59 -168 59q-124 0 -206 -87t-82 -219q0 -89 44 -157zM642 520l-413 -405
q68 -60 170 -60q123 0 205 88.5t82 220.5q0 90 -44 156z" />
    <glyph glyph-name="Ugrave" unicode="&#xd9;" horiz-adv-x="648" 
d="M313 -8q-111 0 -176 69.5t-44 190.5l75 428h72l-75 -429q-17 -96 25 -146t126 -50q74 0 118.5 38t59.5 123l81 464h72l-84 -473q-37 -215 -250 -215zM387 756l-87 193h80l61 -193h-54z" />
    <glyph glyph-name="Uacute" unicode="&#xda;" horiz-adv-x="648" 
d="M387 756l98 193h84l-127 -193h-55zM313 -8q-111 0 -176 69.5t-44 190.5l75 428h72l-75 -429q-17 -96 25 -146t126 -50q74 0 118.5 38t59.5 123l81 464h72l-84 -473q-37 -215 -250 -215z" />
    <glyph glyph-name="Ucircumflex" unicode="&#xdb;" horiz-adv-x="648" 
d="M284 754l158 193h10l94 -193h-56l-56 108l-90 -108h-60zM313 -8q-111 0 -176 69.5t-44 190.5l75 428h72l-75 -429q-17 -96 25 -146t126 -50q74 0 118.5 38t59.5 123l81 464h72l-84 -473q-37 -215 -250 -215z" />
    <glyph glyph-name="Udieresis" unicode="&#xdc;" horiz-adv-x="648" 
d="M510 759q-18 0 -31.5 13.5t-13.5 32.5q0 18 13.5 31.5t31.5 13.5t31.5 -13t13.5 -32t-13.5 -32.5t-31.5 -13.5zM343 759q-18 0 -31.5 13.5t-13.5 32.5q0 18 13.5 31.5t31.5 13.5t31.5 -13t13.5 -32t-13.5 -32.5t-31.5 -13.5zM313 -8q-111 0 -176 69.5t-44 190.5l75 428
h72l-75 -429q-17 -96 25 -146t126 -50q74 0 118.5 38t59.5 123l81 464h72l-84 -473q-37 -215 -250 -215z" />
    <glyph glyph-name="Yacute" unicode="&#xdd;" horiz-adv-x="606" 
d="M227 0l44 251l-160 429h76l111 -301q4 -12 8 -29.5l7 -30t3 -13.5q20 40 41 71l216 303h77l-307 -430l-44 -250h-72zM365 756l98 193h84l-127 -193h-55z" />
    <glyph glyph-name="Thorn" unicode="&#xde;" horiz-adv-x="565" 
d="M54 0l120 680h71l-23 -126h95q105 0 163.5 -49t58.5 -141q0 -111 -69 -170.5t-190 -59.5h-132l-23 -134h-71zM159 195h122q92 0 139 42t47 124q0 63 -39.5 97t-116.5 34h-99z" />
    <glyph glyph-name="germandbls" unicode="&#xdf;" horiz-adv-x="527" 
d="M347 398q62 -19 98 -67.5t36 -117.5q0 -100 -57 -159t-156 -59q-52 0 -90 17l18 55q35 -13 69 -13q71 0 108 44.5t37 121.5q0 67 -40.5 106.5t-119.5 42.5l10 56q65 4 108 44t43 106q0 52 -25.5 77t-68.5 25q-48 0 -77 -31t-41 -99l-114 -645q-11 -67 -39.5 -90.5
t-81.5 -23.5h-42l10 55h30q22 0 36 13.5t21 52.5l113 643q32 183 186 183q70 0 114 -42t44 -117q0 -63 -34.5 -109.5t-94.5 -68.5z" />
    <glyph glyph-name="agrave" unicode="&#xe0;" horiz-adv-x="528" 
d="M216 -8q-76 0 -123.5 54.5t-47.5 144.5q0 102 59 167t145 65q55 0 97 -33t57 -89l17 113h68l-57 -327q-5 -32 20 -32h38l-10 -55h-45q-43 0 -58 18t-11 54l3 13q-57 -93 -152 -93zM233 51q64 0 107.5 47.5t43.5 121.5q0 62 -33.5 102.5t-89.5 40.5q-65 0 -105.5 -48.5
t-40.5 -124.5q0 -62 32 -100.5t86 -38.5zM265 505l-87 193h80l61 -193h-54z" />
    <glyph glyph-name="aacute" unicode="&#xe1;" horiz-adv-x="528" 
d="M216 -8q-76 0 -123.5 54.5t-47.5 144.5q0 102 59 167t145 65q55 0 97 -33t57 -89l17 113h68l-57 -327q-5 -32 20 -32h38l-10 -55h-45q-43 0 -58 18t-11 54l3 13q-57 -93 -152 -93zM233 51q64 0 107.5 47.5t43.5 121.5q0 62 -33.5 102.5t-89.5 40.5q-65 0 -105.5 -48.5
t-40.5 -124.5q0 -62 32 -100.5t86 -38.5zM266 505l98 193h84l-127 -193h-55z" />
    <glyph glyph-name="acircumflex" unicode="&#xe2;" horiz-adv-x="528" 
d="M216 -8q-76 0 -123.5 54.5t-47.5 144.5q0 102 59 167t145 65q55 0 97 -33t57 -89l17 113h68l-57 -327q-5 -32 20 -32h38l-10 -55h-45q-43 0 -58 18t-11 54l3 13q-57 -93 -152 -93zM233 51q64 0 107.5 47.5t43.5 121.5q0 62 -33.5 102.5t-89.5 40.5q-65 0 -105.5 -48.5
t-40.5 -124.5q0 -62 32 -100.5t86 -38.5zM164 503l158 193h10l94 -193h-56l-56 108l-90 -108h-60z" />
    <glyph glyph-name="atilde" unicode="&#xe3;" horiz-adv-x="528" 
d="M216 -8q-76 0 -123.5 54.5t-47.5 144.5q0 102 59 167t145 65q55 0 97 -33t57 -89l17 113h68l-57 -327q-5 -32 20 -32h38l-10 -55h-45q-43 0 -58 18t-11 54l3 13q-57 -93 -152 -93zM233 51q64 0 107.5 47.5t43.5 121.5q0 62 -33.5 102.5t-89.5 40.5q-65 0 -105.5 -48.5
t-40.5 -124.5q0 -62 32 -100.5t86 -38.5zM206 508l-51 6q19 110 92 110q30 0 63 -31q35 -30 47 -30q15 0 24 13t18 47l51 -6q-18 -110 -93 -110q-30 0 -63 31q-2 2 -7 6.5t-7 6t-6 5t-5.5 4.5t-5 3t-5.5 3t-5 1.5t-6 0.5q-15 0 -24 -13t-17 -47z" />
    <glyph glyph-name="adieresis" unicode="&#xe4;" horiz-adv-x="528" 
d="M216 -8q-76 0 -123.5 54.5t-47.5 144.5q0 102 59 167t145 65q55 0 97 -33t57 -89l17 113h68l-57 -327q-5 -32 20 -32h38l-10 -55h-45q-43 0 -58 18t-11 54l3 13q-57 -93 -152 -93zM233 51q64 0 107.5 47.5t43.5 121.5q0 62 -33.5 102.5t-89.5 40.5q-65 0 -105.5 -48.5
t-40.5 -124.5q0 -62 32 -100.5t86 -38.5zM394 537q-18 0 -31.5 13.5t-13.5 32.5q0 18 13.5 31.5t31.5 13.5t31.5 -13t13.5 -32t-13.5 -32.5t-31.5 -13.5zM227 537q-18 0 -31.5 13.5t-13.5 32.5q0 18 13.5 31.5t31.5 13.5t31.5 -13t13.5 -32t-13.5 -32.5t-31.5 -13.5z" />
    <glyph glyph-name="aring" unicode="&#xe5;" horiz-adv-x="528" 
d="M216 -8q-76 0 -123.5 54.5t-47.5 144.5q0 102 59 167t145 65q55 0 97 -33t57 -89l17 113h68l-57 -327q-5 -32 20 -32h38l-10 -55h-45q-43 0 -58 18t-11 54l3 13q-57 -93 -152 -93zM233 51q64 0 107.5 47.5t43.5 121.5q0 62 -33.5 102.5t-89.5 40.5q-65 0 -105.5 -48.5
t-40.5 -124.5q0 -62 32 -100.5t86 -38.5zM308 484q-43 0 -73.5 29.5t-30.5 70.5q0 42 30.5 71.5t73.5 29.5t73.5 -29.5t30.5 -71.5q0 -41 -30.5 -70.5t-73.5 -29.5zM308 527q23 0 38 16t15 41q0 26 -14.5 41.5t-38.5 15.5t-39 -15.5t-15 -41.5q0 -25 15.5 -41t38.5 -16z" />
    <glyph glyph-name="ae" unicode="&#xe6;" horiz-adv-x="781" 
d="M180 -8q-68 0 -109 32t-41 86q0 67 47 98.5t121 31.5h133l2 15q10 56 -14.5 84t-70.5 28q-73 0 -118 -59l-40 41q55 74 160 74q46 0 81 -23t48 -64q62 87 169 87q97 0 147 -66t39 -168h-340q1 -64 39.5 -102t102.5 -38q79 0 129 52l42 -42q-65 -67 -172 -67
q-64 0 -111.5 30.5t-69.5 83.5q-17 -51 -59.5 -82.5t-114.5 -31.5zM185 47q56 0 88.5 25t40.5 67l8 50h-126q-97 0 -97 -73q0 -69 86 -69zM398 240h271q1 59 -30 93t-93 34q-59 0 -98 -34t-50 -93z" />
    <glyph glyph-name="ccedilla" unicode="&#xe7;" horiz-adv-x="455" 
d="M180 -232q-38 0 -64.5 17t-37.5 43l41 23q19 -38 57 -38q23 0 36.5 13t13.5 35q0 21 -13.5 35t-39.5 14h-21l17 97q-56 24 -89.5 74.5t-33.5 116.5q0 96 64 160.5t160 64.5q102 0 159 -74l-50 -40q-39 54 -109 54q-69 0 -111.5 -47t-42.5 -119q0 -63 37 -104.5t97 -41.5
q64 0 110 41l40 -45q-59 -55 -150 -55q-19 0 -37 3l-8 -48q29 -5 50 -28.5t21 -58.5q0 -42 -28 -67t-68 -25z" />
    <glyph glyph-name="egrave" unicode="&#xe8;" horiz-adv-x="508" 
d="M115 186q3 -60 41.5 -98.5t101.5 -38.5q80 0 130 52l42 -42q-65 -67 -173 -67q-92 0 -151 57.5t-59 147.5q0 97 65 161.5t159 64.5q98 0 149.5 -67t39.5 -170h-345zM119 237h276q0 58 -32.5 94t-93.5 36q-58 0 -98.5 -35.5t-51.5 -94.5zM256 505l-87 193h80l61 -193h-54z
" />
    <glyph glyph-name="eacute" unicode="&#xe9;" horiz-adv-x="508" 
d="M256 505l98 193h84l-127 -193h-55zM115 186q3 -60 41.5 -98.5t101.5 -38.5q80 0 130 52l42 -42q-65 -67 -173 -67q-92 0 -151 57.5t-59 147.5q0 97 65 161.5t159 64.5q98 0 149.5 -67t39.5 -170h-345zM119 237h276q0 58 -32.5 94t-93.5 36q-58 0 -98.5 -35.5t-51.5 -94.5
z" />
    <glyph glyph-name="ecircumflex" unicode="&#xea;" horiz-adv-x="508" 
d="M153 503l158 193h10l94 -193h-56l-56 108l-90 -108h-60zM115 186q3 -60 41.5 -98.5t101.5 -38.5q80 0 130 52l42 -42q-65 -67 -173 -67q-92 0 -151 57.5t-59 147.5q0 97 65 161.5t159 64.5q98 0 149.5 -67t39.5 -170h-345zM119 237h276q0 58 -32.5 94t-93.5 36
q-58 0 -98.5 -35.5t-51.5 -94.5z" />
    <glyph glyph-name="edieresis" unicode="&#xeb;" horiz-adv-x="508" 
d="M384 537q-18 0 -31.5 13.5t-13.5 32.5q0 18 13.5 31.5t31.5 13.5t31.5 -13t13.5 -32t-13.5 -32.5t-31.5 -13.5zM217 537q-18 0 -31.5 13.5t-13.5 32.5q0 18 13.5 31.5t31.5 13.5t31.5 -13t13.5 -32t-13.5 -32.5t-31.5 -13.5zM115 186q3 -60 41.5 -98.5t101.5 -38.5
q80 0 130 52l42 -42q-65 -67 -173 -67q-92 0 -151 57.5t-59 147.5q0 97 65 161.5t159 64.5q98 0 149.5 -67t39.5 -170h-345zM119 237h276q0 58 -32.5 94t-93.5 36q-58 0 -98.5 -35.5t-51.5 -94.5z" />
    <glyph glyph-name="igrave" unicode="&#xec;" horiz-adv-x="233" 
d="M127 0q-45 0 -61 22t-8 70l56 322h68l-57 -327q-6 -32 19 -32h41l-10 -55h-48zM131 505l-87 193h80l61 -193h-54z" />
    <glyph glyph-name="iacute" unicode="&#xed;" horiz-adv-x="233" 
d="M131 505l98 193h84l-127 -193h-55zM127 0q-45 0 -61 22t-8 70l56 322h68l-57 -327q-6 -32 19 -32h41l-10 -55h-48z" />
    <glyph glyph-name="icircumflex" unicode="&#xee;" horiz-adv-x="233" 
d="M29 503l158 193h10l94 -193h-56l-56 108l-90 -108h-60zM127 0q-45 0 -61 22t-8 70l56 322h68l-57 -327q-6 -32 19 -32h41l-10 -55h-48z" />
    <glyph glyph-name="idieresis" unicode="&#xef;" horiz-adv-x="233" 
d="M124 0q-45 0 -61 22t-8 70l57 322h68l-58 -327q-6 -32 19 -32h41l-9 -55h-49zM251 537q-18 0 -31.5 13.5t-13.5 32.5q0 18 13.5 31.5t31.5 13.5t31.5 -13t13.5 -32t-13.5 -32.5t-31.5 -13.5zM100 537q-18 0 -31.5 13.5t-13.5 32.5t13.5 32t31.5 13t31.5 -13t13.5 -32
t-13.5 -32.5t-31.5 -13.5z" />
    <glyph glyph-name="eth" unicode="&#xf0;" horiz-adv-x="521" 
d="M251 -8q-89 0 -147 58.5t-58 149.5q0 97 64.5 160t150.5 63q92 0 138 -72q-20 117 -91 229l-77 -60l-28 38l78 61q-26 38 -63 80l43 39q37 -35 70 -80l75 59l28 -38l-75 -59q117 -174 117 -370q0 -120 -61 -189t-164 -69zM252 50q68 0 110 48t42 126q0 61 -37 100.5
t-97 39.5q-67 0 -111 -47t-44 -119q0 -65 37.5 -106.5t99.5 -41.5z" />
    <glyph glyph-name="ntilde" unicode="&#xf1;" horiz-adv-x="501" 
d="M35 0l73 414h68l-17 -83q50 92 147 92q70 0 108 -50t23 -134l-27 -152q-6 -32 20 -32h38l-10 -55h-46q-45 0 -61 22t-8 70l25 141q11 60 -11.5 94.5t-74.5 34.5q-115 0 -138 -129l-41 -233h-68zM202 508l-51 6q19 110 92 110q30 0 63 -31q35 -30 47 -30q15 0 24 13t18 47
l51 -6q-18 -110 -93 -110q-30 0 -63 31q-2 2 -7 6.5t-7 6t-6 5t-5.5 4.5t-5 3t-5.5 3t-5 1.5t-6 0.5q-15 0 -24 -13t-17 -47z" />
    <glyph glyph-name="ograve" unicode="&#xf2;" horiz-adv-x="521" 
d="M253 -8q-87 0 -147 59.5t-60 145.5q0 96 65 161t159 65q87 0 146.5 -60t59.5 -146q0 -96 -64.5 -160.5t-158.5 -64.5zM254 51q68 0 110 47t42 120q0 63 -38 104t-99 41q-67 0 -110 -47.5t-43 -119.5q0 -63 38.5 -104t99.5 -41zM266 505l-87 193h80l61 -193h-54z" />
    <glyph glyph-name="oacute" unicode="&#xf3;" horiz-adv-x="521" 
d="M267 505l98 193h84l-127 -193h-55zM253 -8q-87 0 -147 59.5t-60 145.5q0 96 65 161t159 65q87 0 146.5 -60t59.5 -146q0 -96 -64.5 -160.5t-158.5 -64.5zM254 51q68 0 110 47t42 120q0 63 -38 104t-99 41q-67 0 -110 -47.5t-43 -119.5q0 -63 38.5 -104t99.5 -41z" />
    <glyph glyph-name="ocircumflex" unicode="&#xf4;" horiz-adv-x="521" 
d="M164 503l158 193h10l94 -193h-56l-56 108l-90 -108h-60zM253 -8q-87 0 -147 59.5t-60 145.5q0 96 65 161t159 65q87 0 146.5 -60t59.5 -146q0 -96 -64.5 -160.5t-158.5 -64.5zM254 51q68 0 110 47t42 120q0 63 -38 104t-99 41q-67 0 -110 -47.5t-43 -119.5
q0 -63 38.5 -104t99.5 -41z" />
    <glyph glyph-name="otilde" unicode="&#xf5;" horiz-adv-x="521" 
d="M253 -8q-87 0 -147 59.5t-60 145.5q0 96 65 161t159 65q87 0 146.5 -60t59.5 -146q0 -96 -64.5 -160.5t-158.5 -64.5zM254 51q68 0 110 47t42 120q0 63 -38 104t-99 41q-67 0 -110 -47.5t-43 -119.5q0 -63 38.5 -104t99.5 -41zM207 508l-51 6q19 110 92 110q30 0 63 -31
q35 -30 47 -30q15 0 24 13t18 47l51 -6q-18 -110 -93 -110q-30 0 -63 31q-2 2 -7 6.5t-7 6t-6 5t-5.5 4.5t-5 3t-5.5 3t-5 1.5t-6 0.5q-15 0 -24 -13t-17 -47z" />
    <glyph glyph-name="odieresis" unicode="&#xf6;" horiz-adv-x="521" 
d="M395 537q-18 0 -31.5 13.5t-13.5 32.5q0 18 13.5 31.5t31.5 13.5t31.5 -13t13.5 -32t-13.5 -32.5t-31.5 -13.5zM228 537q-18 0 -31.5 13.5t-13.5 32.5q0 18 13.5 31.5t31.5 13.5t31.5 -13t13.5 -32t-13.5 -32.5t-31.5 -13.5zM253 -8q-87 0 -147 59.5t-60 145.5
q0 96 65 161t159 65q87 0 146.5 -60t59.5 -146q0 -96 -64.5 -160.5t-158.5 -64.5zM254 51q68 0 110 47t42 120q0 63 -38 104t-99 41q-67 0 -110 -47.5t-43 -119.5q0 -63 38.5 -104t99.5 -41z" />
    <glyph glyph-name="divide" unicode="&#xf7;" horiz-adv-x="370" 
d="M219 345q-20 0 -35 14.5t-15 36.5q0 21 15 35.5t35 14.5q21 0 35.5 -14.5t14.5 -35.5q0 -22 -14.5 -36.5t-35.5 -14.5zM169 59q-21 0 -35.5 14.5t-14.5 35.5q0 22 14.5 36.5t35.5 14.5t35.5 -14.5t14.5 -36.5q0 -21 -14.5 -35.5t-35.5 -14.5zM42 223l11 59h292l-11 -59
h-292z" />
    <glyph glyph-name="oslash" unicode="&#xf8;" horiz-adv-x="521" 
d="M440 336q37 -53 37 -119q0 -96 -64.5 -160.5t-158.5 -64.5q-78 0 -135 49l-58 -53l-35 37l58 53q-37 55 -37 119q0 96 65 161t159 65q79 0 135 -50l57 52l34 -37zM132 122l230 210q-36 34 -92 34q-68 0 -111.5 -48.5t-43.5 -121.5q0 -42 17 -74zM392 292l-230 -211
q38 -33 93 -33q69 0 111.5 48t42.5 122q0 42 -17 74z" />
    <glyph glyph-name="ugrave" unicode="&#xf9;" horiz-adv-x="503" 
d="M193 -9q-70 0 -107.5 50t-23.5 134l42 239h68l-41 -233q-11 -60 11.5 -94.5t74.5 -34.5q114 0 137 129l42 233h68l-58 -327q-5 -32 20 -32h38l-10 -55h-45q-42 0 -58 21t-11 52l1 7q-54 -89 -148 -89zM271 505l-87 193h80l61 -193h-54z" />
    <glyph glyph-name="uacute" unicode="&#xfa;" horiz-adv-x="503" 
d="M272 505l98 193h84l-127 -193h-55zM193 -9q-70 0 -107.5 50t-23.5 134l42 239h68l-41 -233q-11 -60 11.5 -94.5t74.5 -34.5q114 0 137 129l42 233h68l-58 -327q-5 -32 20 -32h38l-10 -55h-45q-42 0 -58 21t-11 52l1 7q-54 -89 -148 -89z" />
    <glyph glyph-name="ucircumflex" unicode="&#xfb;" horiz-adv-x="503" 
d="M170 503l158 193h10l94 -193h-56l-56 108l-90 -108h-60zM193 -9q-70 0 -107.5 50t-23.5 134l42 239h68l-41 -233q-11 -60 11.5 -94.5t74.5 -34.5q114 0 137 129l42 233h68l-58 -327q-5 -32 20 -32h38l-10 -55h-45q-42 0 -58 21t-11 52l1 7q-54 -89 -148 -89z" />
    <glyph glyph-name="udieresis" unicode="&#xfc;" horiz-adv-x="503" 
d="M400 537q-18 0 -31.5 13.5t-13.5 32.5q0 18 13.5 31.5t31.5 13.5t31.5 -13t13.5 -32t-13.5 -32.5t-31.5 -13.5zM233 537q-18 0 -31.5 13.5t-13.5 32.5q0 18 13.5 31.5t31.5 13.5t31.5 -13t13.5 -32t-13.5 -32.5t-31.5 -13.5zM193 -9q-70 0 -107.5 50t-23.5 134l42 239h68
l-41 -233q-11 -60 11.5 -94.5t74.5 -34.5q114 0 137 129l42 233h68l-58 -327q-5 -32 20 -32h38l-10 -55h-45q-42 0 -58 21t-11 52l1 7q-54 -89 -148 -89z" />
    <glyph glyph-name="yacute" unicode="&#xfd;" horiz-adv-x="454" 
d="M22 -212l148 251l-111 375h71l72 -255q11 -39 11 -66q8 32 27 66l150 255h73l-368 -626h-73zM241 505l98 193h84l-127 -193h-55z" />
    <glyph glyph-name="thorn" unicode="&#xfe;" horiz-adv-x="534" 
d="M-2 -212l164 934h68l-68 -389q54 90 152 90q78 0 127 -55.5t49 -143.5q0 -100 -60.5 -166t-146.5 -66q-58 0 -101.5 32.5t-58.5 84.5l-57 -321h-68zM268 51q68 0 110 49t42 124q0 62 -34 100.5t-90 38.5q-67 0 -111.5 -48t-44.5 -121q0 -63 35 -103t93 -40z" />
    <glyph glyph-name="ydieresis" unicode="&#xff;" horiz-adv-x="454" 
d="M22 -212l148 251l-111 375h71l72 -255q11 -39 11 -66q8 32 27 66l150 255h73l-368 -626h-73zM203 537q-18 0 -31.5 13.5t-13.5 32.5q0 18 13.5 31.5t31.5 13.5t31.5 -13t13.5 -32t-13.5 -32.5t-31.5 -13.5zM370 537q-18 0 -31.5 13.5t-13.5 32.5q0 18 13.5 31.5
t31.5 13.5t31.5 -13t13.5 -32t-13.5 -32.5t-31.5 -13.5z" />
    <glyph glyph-name="Amacron" unicode="&#x100;" horiz-adv-x="642" 
d="M499 0l-35 155h-303l-88 -155h-73l398 687h11l161 -687h-71zM343 474l-148 -260h256l-58 257q-13 55 -13 80l-2 -5q-3 -6 -6.5 -14l-8 -18t-10 -20.5zM299 768l10 54h229l-10 -54h-229z" />
    <glyph glyph-name="amacron" unicode="&#x101;" horiz-adv-x="528" 
d="M216 -8q-76 0 -123.5 54.5t-47.5 144.5q0 102 59 167t145 65q55 0 97 -33t57 -89l17 113h68l-57 -327q-5 -32 20 -32h38l-10 -55h-45q-43 0 -58 18t-11 54l3 13q-57 -93 -152 -93zM233 51q64 0 107.5 47.5t43.5 121.5q0 62 -33.5 102.5t-89.5 40.5q-65 0 -105.5 -48.5
t-40.5 -124.5q0 -62 32 -100.5t86 -38.5zM188 539l10 54h229l-10 -54h-229z" />
    <glyph glyph-name="Abreve" unicode="&#x102;" horiz-adv-x="642" 
d="M499 0l-35 155h-303l-88 -155h-73l398 687h11l161 -687h-71zM343 474l-148 -260h256l-58 257q-13 55 -13 80l-2 -5q-3 -6 -6.5 -14l-8 -18t-10 -20.5zM417 750q-54 0 -86 34t-36 83l57 9q9 -71 65 -71q60 0 80 71l55 -9q-11 -51 -46 -84t-89 -33z" />
    <glyph glyph-name="abreve" unicode="&#x103;" horiz-adv-x="528" 
d="M216 -8q-76 0 -123.5 54.5t-47.5 144.5q0 102 59 167t145 65q55 0 97 -33t57 -89l17 113h68l-57 -327q-5 -32 20 -32h38l-10 -55h-45q-43 0 -58 18t-11 54l3 13q-57 -93 -152 -93zM233 51q64 0 107.5 47.5t43.5 121.5q0 62 -33.5 102.5t-89.5 40.5q-65 0 -105.5 -48.5
t-40.5 -124.5q0 -62 32 -100.5t86 -38.5zM302 499q-54 0 -86 34t-36 83l57 9q9 -71 65 -71q60 0 80 71l55 -9q-11 -51 -46 -84t-89 -33z" />
    <glyph glyph-name="Aogonek" unicode="&#x104;" horiz-adv-x="642" 
d="M501 -9l-37 164h-303l-88 -155h-73l398 687h11l159 -679l-51 -61q-25 -30 -35 -49t-10 -42q0 -18 12 -29.5t30 -11.5q12 0 22 5.5t15.5 12t13.5 18.5l41 -25q-30 -58 -97 -58q-38 0 -65.5 22.5t-27.5 62.5q0 55 60 113zM343 474l-148 -260h256l-58 257q-13 55 -13 80
l-2 -5q-3 -6 -6.5 -14l-8 -18t-10 -20.5z" />
    <glyph glyph-name="aogonek" unicode="&#x105;" horiz-adv-x="528" 
d="M417 1l-46 -54q-26 -30 -36.5 -49t-10.5 -43q0 -19 12 -30.5t31 -11.5q29 0 52 36l41 -23q-30 -58 -97 -58q-38 0 -65.5 22.5t-27.5 62.5q0 55 62 115l48 47q-20 18 -15 57l3 13q-57 -93 -152 -93q-76 0 -123.5 54.5t-47.5 144.5q0 102 59 167t145 65q55 0 97 -33t57 -89
l17 113h68l-57 -327q-5 -32 20 -32h38l-10 -55h-45q-12 0 -17 1zM233 51q64 0 107.5 47.5t43.5 121.5q0 62 -33.5 102.5t-89.5 40.5q-65 0 -105.5 -48.5t-40.5 -124.5q0 -62 32 -100.5t86 -38.5z" />
    <glyph glyph-name="Cacute" unicode="&#x106;" horiz-adv-x="712" 
d="M426 756l98 193h84l-127 -193h-55zM392 -8q-139 0 -230 93t-91 235q0 158 105.5 263t257.5 105q177 0 261 -133l-56 -37q-72 107 -207 107q-122 0 -205 -87.5t-83 -215.5q0 -116 70.5 -191.5t180.5 -75.5q131 0 218 99l52 -41q-105 -121 -273 -121z" />
    <glyph glyph-name="cacute" unicode="&#x107;" horiz-adv-x="455" 
d="M252 505l98 193h84l-127 -193h-55zM250 -8q-88 0 -146 58.5t-58 147.5q0 96 64 160.5t160 64.5q102 0 159 -74l-50 -40q-39 54 -109 54q-69 0 -111.5 -47t-42.5 -119q0 -63 37 -104.5t97 -41.5q64 0 110 41l40 -45q-59 -55 -150 -55z" />
    <glyph glyph-name="Ccircumflex" unicode="&#x108;" horiz-adv-x="712" 
d="M323 754l158 193h10l94 -193h-56l-56 108l-90 -108h-60zM392 -8q-139 0 -230 93t-91 235q0 158 105.5 263t257.5 105q177 0 261 -133l-56 -37q-72 107 -207 107q-122 0 -205 -87.5t-83 -215.5q0 -116 70.5 -191.5t180.5 -75.5q131 0 218 99l52 -41q-105 -121 -273 -121z
" />
    <glyph glyph-name="ccircumflex" unicode="&#x109;" horiz-adv-x="455" 
d="M150 503l158 193h10l94 -193h-56l-56 108l-90 -108h-60zM250 -8q-88 0 -146 58.5t-58 147.5q0 96 64 160.5t160 64.5q102 0 159 -74l-50 -40q-39 54 -109 54q-69 0 -111.5 -47t-42.5 -119q0 -63 37 -104.5t97 -41.5q64 0 110 41l40 -45q-59 -55 -150 -55z" />
    <glyph glyph-name="Cdotaccent" unicode="&#x10a;" horiz-adv-x="712" 
d="M392 -8q-139 0 -230 93t-91 235q0 158 105.5 263t257.5 105q177 0 261 -133l-56 -37q-72 107 -207 107q-122 0 -205 -87.5t-83 -215.5q0 -116 70.5 -191.5t180.5 -75.5q131 0 218 99l52 -41q-105 -121 -273 -121zM466 757q-20 0 -34.5 13.5t-14.5 34.5t14.5 35t33.5 14
q20 0 34.5 -14t14.5 -35t-14.5 -34.5t-33.5 -13.5z" />
    <glyph glyph-name="cdotaccent" unicode="&#x10b;" horiz-adv-x="455" 
d="M250 -8q-88 0 -146 58.5t-58 147.5q0 96 64 160.5t160 64.5q102 0 159 -74l-50 -40q-39 54 -109 54q-69 0 -111.5 -47t-42.5 -119q0 -63 37 -104.5t97 -41.5q64 0 110 41l40 -45q-59 -55 -150 -55zM298 535q-20 0 -34.5 13.5t-14.5 34.5t14.5 35t33.5 14q20 0 34.5 -14
t14.5 -35t-14.5 -34.5t-33.5 -13.5z" />
    <glyph glyph-name="Ccaron" unicode="&#x10c;" horiz-adv-x="712" 
d="M452 739l-95 193h56l56 -108l91 108h60l-159 -193h-9zM392 -8q-139 0 -230 93t-91 235q0 158 105.5 263t257.5 105q177 0 261 -133l-56 -37q-72 107 -207 107q-122 0 -205 -87.5t-83 -215.5q0 -116 70.5 -191.5t180.5 -75.5q131 0 218 99l52 -41q-105 -121 -273 -121z
" />
    <glyph glyph-name="ccaron" unicode="&#x10d;" horiz-adv-x="455" 
d="M279 494l-95 193h56l56 -108l91 108h60l-159 -193h-9zM250 -8q-88 0 -146 58.5t-58 147.5q0 96 64 160.5t160 64.5q102 0 159 -74l-50 -40q-39 54 -109 54q-69 0 -111.5 -47t-42.5 -119q0 -63 37 -104.5t97 -41.5q64 0 110 41l40 -45q-59 -55 -150 -55z" />
    <glyph glyph-name="Dcaron" unicode="&#x10e;" horiz-adv-x="660" 
d="M388 739l-95 193h56l56 -108l91 108h60l-159 -193h-9zM54 0l120 680h154q149 0 230.5 -82.5t81.5 -219.5q0 -171 -107 -274.5t-288 -103.5h-191zM136 62h105q159 0 242 87.5t83 230.5q0 109 -61.5 173.5t-184.5 64.5h-86z" />
    <glyph glyph-name="dcaron" unicode="&#x10f;" horiz-adv-x="639" 
d="M592 482l51 108q-29 13 -29 47q0 21 15.5 35.5t35.5 14.5q22 0 36.5 -14t14.5 -36t-18 -48l-69 -107h-37zM220 -8q-78 0 -126.5 55.5t-48.5 143.5q0 102 60.5 167t148.5 65q56 0 99 -32t58 -83l74 414h68l-112 -635q-6 -32 19 -32h38l-9 -55h-46q-43 0 -58 18.5t-11 54.5
l3 13q-25 -44 -67 -69t-90 -25zM238 51q67 0 111.5 47.5t44.5 121.5q1 62 -34.5 102.5t-93.5 40.5q-68 0 -109.5 -48.5t-41.5 -124.5q0 -62 33.5 -100.5t89.5 -38.5z" />
    <glyph glyph-name="Dcroat" unicode="&#x110;" horiz-adv-x="660" 
d="M54 0l54 311h-77l11 61h77l55 308h154q147 0 229.5 -83.5t82.5 -218.5q0 -171 -107 -274.5t-288 -103.5h-191zM136 62h105q159 0 242 87.5t83 230.5q0 109 -61.5 173.5t-184.5 64.5h-86l-44 -246h181l-11 -61h-181z" />
    <glyph glyph-name="dcroat" unicode="&#x111;" horiz-adv-x="541" 
d="M450 528h-141l10 58h141l25 136h68l-24 -136h75l-9 -58h-76l-78 -441q-6 -32 19 -32h38l-9 -55h-46q-43 0 -58 18.5t-11 54.5l3 13q-25 -44 -67 -69t-90 -25q-78 0 -126.5 55.5t-48.5 143.5q0 102 60.5 167t148.5 65q56 0 99 -32t58 -83zM238 51q67 0 111.5 47.5
t44.5 121.5q1 62 -34.5 102.5t-93.5 40.5q-68 0 -109.5 -48.5t-41.5 -124.5q0 -62 33.5 -100.5t89.5 -38.5z" />
    <glyph glyph-name="Emacron" unicode="&#x112;" horiz-adv-x="566" 
d="M54 0l120 680h405l-10 -62h-336l-43 -245h298l-10 -62h-299l-44 -249h349l-11 -62h-419zM279 768l10 54h229l-10 -54h-229z" />
    <glyph glyph-name="emacron" unicode="&#x113;" horiz-adv-x="508" 
d="M115 186q3 -60 41.5 -98.5t101.5 -38.5q80 0 130 52l42 -42q-65 -67 -173 -67q-92 0 -151 57.5t-59 147.5q0 97 65 161.5t159 64.5q98 0 149.5 -67t39.5 -170h-345zM119 237h276q0 58 -32.5 94t-93.5 36q-58 0 -98.5 -35.5t-51.5 -94.5zM178 539l10 54h229l-10 -54h-229z
" />
    <glyph glyph-name="Edotaccent" unicode="&#x116;" horiz-adv-x="566" 
d="M54 0l120 680h405l-10 -62h-336l-43 -245h298l-10 -62h-299l-44 -249h349l-11 -62h-419zM400 757q-20 0 -34.5 13.5t-14.5 34.5t14.5 35t33.5 14q20 0 34.5 -14t14.5 -35t-14.5 -34.5t-33.5 -13.5z" />
    <glyph glyph-name="edotaccent" unicode="&#x117;" horiz-adv-x="508" 
d="M115 186q3 -60 41.5 -98.5t101.5 -38.5q80 0 130 52l42 -42q-65 -67 -173 -67q-92 0 -151 57.5t-59 147.5q0 97 65 161.5t159 64.5q98 0 149.5 -67t39.5 -170h-345zM119 237h276q0 58 -32.5 94t-93.5 36q-58 0 -98.5 -35.5t-51.5 -94.5zM301 535q-20 0 -34.5 13.5
t-14.5 34.5t14.5 35t33.5 14q20 0 34.5 -14t14.5 -35t-14.5 -34.5t-33.5 -13.5z" />
    <glyph glyph-name="Eogonek" unicode="&#x118;" horiz-adv-x="566" 
d="M373 -232q-38 0 -65.5 22.5t-27.5 62.5q0 57 60 113l34 34h-320l120 680h405l-10 -62h-336l-43 -245h298l-10 -62h-299l-44 -249h349l-11 -62h-47l-45 -53q-19 -23 -26.5 -33.5t-14.5 -26t-7 -32.5q0 -19 12.5 -30.5t30.5 -11.5q30 0 53 36l41 -23q-30 -58 -97 -58z" />
    <glyph glyph-name="eogonek" unicode="&#x119;" horiz-adv-x="508" 
d="M119 237h276q0 58 -32.5 94t-93.5 36q-58 0 -98.5 -35.5t-51.5 -94.5zM257 -8q-92 0 -151 57.5t-59 147.5q0 97 65 161.5t159 64.5q98 0 149.5 -67t39.5 -170h-345q3 -60 41.5 -98.5t101.5 -38.5q80 0 130 52l42 -42q-11 -12 -42.5 -35.5t-49.5 -45.5l-26 -31
q-19 -23 -26.5 -33.5t-14.5 -26t-7 -32.5q0 -19 12.5 -30.5t30.5 -11.5q30 0 53 36l40 -23q-28 -58 -96 -58q-38 0 -65.5 22.5t-27.5 62.5q0 56 59 113l31 31q-18 -5 -44 -5z" />
    <glyph glyph-name="Ecaron" unicode="&#x11a;" horiz-adv-x="566" 
d="M383 739l-95 193h56l56 -108l91 108h60l-159 -193h-9zM54 0l120 680h405l-10 -62h-336l-43 -245h298l-10 -62h-299l-44 -249h349l-11 -62h-419z" />
    <glyph glyph-name="ecaron" unicode="&#x11b;" horiz-adv-x="508" 
d="M282 494l-95 193h56l56 -108l91 108h60l-159 -193h-9zM115 186q3 -60 41.5 -98.5t101.5 -38.5q80 0 130 52l42 -42q-65 -67 -173 -67q-92 0 -151 57.5t-59 147.5q0 97 65 161.5t159 64.5q98 0 149.5 -67t39.5 -170h-345zM119 237h276q0 58 -32.5 94t-93.5 36
q-58 0 -98.5 -35.5t-51.5 -94.5z" />
    <glyph glyph-name="Gcircumflex" unicode="&#x11c;" horiz-adv-x="735" 
d="M316 754l158 193h10l94 -193h-56l-56 108l-90 -108h-60zM409 -8q-149 0 -242 90.5t-93 236.5q0 160 106.5 264.5t256.5 104.5q160 0 244 -97l-52 -46q-67 80 -193 80q-123 0 -206 -87t-83 -217q0 -120 72 -193.5t190 -73.5q98 0 178 48l28 161h-198l11 62h264l-45 -261
q-100 -72 -238 -72z" />
    <glyph glyph-name="gcircumflex" unicode="&#x11d;" horiz-adv-x="533" 
d="M170 503l158 193h10l94 -193h-56l-56 108l-90 -108h-60zM202 -223q-68 0 -119.5 31t-76.5 78l55 34q48 -83 141 -83q124 0 152 143l20 99q-56 -87 -152 -87q-78 0 -126.5 55.5t-48.5 143.5q0 102 61 167t149 65q57 0 100 -33t59 -89l16 113h68l-78 -442
q-18 -98 -74.5 -146.5t-145.5 -48.5zM240 51q67 0 111.5 47.5t45.5 121.5q0 62 -35.5 102.5t-93.5 40.5q-68 0 -109.5 -48.5t-41.5 -124.5q0 -62 33.5 -100.5t89.5 -38.5z" />
    <glyph glyph-name="Gbreve" unicode="&#x11e;" horiz-adv-x="735" 
d="M409 -8q-149 0 -242 90.5t-93 236.5q0 160 106.5 264.5t256.5 104.5q160 0 244 -97l-52 -46q-67 80 -193 80q-123 0 -206 -87t-83 -217q0 -120 72 -193.5t190 -73.5q98 0 178 48l28 161h-198l11 62h264l-45 -261q-100 -72 -238 -72zM455 750q-54 0 -86 34t-36 83l57 9
q9 -71 65 -71q60 0 80 71l55 -9q-11 -51 -46 -84t-89 -33z" />
    <glyph glyph-name="gbreve" unicode="&#x11f;" horiz-adv-x="533" 
d="M202 -223q-68 0 -119.5 31t-76.5 78l55 34q48 -83 141 -83q124 0 152 143l20 99q-56 -87 -152 -87q-78 0 -126.5 55.5t-48.5 143.5q0 102 61 167t149 65q57 0 100 -33t59 -89l16 113h68l-78 -442q-18 -98 -74.5 -146.5t-145.5 -48.5zM240 51q67 0 111.5 47.5t45.5 121.5
q0 62 -35.5 102.5t-93.5 40.5q-68 0 -109.5 -48.5t-41.5 -124.5q0 -62 33.5 -100.5t89.5 -38.5zM308 499q-54 0 -86 34t-36 83l57 9q9 -71 65 -71q60 0 80 71l55 -9q-11 -51 -46 -84t-89 -33z" />
    <glyph glyph-name="Gdotaccent" unicode="&#x120;" horiz-adv-x="735" 
d="M409 -8q-149 0 -242 90.5t-93 236.5q0 160 106.5 264.5t256.5 104.5q160 0 244 -97l-52 -46q-67 80 -193 80q-123 0 -206 -87t-83 -217q0 -120 72 -193.5t190 -73.5q98 0 178 48l28 161h-198l11 62h264l-45 -261q-100 -72 -238 -72zM459 757q-20 0 -34.5 13.5t-14.5 34.5
t14.5 35t33.5 14q20 0 34.5 -14t14.5 -35t-14.5 -34.5t-33.5 -13.5z" />
    <glyph glyph-name="gdotaccent" unicode="&#x121;" horiz-adv-x="532" 
d="M202 -223q-68 0 -119.5 31t-76.5 78l55 34q48 -83 141 -83q124 0 152 143l20 99q-56 -87 -152 -87q-78 0 -126.5 55.5t-48.5 143.5q0 102 61 167t149 65q57 0 100 -33t59 -89l16 113h68l-78 -442q-18 -98 -74.5 -146.5t-145.5 -48.5zM240 51q67 0 111.5 47.5t45.5 121.5
q0 62 -35.5 102.5t-93.5 40.5q-68 0 -109.5 -48.5t-41.5 -124.5q0 -62 33.5 -100.5t89.5 -38.5zM318 535q-20 0 -34.5 13.5t-14.5 34.5t14.5 35t33.5 14q20 0 34.5 -14t14.5 -35t-14.5 -34.5t-33.5 -13.5z" />
    <glyph glyph-name="Gcommaaccent" unicode="&#x122;" horiz-adv-x="735" 
d="M243 -256l48 102q-28 9 -28 45q0 21 15.5 35.5t34.5 14.5q22 0 36 -13.5t14 -35.5q0 -23 -17 -48l-65 -100h-38zM409 -8q-149 0 -242 90.5t-93 236.5q0 160 106.5 264.5t256.5 104.5q160 0 244 -97l-52 -46q-67 80 -193 80q-123 0 -206 -87t-83 -217q0 -120 72 -193.5
t190 -73.5q98 0 178 48l28 161h-198l11 62h264l-45 -261q-100 -72 -238 -72z" />
    <glyph glyph-name="gcommaaccent" unicode="&#x123;" horiz-adv-x="532" 
d="M372 723l-48 -102q28 -9 28 -45q0 -21 -15.5 -35.5t-34.5 -14.5q-22 0 -36 13.5t-14 35.5q0 23 17 48l65 100h38zM202 -223q-68 0 -119.5 31t-76.5 78l55 34q48 -83 141 -83q124 0 152 143l20 99q-56 -87 -152 -87q-78 0 -126.5 55.5t-48.5 143.5q0 102 61 167t149 65
q57 0 100 -33t59 -89l16 113h68l-78 -442q-18 -98 -74.5 -146.5t-145.5 -48.5zM240 51q67 0 111.5 47.5t45.5 121.5q0 62 -35.5 102.5t-93.5 40.5q-68 0 -109.5 -48.5t-41.5 -124.5q0 -62 33.5 -100.5t89.5 -38.5z" />
    <glyph glyph-name="Hcircumflex" unicode="&#x124;" horiz-adv-x="677" 
d="M299 754l158 193h10l94 -193h-56l-56 108l-90 -108h-60zM54 0l120 680h71l-57 -318h355l57 318h71l-120 -680h-71l52 300h-355l-52 -300h-71z" />
    <glyph glyph-name="hcircumflex" unicode="&#x125;" horiz-adv-x="510" 
d="M189 770l158 193h10l94 -193h-56l-56 108l-90 -108h-60zM42 0l127 722h68l-68 -385q53 86 144 86q70 0 107.5 -50t23.5 -134l-27 -152q-6 -32 19 -32h38l-9 -55h-44q-87 0 -70 94l24 139q11 60 -11.5 94.5t-74.5 34.5q-115 0 -138 -129l-41 -233h-68z" />
    <glyph glyph-name="Hbar" unicode="&#x126;" horiz-adv-x="677" 
d="M57 467l9 52h79l29 161h71l-29 -161h355l29 161h71l-29 -161h80l-9 -52h-80l-82 -467h-71l52 300h-355l-52 -300h-71l82 467h-79zM188 362h355l19 105h-355z" />
    <glyph glyph-name="hbar" unicode="&#x127;" horiz-adv-x="510" 
d="M58 529l11 57h76l24 136h68l-24 -136h142l-11 -57h-141l-34 -192q53 86 144 86q70 0 107.5 -50t23.5 -134l-27 -152q-6 -32 19 -32h38l-9 -55h-44q-87 0 -70 94l24 139q11 60 -11.5 94.5t-74.5 34.5q-115 0 -138 -129l-41 -233h-68l93 529h-77z" />
    <glyph glyph-name="Imacron" unicode="&#x12a;" horiz-adv-x="259" 
d="M58 0l120 680h71l-120 -680h-71zM122 769l9 54h216l-10 -54h-215z" />
    <glyph glyph-name="imacron" unicode="&#x12b;" horiz-adv-x="233" 
d="M124 0q-45 0 -61 22t-8 70l57 322h68l-58 -327q-6 -32 19 -32h41l-9 -55h-49zM70 539l10 54h195l-10 -54h-195z" />
    <glyph glyph-name="Iogonek" unicode="&#x12e;" horiz-adv-x="259" 
d="M55 -16l123 696h71l-118 -670l-53 -63q-25 -30 -35 -49t-10 -42q0 -18 12 -29.5t30 -11.5q12 0 22 5.5t15.5 12t13.5 18.5l41 -25q-30 -58 -97 -58q-38 0 -65.5 22.5t-27.5 62.5q0 55 60 113z" />
    <glyph glyph-name="iogonek" unicode="&#x12f;" horiz-adv-x="233" 
d="M79 11q-32 19 -21 81l56 322h68l-57 -327q-6 -32 19 -32h41l-10 -55h-57l-44 -53q-19 -23 -26.5 -33.5t-14.5 -26t-7 -32.5q0 -19 12.5 -30.5t30.5 -11.5q30 0 53 36l41 -23q-30 -58 -97 -58q-38 0 -65.5 22.5t-27.5 62.5q0 55 60 113zM178 535q-19 0 -33.5 13.5
t-14.5 34.5t14 35t34 14q19 0 33.5 -14t14.5 -35t-14 -34.5t-34 -13.5z" />
    <glyph glyph-name="Idotaccent" unicode="&#x130;" horiz-adv-x="260" 
d="M58 0l120 680h71l-120 -680h-71zM237 757q-20 0 -34.5 13.5t-14.5 34.5t14.5 35t33.5 14q20 0 34.5 -14t14.5 -35t-14.5 -34.5t-33.5 -13.5z" />
    <glyph glyph-name="dotlessi" unicode="&#x131;" horiz-adv-x="233" 
d="M127 0q-45 0 -61 22t-8 70l56 322h68l-57 -327q-6 -32 19 -32h41l-10 -55h-48z" />
    <glyph glyph-name="Jcircumflex" unicode="&#x134;" horiz-adv-x="455" 
d="M297 754l158 193h10l94 -193h-56l-56 108l-90 -108h-60zM176 -8q-62 0 -105.5 29.5t-63.5 74.5l61 34q39 -74 110 -74q95 0 114 108l91 516h71l-92 -526q-28 -162 -186 -162z" />
    <glyph glyph-name="jcircumflex" unicode="&#x135;" horiz-adv-x="225" 
d="M-24 -222q-60 0 -92 40l40 41q18 -23 47 -23q22 0 34 13t17 44l92 521h68l-91 -521q-21 -115 -115 -115zM31 503l158 193h10l94 -193h-56l-56 108l-90 -108h-60z" />
    <glyph glyph-name="Kcommaaccent" unicode="&#x136;" horiz-adv-x="592" 
d="M188 -256l48 102q-28 9 -28 45q0 21 15.5 35.5t34.5 14.5q22 0 36 -13.5t14 -35.5q0 -23 -17 -48l-65 -100h-38zM54 0l119 680h72l-54 -305q-3 -16 -20 -81q29 42 59 73l308 313h84l-303 -310l207 -370h-80l-180 321l-103 -99l-38 -222h-71z" />
    <glyph glyph-name="kcommaaccent" unicode="&#x137;" horiz-adv-x="462" 
d="M127 -256l48 102q-28 9 -28 45q0 21 15.5 35.5t34.5 14.5q22 0 36 -13.5t14 -35.5q0 -23 -17 -48l-65 -100h-38zM132 130l-22 -130h-68l127 722h68l-82 -463q-5 -26 -15 -61l228 216h81l-185 -176l96 -162q13 -21 37 -21h26l-10 -55h-29q-30 0 -48 11t-34 39l-89 149z
" />
    <glyph glyph-name="Lacute" unicode="&#x139;" horiz-adv-x="515" 
d="M191 756l98 193h84l-127 -193h-55zM54 0l120 680h71l-109 -617h315l-11 -63h-386z" />
    <glyph glyph-name="lacute" unicode="&#x13a;" horiz-adv-x="235" 
d="M191 772l98 193h84l-127 -193h-55zM132 0q-45 0 -61 22t-8 70l112 630h68l-113 -635q-6 -32 19 -32h46l-10 -55h-53z" />
    <glyph glyph-name="Lcommaaccent" unicode="&#x13b;" horiz-adv-x="514" 
d="M157 -256l48 102q-28 9 -28 45q0 21 15.5 35.5t34.5 14.5q22 0 36 -13.5t14 -35.5q0 -23 -17 -48l-65 -100h-38zM54 0l120 680h71l-109 -617h315l-11 -63h-386z" />
    <glyph glyph-name="lcommaaccent" unicode="&#x13c;" horiz-adv-x="236" 
d="M22 -256l48 102q-28 9 -28 45q0 21 15.5 35.5t34.5 14.5q22 0 36 -13.5t14 -35.5q0 -23 -17 -48l-65 -100h-38zM132 0q-45 0 -61 22t-8 70l112 630h68l-113 -635q-6 -32 19 -32h46l-10 -55h-53z" />
    <glyph glyph-name="Lcaron" unicode="&#x13d;" horiz-adv-x="514" 
d="M362 482l51 108q-29 13 -29 47q0 21 15.5 35.5t35.5 14.5q22 0 36.5 -14t14.5 -36t-18 -48l-69 -107h-37zM54 0l120 680h71l-109 -617h315l-11 -63h-386z" />
    <glyph glyph-name="lcaron" unicode="&#x13e;" horiz-adv-x="318" 
d="M270 482l51 108q-29 13 -29 47q0 21 15.5 35.5t35.5 14.5q22 0 36.5 -14t14.5 -36t-18 -48l-69 -107h-37zM132 0q-45 0 -61 22t-8 70l112 630h68l-113 -635q-6 -32 19 -32h46l-10 -55h-53z" />
    <glyph glyph-name="Lslash" unicode="&#x141;" horiz-adv-x="519" 
d="M57 0l44 253l-79 -29l11 65l80 29l63 362h71l-58 -336l212 78l-12 -64l-212 -79l-38 -216h315l-11 -63h-386z" />
    <glyph glyph-name="lslash" unicode="&#x142;" horiz-adv-x="273" 
d="M148 0q-45 0 -61 22t-8 70l31 176l-89 -49l11 68l90 50l68 385h69l-62 -345l99 54l-12 -68l-99 -55l-39 -221q-6 -32 19 -32h46l-10 -55h-53z" />
    <glyph glyph-name="Nacute" unicode="&#x143;" horiz-adv-x="697" 
d="M558 -7l-312 481l-16 26l-15 25.5t-6 11.5q0 -42 -7 -75l-81 -462h-67l121 687h11l313 -483q19 -31 36 -64q0 28 7 76l82 464h67l-121 -687h-12zM408 756l98 193h84l-127 -193h-55z" />
    <glyph glyph-name="nacute" unicode="&#x144;" horiz-adv-x="501" 
d="M262 505l98 193h84l-127 -193h-55zM35 0l73 414h68l-17 -83q50 92 147 92q70 0 108 -50t23 -134l-27 -152q-6 -32 20 -32h38l-10 -55h-46q-45 0 -61 22t-8 70l25 141q11 60 -11.5 94.5t-74.5 34.5q-115 0 -138 -129l-41 -233h-68z" />
    <glyph glyph-name="Ncommaaccent" unicode="&#x145;" horiz-adv-x="697" 
d="M558 -7l-312 481l-16 26l-15 25.5t-6 11.5q0 -42 -7 -75l-81 -462h-67l121 687h11l313 -483q19 -31 36 -64q0 28 7 76l82 464h67l-121 -687h-12zM234 -256l48 102q-28 9 -28 45q0 21 15.5 35.5t34.5 14.5q22 0 36 -13.5t14 -35.5q0 -23 -17 -48l-65 -100h-38z" />
    <glyph glyph-name="ncommaaccent" unicode="&#x146;" horiz-adv-x="501" 
d="M139 -256l48 102q-28 9 -28 45q0 21 15.5 35.5t34.5 14.5q22 0 36 -13.5t14 -35.5q0 -23 -17 -48l-65 -100h-38zM35 0l73 414h68l-17 -83q50 92 147 92q70 0 108 -50t23 -134l-27 -152q-6 -32 20 -32h38l-10 -55h-46q-45 0 -61 22t-8 70l25 141q11 60 -11.5 94.5
t-74.5 34.5q-115 0 -138 -129l-41 -233h-68z" />
    <glyph glyph-name="Ncaron" unicode="&#x147;" horiz-adv-x="697" 
d="M558 -7l-312 481l-16 26l-15 25.5t-6 11.5q0 -42 -7 -75l-81 -462h-67l121 687h11l313 -483q19 -31 36 -64q0 28 7 76l82 464h67l-121 -687h-12zM434 739l-95 193h56l56 -108l91 108h60l-159 -193h-9z" />
    <glyph glyph-name="ncaron" unicode="&#x148;" horiz-adv-x="501" 
d="M289 494l-95 193h56l56 -108l91 108h60l-159 -193h-9zM35 0l73 414h68l-17 -83q50 92 147 92q70 0 108 -50t23 -134l-27 -152q-6 -32 20 -32h38l-10 -55h-46q-45 0 -61 22t-8 70l25 141q11 60 -11.5 94.5t-74.5 34.5q-115 0 -138 -129l-41 -233h-68z" />
    <glyph glyph-name="Omacron" unicode="&#x14c;" horiz-adv-x="784" 
d="M354 768l10 54h229l-10 -54h-229zM395 -8q-139 0 -230.5 91.5t-91.5 234.5q0 161 105 265.5t258 104.5q138 0 230.5 -91.5t92.5 -233.5q0 -161 -105.5 -266t-258.5 -105zM398 55q125 0 206.5 88t81.5 221q0 116 -69.5 188t-181.5 72q-125 0 -207 -87t-82 -219
q0 -116 69.5 -189.5t182.5 -73.5z" />
    <glyph glyph-name="omacron" unicode="&#x14d;" horiz-adv-x="521" 
d="M189 539l10 54h229l-10 -54h-229zM253 -8q-87 0 -147 59.5t-60 145.5q0 96 65 161t159 65q87 0 146.5 -60t59.5 -146q0 -96 -64.5 -160.5t-158.5 -64.5zM254 51q68 0 110 47t42 120q0 63 -38 104t-99 41q-67 0 -110 -47.5t-43 -119.5q0 -63 38.5 -104t99.5 -41z" />
    <glyph glyph-name="Ohungarumlaut" unicode="&#x150;" horiz-adv-x="784" 
d="M495 763l100 193h77l-122 -193h-55zM358 763l100 193h77l-122 -193h-55zM395 -8q-139 0 -230.5 91.5t-91.5 234.5q0 161 105 265.5t258 104.5q138 0 230.5 -91.5t92.5 -233.5q0 -161 -105.5 -266t-258.5 -105zM398 55q125 0 206.5 88t81.5 221q0 116 -69.5 188t-181.5 72
q-125 0 -207 -87t-82 -219q0 -116 69.5 -189.5t182.5 -73.5z" />
    <glyph glyph-name="ohungarumlaut" unicode="&#x151;" horiz-adv-x="521" 
d="M324 505l100 193h77l-122 -193h-55zM187 505l100 193h77l-122 -193h-55zM253 -8q-87 0 -147 59.5t-60 145.5q0 96 65 161t159 65q87 0 146.5 -60t59.5 -146q0 -96 -64.5 -160.5t-158.5 -64.5zM254 51q68 0 110 47t42 120q0 63 -38 104t-99 41q-67 0 -110 -47.5
t-43 -119.5q0 -63 38.5 -104t99.5 -41z" />
    <glyph glyph-name="OE" unicode="&#x152;" horiz-adv-x="980" 
d="M381 0q-148 0 -230.5 82.5t-82.5 219.5q0 172 107.5 275t288.5 103h529l-11 -62h-336l-43 -245h299l-11 -62h-298l-44 -249h349l-11 -62h-506zM388 62h90l98 556h-109q-159 0 -242 -87.5t-83 -230.5q0 -109 61.5 -173.5t184.5 -64.5z" />
    <glyph glyph-name="oe" unicode="&#x153;" horiz-adv-x="867" 
d="M253 -8q-87 0 -147 59.5t-60 145.5q0 96 65 161t159 65q62 0 107.5 -32.5t66.5 -86.5q25 54 74.5 86.5t111.5 32.5q97 0 149 -67.5t41 -169.5h-345q3 -61 41.5 -99t100.5 -38q79 0 131 52l41 -42q-65 -67 -172 -67q-67 0 -113.5 30.5t-65.5 85.5q-25 -54 -73.5 -85
t-111.5 -31zM254 51q68 0 110 47t42 120q0 63 -38 104t-99 41q-67 0 -110 -47.5t-43 -119.5q0 -63 38.5 -104t99.5 -41zM479 237h276q0 58 -32.5 94t-93.5 36q-58 0 -98.5 -35.5t-51.5 -94.5z" />
    <glyph glyph-name="Racute" unicode="&#x154;" horiz-adv-x="602" 
d="M455 0l-125 269h-24h-134l-47 -269h-71l119 680h174q104 0 162.5 -49.5t59.5 -140.5q0 -83 -45 -137t-125 -74l133 -279h-77zM182 328h125q92 0 140.5 41t48.5 119q0 63 -39.5 97t-115.5 34h-108zM337 756l98 193h84l-127 -193h-55z" />
    <glyph glyph-name="racute" unicode="&#x155;" horiz-adv-x="330" 
d="M196 505l98 193h84l-127 -193h-55zM35 0l73 414h68l-20 -89q48 97 129 97q28 0 54 -13l-27 -61q-17 10 -41 10q-51 0 -84.5 -37t-45.5 -105l-38 -216h-68z" />
    <glyph glyph-name="Rcommaaccent" unicode="&#x156;" horiz-adv-x="592" 
d="M455 0l-125 269h-24h-134l-47 -269h-71l119 680h174q104 0 162.5 -49.5t59.5 -140.5q0 -83 -45 -137t-125 -74l133 -279h-77zM182 328h125q92 0 140.5 41t48.5 119q0 63 -39.5 97t-115.5 34h-108zM190 -256l48 102q-28 9 -28 45q0 21 15.5 35.5t34.5 14.5q22 0 36 -13.5
t14 -35.5q0 -23 -17 -48l-65 -100h-38z" />
    <glyph glyph-name="rcommaaccent" unicode="&#x157;" horiz-adv-x="330" 
d="M-10 -256l48 102q-28 9 -28 45q0 21 15.5 35.5t34.5 14.5q22 0 36 -13.5t14 -35.5q0 -23 -17 -48l-65 -100h-38zM35 0l73 414h68l-20 -89q48 97 129 97q28 0 54 -13l-27 -61q-17 10 -41 10q-51 0 -84.5 -37t-45.5 -105l-38 -216h-68z" />
    <glyph glyph-name="Rcaron" unicode="&#x158;" horiz-adv-x="592" 
d="M455 0l-125 269h-24h-134l-47 -269h-71l119 680h174q104 0 162.5 -49.5t59.5 -140.5q0 -83 -45 -137t-125 -74l133 -279h-77zM182 328h125q92 0 140.5 41t48.5 119q0 63 -39.5 97t-115.5 34h-108zM363 739l-95 193h56l56 -108l91 108h60l-159 -193h-9z" />
    <glyph glyph-name="rcaron" unicode="&#x159;" horiz-adv-x="330" 
d="M223 494l-95 193h56l56 -108l91 108h60l-159 -193h-9zM35 0l73 414h68l-20 -89q48 97 129 97q28 0 54 -13l-27 -61q-17 10 -41 10q-51 0 -84.5 -37t-45.5 -105l-38 -216h-68z" />
    <glyph glyph-name="Sacute" unicode="&#x15a;" horiz-adv-x="525" 
d="M305 756l98 193h84l-127 -193h-55zM243 -8q-82 0 -141 39t-88 95l58 37q63 -109 171 -109q70 0 107.5 35.5t37.5 94.5q0 39 -21.5 65.5t-74.5 60.5l-47 30q-61 39 -90.5 81t-29.5 98q0 76 52.5 122.5t132.5 46.5q111 0 175 -103l-55 -40q-25 39 -52.5 60t-69.5 21
q-49 0 -81 -28t-32 -75q0 -39 19.5 -65.5t66.5 -55.5l47 -29q69 -43 100.5 -85.5t31.5 -104.5q0 -87 -59 -139t-158 -52z" />
    <glyph glyph-name="sacute" unicode="&#x15b;" horiz-adv-x="402" 
d="M204 505l98 193h84l-127 -193h-55zM186 -8q-60 0 -104 25t-66 66l51 33q42 -68 121 -68q84 0 84 62q0 24 -18 38.5t-73 42.5q-51 25 -76.5 52t-25.5 70q0 52 37.5 81t94.5 29q86 0 133 -64l-46 -37q-35 46 -88 46q-30 0 -48.5 -13t-18.5 -37q0 -23 17 -38.5t61 -36.5
q28 -13 44.5 -23t35.5 -25.5t28 -35.5t9 -44q0 -57 -39 -90t-113 -33z" />
    <glyph glyph-name="Scircumflex" unicode="&#x15c;" horiz-adv-x="525" 
d="M202 754l158 193h10l94 -193h-56l-56 108l-90 -108h-60zM243 -8q-82 0 -141 39t-88 95l58 37q63 -109 171 -109q70 0 107.5 35.5t37.5 94.5q0 39 -21.5 65.5t-74.5 60.5l-47 30q-61 39 -90.5 81t-29.5 98q0 76 52.5 122.5t132.5 46.5q111 0 175 -103l-55 -40
q-25 39 -52.5 60t-69.5 21q-49 0 -81 -28t-32 -75q0 -39 19.5 -65.5t66.5 -55.5l47 -29q69 -43 100.5 -85.5t31.5 -104.5q0 -87 -59 -139t-158 -52z" />
    <glyph glyph-name="scircumflex" unicode="&#x15d;" horiz-adv-x="402" 
d="M101 503l158 193h10l94 -193h-56l-56 108l-90 -108h-60zM186 -8q-60 0 -104 25t-66 66l51 33q42 -68 121 -68q84 0 84 62q0 24 -18 38.5t-73 42.5q-51 25 -76.5 52t-25.5 70q0 52 37.5 81t94.5 29q86 0 133 -64l-46 -37q-35 46 -88 46q-30 0 -48.5 -13t-18.5 -37
q0 -23 17 -38.5t61 -36.5q28 -13 44.5 -23t35.5 -25.5t28 -35.5t9 -44q0 -57 -39 -90t-113 -33z" />
    <glyph glyph-name="Scedilla" unicode="&#x15e;" horiz-adv-x="525" 
d="M196 -232q-38 0 -64.5 17t-37.5 43l42 23q17 -38 57 -38q22 0 35.5 13t13.5 35q0 21 -13.5 35t-39.5 14h-20l14 88q-60 13 -103 48t-66 80l58 37q63 -109 171 -109q70 0 107.5 35.5t37.5 94.5q0 39 -21.5 65.5t-74.5 60.5l-47 30q-61 39 -90.5 81t-29.5 98
q0 76 52.5 122.5t132.5 46.5q111 0 175 -103l-55 -40q-25 39 -52.5 60t-69.5 21q-49 0 -81 -28t-32 -75q0 -39 19.5 -65.5t66.5 -55.5l47 -29q69 -43 100.5 -85.5t31.5 -104.5q0 -87 -59 -139t-158 -52q-2 0 -7 0.5t-8 0.5l-7 -46q30 -5 51 -28.5t21 -58.5q0 -42 -28.5 -67
t-68.5 -25z" />
    <glyph glyph-name="scedilla" unicode="&#x15f;" horiz-adv-x="402" 
d="M147 -232q-38 0 -64.5 17t-37.5 43l42 23q17 -38 57 -38q22 0 35.5 13t13.5 35q0 21 -13.5 35t-39.5 14h-20l14 88q-81 17 -118 85l51 33q42 -68 121 -68q84 0 84 62q0 24 -18 38.5t-73 42.5q-51 25 -76.5 52t-25.5 70q0 52 37.5 81t94.5 29q86 0 133 -64l-46 -37
q-35 46 -88 46q-30 0 -48.5 -13t-18.5 -37q0 -23 17 -38.5t61 -36.5q28 -13 44.5 -23t35.5 -25.5t28 -35.5t9 -44q0 -57 -39 -90t-113 -33h-7l-7 -45q30 -5 51 -28.5t21 -58.5q0 -42 -28.5 -67t-68.5 -25z" />
    <glyph glyph-name="Scaron" unicode="&#x160;" horiz-adv-x="525" 
d="M331 739l-95 193h56l56 -108l91 108h60l-159 -193h-9zM243 -8q-82 0 -141 39t-88 95l58 37q63 -109 171 -109q70 0 107.5 35.5t37.5 94.5q0 39 -21.5 65.5t-74.5 60.5l-47 30q-61 39 -90.5 81t-29.5 98q0 76 52.5 122.5t132.5 46.5q111 0 175 -103l-55 -40
q-25 39 -52.5 60t-69.5 21q-49 0 -81 -28t-32 -75q0 -39 19.5 -65.5t66.5 -55.5l47 -29q69 -43 100.5 -85.5t31.5 -104.5q0 -87 -59 -139t-158 -52z" />
    <glyph glyph-name="scaron" unicode="&#x161;" horiz-adv-x="402" 
d="M230 494l-95 193h56l56 -108l91 108h60l-159 -193h-9zM186 -8q-60 0 -104 25t-66 66l51 33q42 -68 121 -68q84 0 84 62q0 24 -18 38.5t-73 42.5q-51 25 -76.5 52t-25.5 70q0 52 37.5 81t94.5 29q86 0 133 -64l-46 -37q-35 46 -88 46q-30 0 -48.5 -13t-18.5 -37
q0 -23 17 -38.5t61 -36.5q28 -13 44.5 -23t35.5 -25.5t28 -35.5t9 -44q0 -57 -39 -90t-113 -33z" />
    <glyph glyph-name="Tcommaaccent" unicode="&#x162;" horiz-adv-x="542" 
d="M150 -256l48 102q-28 9 -28 45q0 21 15.5 35.5t34.5 14.5q22 0 36 -13.5t14 -35.5q0 -23 -17 -48l-65 -100h-38zM200 0l110 618h-206l11 62h481l-11 -62h-204l-109 -618h-72z" />
    <glyph glyph-name="tcommaaccent" unicode="&#x163;" horiz-adv-x="328" 
d="M67 -256l48 102q-28 9 -28 45q0 21 15.5 35.5t34.5 14.5q22 0 36 -13.5t14 -35.5q0 -23 -17 -48l-65 -100h-38zM179 -8q-53 0 -81.5 33.5t-15.5 102.5l40 228h-62l10 58h62l26 146h68l-26 -146h112l-10 -58h-112l-41 -231q-13 -74 39 -74q30 0 57 23l29 -47
q-38 -35 -95 -35z" />
    <glyph glyph-name="Tcaron" unicode="&#x164;" horiz-adv-x="542" 
d="M366 739l-95 193h56l56 -108l91 108h60l-159 -193h-9zM200 0l110 618h-206l11 62h481l-11 -62h-204l-109 -618h-72z" />
    <glyph glyph-name="tcaron" unicode="&#x165;" horiz-adv-x="382" 
d="M179 -8q-53 0 -81.5 33.5t-15.5 102.5l40 228h-62l10 58h62l26 146h68l-26 -146h112l-10 -58h-112l-41 -231q-13 -74 39 -74q30 0 57 23l29 -47q-38 -35 -95 -35zM334 482l52 108q-29 12 -29 47q0 21 15 35.5t36 14.5q22 0 36 -14t14 -36q0 -21 -17 -48l-69 -107h-38z
" />
    <glyph glyph-name="Umacron" unicode="&#x16a;" horiz-adv-x="648" 
d="M313 -8q-111 0 -176 69.5t-44 190.5l75 428h72l-75 -429q-17 -96 25 -146t126 -50q74 0 118.5 38t59.5 123l81 464h72l-84 -473q-37 -215 -250 -215zM305 768l10 54h229l-10 -54h-229z" />
    <glyph glyph-name="umacron" unicode="&#x16b;" horiz-adv-x="503" 
d="M193 -9q-70 0 -107.5 50t-23.5 134l42 239h68l-41 -233q-11 -60 11.5 -94.5t74.5 -34.5q114 0 137 129l42 233h68l-58 -327q-5 -32 20 -32h38l-10 -55h-45q-42 0 -58 21t-11 52l1 7q-54 -89 -148 -89zM195 539l10 54h229l-10 -54h-229z" />
    <glyph glyph-name="Ubreve" unicode="&#x16c;" horiz-adv-x="648" 
d="M313 -8q-111 0 -176 69.5t-44 190.5l75 428h72l-75 -429q-17 -96 25 -146t126 -50q74 0 118.5 38t59.5 123l81 464h72l-84 -473q-37 -215 -250 -215zM423 750q-54 0 -86 34t-36 83l57 9q9 -71 65 -71q60 0 80 71l55 -9q-11 -51 -46 -84t-89 -33z" />
    <glyph glyph-name="ubreve" unicode="&#x16d;" horiz-adv-x="503" 
d="M193 -9q-70 0 -107.5 50t-23.5 134l42 239h68l-41 -233q-11 -60 11.5 -94.5t74.5 -34.5q114 0 137 129l42 233h68l-58 -327q-5 -32 20 -32h38l-10 -55h-45q-42 0 -58 21t-11 52l1 7q-54 -89 -148 -89zM308 499q-54 0 -86 34t-36 83l57 9q9 -71 65 -71q60 0 80 71l55 -9
q-11 -51 -46 -84t-89 -33z" />
    <glyph glyph-name="Uring" unicode="&#x16e;" horiz-adv-x="647" 
d="M427 732q-43 0 -73.5 29.5t-30.5 70.5q0 42 30.5 71.5t73.5 29.5t73.5 -29.5t30.5 -71.5q0 -41 -30.5 -70.5t-73.5 -29.5zM427 775q23 0 38 16t15 41q0 26 -14.5 41.5t-38.5 15.5t-39 -15.5t-15 -41.5q0 -25 15.5 -41t38.5 -16zM313 -8q-111 0 -176 69.5t-44 190.5
l75 428h72l-75 -429q-17 -96 25 -146t126 -50q74 0 118.5 38t59.5 123l81 464h72l-84 -473q-37 -215 -250 -215z" />
    <glyph glyph-name="uring" unicode="&#x16f;" horiz-adv-x="504" 
d="M308 484q-43 0 -73.5 29.5t-30.5 70.5q0 42 30.5 71.5t73.5 29.5t73.5 -29.5t30.5 -71.5q0 -41 -30.5 -70.5t-73.5 -29.5zM308 527q23 0 38 16t15 41q0 26 -14.5 41.5t-38.5 15.5t-39 -15.5t-15 -41.5q0 -25 15.5 -41t38.5 -16zM193 -9q-70 0 -107.5 50t-23.5 134l42 239
h68l-41 -233q-11 -60 11.5 -94.5t74.5 -34.5q114 0 137 129l42 233h68l-58 -327q-5 -32 20 -32h38l-10 -55h-45q-42 0 -58 21t-11 52l1 7q-54 -89 -148 -89z" />
    <glyph glyph-name="Uhungarumlaut" unicode="&#x170;" horiz-adv-x="647" 
d="M313 -8q-111 0 -176 69.5t-44 190.5l75 428h72l-75 -429q-17 -96 25 -146t126 -50q74 0 118.5 38t59.5 123l81 464h72l-84 -473q-37 -215 -250 -215zM446 763l100 193h77l-122 -193h-55zM309 763l100 193h77l-122 -193h-55z" />
    <glyph glyph-name="uhungarumlaut" unicode="&#x171;" horiz-adv-x="504" 
d="M193 -9q-70 0 -107.5 50t-23.5 134l42 239h68l-41 -233q-11 -60 11.5 -94.5t74.5 -34.5q114 0 137 129l42 233h68l-58 -327q-5 -32 20 -32h38l-10 -55h-45q-42 0 -58 21t-11 52l1 7q-54 -89 -148 -89zM330 505l100 193h77l-122 -193h-55zM193 505l100 193h77l-122 -193
h-55z" />
    <glyph glyph-name="Uogonek" unicode="&#x172;" horiz-adv-x="648" 
d="M268 -5q-93 14 -143.5 81.5t-31.5 175.5l75 428h72l-75 -429q-17 -96 25 -146t126 -50q74 0 118.5 38t59.5 123l81 464h72l-84 -473q-38 -213 -246 -215l-38 -45q-25 -30 -35 -49t-10 -42q0 -18 12 -29.5t30 -11.5q12 0 22 5.5t15.5 12t13.5 18.5l41 -25q-30 -58 -97 -58
q-38 0 -65.5 22.5t-27.5 62.5q0 55 60 113z" />
    <glyph glyph-name="uogonek" unicode="&#x173;" horiz-adv-x="503" 
d="M356 15q-21 19 -16 58l1 7q-54 -89 -148 -89q-70 0 -107.5 50t-23.5 134l42 239h68l-41 -233q-11 -60 11.5 -94.5t74.5 -34.5q114 0 137 129l42 233h68l-58 -327q-5 -32 20 -32h38l-10 -55h-45q-12 0 -17 1l-46 -54q-26 -30 -36.5 -49t-10.5 -43q0 -19 12 -30.5t31 -11.5
q29 0 52 36l41 -23q-30 -58 -97 -58q-38 0 -65.5 22.5t-27.5 62.5q0 55 62 115z" />
    <glyph glyph-name="Ydieresis" unicode="&#x178;" horiz-adv-x="606" 
d="M227 0l44 251l-160 429h76l111 -301q4 -12 8 -29.5l7 -30t3 -13.5q20 40 41 71l216 303h77l-307 -430l-44 -250h-72zM321 759q-18 0 -31.5 13.5t-13.5 32.5q0 18 13.5 31.5t31.5 13.5t31.5 -13t13.5 -32t-13.5 -32.5t-31.5 -13.5zM488 759q-18 0 -31.5 13.5t-13.5 32.5
q0 18 13.5 31.5t31.5 13.5t31.5 -13t13.5 -32t-13.5 -32.5t-31.5 -13.5z" />
    <glyph glyph-name="Zacute" unicode="&#x179;" horiz-adv-x="577" 
d="M359 756l98 193h84l-127 -193h-55zM9 0v11l469 608h-318l11 61h428v-11l-470 -608h372l-11 -61h-481z" />
    <glyph glyph-name="zacute" unicode="&#x17a;" horiz-adv-x="421" 
d="M235 505l98 193h84l-127 -193h-55zM10 0v10l294 347h-211l10 57h318v-11l-293 -347h230l-10 -56h-338z" />
    <glyph glyph-name="Zdotaccent" unicode="&#x17b;" horiz-adv-x="577" 
d="M9 0v11l469 608h-318l11 61h428v-11l-470 -608h372l-11 -61h-481zM399 757q-20 0 -34.5 13.5t-14.5 34.5t14.5 35t33.5 14q20 0 34.5 -14t14.5 -35t-14.5 -34.5t-33.5 -13.5z" />
    <glyph glyph-name="zdotaccent" unicode="&#x17c;" horiz-adv-x="421" 
d="M10 0v10l294 347h-211l10 57h318v-11l-293 -347h230l-10 -56h-338zM281 535q-20 0 -34.5 13.5t-14.5 34.5t14.5 35t33.5 14q20 0 34.5 -14t14.5 -35t-14.5 -34.5t-33.5 -13.5z" />
    <glyph glyph-name="Zcaron" unicode="&#x17d;" horiz-adv-x="577" 
d="M385 739l-95 193h56l56 -108l91 108h60l-159 -193h-9zM9 0v11l469 608h-318l11 61h428v-11l-470 -608h372l-11 -61h-481z" />
    <glyph glyph-name="zcaron" unicode="&#x17e;" horiz-adv-x="421" 
d="M262 494l-95 193h56l56 -108l91 108h60l-159 -193h-9zM10 0v10l294 347h-211l10 57h318v-11l-293 -347h230l-10 -56h-338z" />
    <glyph glyph-name="florin" unicode="&#x192;" horiz-adv-x="348" 
d="M115 207h-70l9 53h70l40 229q12 68 42 98.5t79 30.5q67 0 101 -55l-49 -37q-20 32 -51 32q-23 0 -35.5 -15t-19.5 -56l-40 -227h93l-9 -53h-93l-74 -419h-67z" />
    <glyph glyph-name="Scommaaccent" unicode="&#x218;" horiz-adv-x="525" 
d="M115 -256l48 102q-28 9 -28 45q0 21 15.5 35.5t34.5 14.5q22 0 36 -13.5t14 -35.5q0 -23 -17 -48l-65 -100h-38zM243 -8q-82 0 -141 39t-88 95l58 37q63 -109 171 -109q70 0 107.5 35.5t37.5 94.5q0 39 -21.5 65.5t-74.5 60.5l-47 30q-61 39 -90.5 81t-29.5 98
q0 76 52.5 122.5t132.5 46.5q111 0 175 -103l-55 -40q-25 39 -52.5 60t-69.5 21q-49 0 -81 -28t-32 -75q0 -39 19.5 -65.5t66.5 -55.5l47 -29q69 -43 100.5 -85.5t31.5 -104.5q0 -87 -59 -139t-158 -52z" />
    <glyph glyph-name="scommaaccent" unicode="&#x219;" horiz-adv-x="402" 
d="M74 -256l48 102q-28 9 -28 45q0 21 15.5 35.5t34.5 14.5q22 0 36 -13.5t14 -35.5q0 -23 -17 -48l-65 -100h-38zM186 -8q-60 0 -104 25t-66 66l51 33q42 -68 121 -68q84 0 84 62q0 24 -18 38.5t-73 42.5q-51 25 -76.5 52t-25.5 70q0 52 37.5 81t94.5 29q86 0 133 -64
l-46 -37q-35 46 -88 46q-30 0 -48.5 -13t-18.5 -37q0 -23 17 -38.5t61 -36.5q28 -13 44.5 -23t35.5 -25.5t28 -35.5t9 -44q0 -57 -39 -90t-113 -33z" />
    <glyph glyph-name="uni021A" unicode="&#x21a;" horiz-adv-x="542" 
d="M200 0l110 618h-206l11 62h481l-11 -62h-204l-109 -618h-13l-9 -53q30 -5 51 -28.5t21 -58.5q0 -42 -28.5 -67t-68.5 -25q-38 0 -64.5 17t-37.5 43l42 23q17 -38 57 -38q22 0 35.5 13t13.5 35q0 21 -13.5 35t-39.5 14h-20l15 90h-13z" />
    <glyph glyph-name="uni021B" unicode="&#x21b;" horiz-adv-x="328" 
d="M179 -8h-9l-7 -45q30 -5 51 -28.5t21 -58.5q0 -42 -28.5 -67t-68.5 -25q-38 0 -64.5 17t-37.5 43l42 23q17 -38 57 -38q22 0 35.5 13t13.5 35q0 21 -13.5 35t-39.5 14h-21l16 93q-62 29 -44 125l40 228h-62l10 58h62l26 146h68l-26 -146h112l-10 -58h-112l-41 -231
q-13 -74 39 -74q30 0 57 23l29 -47q-38 -35 -95 -35z" />
    <glyph glyph-name="uni0237" unicode="&#x237;" horiz-adv-x="224" 
d="M-24 -222q-60 0 -92 40l40 41q18 -23 47 -23q22 0 34 13t17 44l92 521h68l-91 -521q-21 -115 -115 -115z" />
    <glyph glyph-name="circumflex" unicode="&#x2c6;" horiz-adv-x="497" 
d="M169 503l158 193h10l94 -193h-56l-56 108l-90 -108h-60z" />
    <glyph glyph-name="caron" unicode="&#x2c7;" horiz-adv-x="497" 
d="M297 494l-95 193h56l56 -108l91 108h60l-159 -193h-9z" />
    <glyph glyph-name="breve" unicode="&#x2d8;" horiz-adv-x="497" 
d="M304 499q-54 0 -86 34t-36 83l57 9q9 -71 65 -71q60 0 80 71l55 -9q-11 -51 -46 -84t-89 -33z" />
    <glyph glyph-name="dotaccent" unicode="&#x2d9;" horiz-adv-x="497" 
d="M315 535q-20 0 -34.5 13.5t-14.5 34.5t14.5 35t33.5 14q20 0 34.5 -14t14.5 -35t-14.5 -34.5t-33.5 -13.5z" />
    <glyph glyph-name="ring" unicode="&#x2da;" horiz-adv-x="497" 
d="M315 484q-43 0 -73.5 29.5t-30.5 70.5q0 42 30.5 71.5t73.5 29.5t73.5 -29.5t30.5 -71.5q0 -41 -30.5 -70.5t-73.5 -29.5zM315 527q23 0 38 16t15 41q0 26 -14.5 41.5t-38.5 15.5t-39 -15.5t-15 -41.5q0 -25 15.5 -41t38.5 -16z" />
    <glyph glyph-name="ogonek" unicode="&#x2db;" horiz-adv-x="497" 
d="M222 -232q-38 0 -65.5 22.5t-27.5 62.5q0 55 60 113l35 34h51l-45 -53q-18 -22 -26 -33t-14.5 -26.5t-6.5 -32.5q0 -19 12 -30.5t31 -11.5q28 0 53 36l40 -23q-30 -58 -97 -58z" />
    <glyph glyph-name="tilde" unicode="&#x2dc;" horiz-adv-x="490" 
d="M211 508l-51 6q19 110 92 110q30 0 63 -31q35 -30 47 -30q15 0 24 13t18 47l51 -6q-18 -110 -93 -110q-30 0 -63 31q-2 2 -7 6.5t-7 6t-6 5t-5.5 4.5t-5 3t-5.5 3t-5 1.5t-6 0.5q-15 0 -24 -13t-17 -47z" />
    <glyph glyph-name="hungarumlaut" unicode="&#x2dd;" horiz-adv-x="497" 
d="M320 505l100 193h77l-122 -193h-55zM183 505l100 193h77l-122 -193h-55z" />
    <glyph glyph-name="endash" unicode="&#x2013;" horiz-adv-x="383" 
d="M27 164l11 60h314l-10 -60h-315z" />
    <glyph glyph-name="emdash" unicode="&#x2014;" horiz-adv-x="606" 
d="M27 164l11 60h537l-11 -60h-537z" />
    <glyph glyph-name="quoteleft" unicode="&#x2018;" horiz-adv-x="194" 
d="M153 475q-22 0 -36 14t-14 36q0 21 17 48l69 107h38l-52 -108q29 -12 29 -47q0 -21 -15.5 -35.5t-35.5 -14.5z" />
    <glyph glyph-name="quoteright" unicode="&#x2019;" horiz-adv-x="194" 
d="M100 482l51 108q-29 13 -29 47q0 21 15.5 35.5t35.5 14.5q22 0 36.5 -14t14.5 -36t-18 -48l-69 -107h-37z" />
    <glyph glyph-name="quotesinglbase" unicode="&#x201a;" horiz-adv-x="194" 
d="M2 -93l46 98q-29 13 -29 47q0 21 15.5 35.5t35.5 14.5q23 0 37 -14t14 -36q0 -21 -17 -48l-64 -97h-38z" />
    <glyph glyph-name="quotedblleft" unicode="&#x201c;" horiz-adv-x="351" 
d="M311 475q-22 0 -36.5 14t-14.5 36q0 21 17 48l70 107h37l-51 -108q29 -13 29 -47q0 -21 -15.5 -35.5t-35.5 -14.5zM153 475q-22 0 -36 14t-14 36q0 21 17 48l69 107h38l-52 -108q29 -12 29 -47q0 -21 -15.5 -35.5t-35.5 -14.5z" />
    <glyph glyph-name="quotedblright" unicode="&#x201d;" horiz-adv-x="351" 
d="M257 482l52 108q-29 12 -29 47q0 21 15.5 35.5t35.5 14.5q22 0 36 -14t14 -36q0 -21 -17 -48l-69 -107h-38zM100 482l51 108q-29 13 -29 47q0 21 15.5 35.5t35.5 14.5q22 0 36.5 -14t14.5 -36t-18 -48l-69 -107h-37z" />
    <glyph glyph-name="quotedblbase" unicode="&#x201e;" horiz-adv-x="352" 
d="M160 -93l46 98q-29 12 -29 47q0 21 15.5 35.5t35.5 14.5q22 0 36.5 -14t14.5 -36q0 -19 -18 -48l-64 -97h-37zM2 -93l46 98q-29 13 -29 47q0 21 15.5 35.5t35.5 14.5q23 0 37 -14t14 -36q0 -21 -17 -48l-64 -97h-38z" />
    <glyph glyph-name="dagger" unicode="&#x2020;" horiz-adv-x="335" 
d="M191 519h-93l10 57h93l19 104h63l-18 -104h93l-10 -57h-93l-42 -238h-64z" />
    <glyph glyph-name="daggerdbl" unicode="&#x2021;" horiz-adv-x="335" 
d="M192 523h-94l10 53h93l19 104h63l-19 -104h94l-10 -53h-93l-15 -85h93l-8 -53h-94l-19 -105h-63l19 105h-94l9 53h94z" />
    <glyph glyph-name="bullet" unicode="&#x2022;" horiz-adv-x="276" 
d="M147 160q-38 0 -66 27.5t-28 66.5q0 40 28 67.5t66 27.5t66 -27.5t28 -67.5q0 -39 -28 -66.5t-66 -27.5z" />
    <glyph glyph-name="ellipsis" unicode="&#x2026;" horiz-adv-x="594" 
d="M469 -7q-21 0 -37 15.5t-16 37.5q0 23 16 38.5t37 15.5t36.5 -15.5t15.5 -38.5q0 -22 -15.5 -37.5t-36.5 -15.5zM270 -7q-21 0 -37 15.5t-16 37.5q0 23 16 38.5t37 15.5t36.5 -15.5t15.5 -38.5q0 -22 -15.5 -37.5t-36.5 -15.5zM71 -7q-21 0 -37 15.5t-16 37.5
q0 23 16 38.5t37 15.5t36.5 -15.5t15.5 -38.5q0 -22 -15.5 -37.5t-36.5 -15.5z" />
    <glyph glyph-name="perthousand" unicode="&#x2030;" horiz-adv-x="1120" 
d="M194 218q-60 0 -101 39.5t-41 100.5q0 66 46 110t108 44q60 0 101 -39t41 -99q0 -68 -45.5 -112t-108.5 -44zM163 0l401 504h70l-401 -504h-70zM931 -8q-60 0 -101 39.5t-41 100.5q0 66 46 109.5t109 43.5q59 0 100 -39t41 -99q0 -68 -45.5 -111.5t-108.5 -43.5zM589 -8
q-60 0 -101 39.5t-41 100.5q0 66 46 109.5t108 43.5q60 0 101 -39t41 -99q0 -68 -45.5 -111.5t-108.5 -43.5zM194 271q40 0 66.5 28t26.5 74q0 40 -22 62.5t-59 22.5q-40 0 -66.5 -27.5t-26.5 -71.5q0 -41 22.5 -64.5t58.5 -23.5zM932 44q40 0 66.5 28.5t26.5 73.5
q0 40 -22.5 63t-58.5 23q-40 0 -67 -28t-27 -72q0 -41 22.5 -64.5t59.5 -23.5zM589 44q40 0 66.5 28.5t26.5 73.5q0 40 -22.5 63t-58.5 23q-40 0 -66.5 -28t-26.5 -72q0 -41 22.5 -64.5t58.5 -23.5z" />
    <glyph glyph-name="guilsinglleft" unicode="&#x2039;" horiz-adv-x="239" 
d="M100 37l-65 150v8l119 166h75l-126 -172l68 -152h-71z" />
    <glyph glyph-name="guilsinglright" unicode="&#x203a;" horiz-adv-x="238" 
d="M8 37l126 173l-68 151h71l65 -149v-8l-119 -167h-75z" />
    <glyph glyph-name="fraction" unicode="&#x2044;" horiz-adv-x="467" 
d="M-43 0l529 680h72l-529 -680h-72z" />
    <glyph glyph-name="Euro" unicode="&#x20ac;" horiz-adv-x="602" 
d="M109 283h-62l9 53h65q28 80 97 128t151 48q131 0 196 -99l-53 -36q-47 74 -143 74q-58 0 -105 -30.5t-69 -84.5h226l-9 -53h-232q-3 -18 -3 -40q0 -18 1 -26h222l-9 -53h-202q17 -53 59 -82.5t102 -29.5q85 0 146 66l47 -38q-72 -88 -194 -88q-86 0 -148.5 46.5
t-84.5 125.5h-90l9 53h72q-1 8 -1 25q0 22 3 41z" />
    <glyph glyph-name="trademark" unicode="&#x2122;" horiz-adv-x="710" 
d="M370 383l54 302h8l112 -162l170 162h8l-53 -302h-53l33 187l-110 -111h-10l-72 112l-33 -188h-54zM210 635h-88l8 45h230l-9 -45h-87l-44 -252h-54z" />
    <glyph glyph-name="summation" unicode="&#x2211;" horiz-adv-x="573" 
d="M16 0v11l320 337l-208 321v11h465l-11 -64h-287l-57 2q18 -21 33 -44l144 -225v-9l-221 -233l-50 -46q32 3 63 3h291l-11 -64h-471z" />
    <glyph glyph-name="minus" unicode="&#x2212;" horiz-adv-x="370" 
d="M334 223h-292l11 59h292z" />
    <glyph glyph-name="space_uni0326" horiz-adv-x="500" 
d="M118 -256l48 102q-28 9 -28 45q0 21 15.5 35.5t34.5 14.5q22 0 36 -13.5t14 -35.5q0 -23 -17 -48l-65 -100h-38z" />
    <glyph glyph-name="idotaccent" horiz-adv-x="233" 
d="M178 535q-19 0 -33.5 13.5t-14.5 34.5t14 35t34 14q19 0 33.5 -14t14.5 -35t-14 -34.5t-34 -13.5zM127 0q-45 0 -61 22t-8 70l56 322h68l-57 -327q-6 -32 19 -32h41l-10 -55h-48z" />
    <glyph glyph-name="space.lining" horiz-adv-x="232" 
 />
    <glyph glyph-name="dollar.lining" horiz-adv-x="525" 
d="M173 -116l19 111q-118 15 -185 130l58 38q55 -94 138 -107l49 279l-5 3q-126 73 -125 181q0 76 53 122.5t131 46.5h8l15 85h50l-16 -92q77 -17 126 -94l-54 -39q-37 57 -83 71l-41 -235l15 -10q70 -41 103 -84.5t33 -105.5q0 -87 -59.5 -138.5t-160.5 -53.5l-19 -108h-50
zM391 184q0 38 -20.5 65t-72.5 60l-45 -255q65 4 101.5 38.5t36.5 91.5zM191 523q0 -37 17 -62t57 -51l38 216q-48 0 -80 -27.5t-32 -75.5z" />
    <glyph glyph-name="cent.lining" horiz-adv-x="455" 
d="M188 1q-64 19 -103 72.5t-39 124.5q0 93 61.5 157.5t154.5 67.5l19 106h50l-19 -109q72 -12 117 -71l-50 -40q-31 41 -77 52l-55 -311h3q61 0 110 41l40 -44q-59 -55 -150 -55h-13l-19 -108h-50zM252 363q-62 -6 -99.5 -51.5t-37.5 -114.5q0 -47 22.5 -84.5t60.5 -52.5z
" />
    <glyph glyph-name="Euro.lining" horiz-adv-x="639" 
d="M357 -8q-102 0 -168 65.5t-76 181.5h-85l9 55h74q1 44 9 86h-67l9 55h70q34 114 111 183.5t178 69.5q149 0 206 -138l-62 -30q-25 53 -58 79.5t-89 26.5q-74 0 -129 -52.5t-82 -138.5h255l-10 -55h-258q-9 -39 -10 -86h252l-9 -55h-240q8 -87 53 -136t118 -49
q61 0 102.5 27.5t75.5 82.5l55 -35q-86 -137 -234 -137z" />
    <glyph glyph-name="sterling.lining" horiz-adv-x="585" 
d="M196 277h-99l10 55h79q-15 83 -15 139q0 97 57.5 157t156.5 60q142 0 193 -122l-58 -31q-21 47 -52.5 69.5t-83.5 22.5q-67 0 -104 -40.5t-37 -116.5q0 -53 13 -138h187l-10 -55h-169q8 -56 8 -107q0 -28 -7 -60q24 -19 38.5 -28.5t39.5 -19t50 -9.5q35 0 57.5 13
t44.5 41l46 -40q-31 -40 -64.5 -57.5t-83.5 -17.5q-72 0 -151 65q-43 -65 -124 -65q-43 0 -74 26t-31 66q0 45 30.5 70.5t75.5 25.5q44 0 88 -27v14q0 42 -11 110zM196 97q-45 34 -76 34q-23 0 -37 -12.5t-14 -33.5q0 -19 13 -31t36 -12q55 0 78 55z" />
    <glyph glyph-name="yen.lining" horiz-adv-x="597" 
d="M229 0l26 153h-207l10 56h207l7 35l-18 54h-181l11 55h150l-114 327h75l105 -314q3 -11 6.5 -29l6 -31t2.5 -14q1 2 6.5 14t15.5 30t18 30l216 314h76l-227 -327h148l-10 -55h-178l-39 -58l-6 -31h208l-10 -56h-208l-26 -153h-70z" />
    <glyph glyph-name="florin.lining" horiz-adv-x="348" 
d="M124 258h-77l10 55h77l43 246q24 129 121 129q66 0 101 -55l-46 -38q-22 33 -52 33q-23 0 -37 -16t-20 -55l-43 -244h98l-10 -55h-98l-82 -470h-67z" />
    <glyph glyph-name="zero.lining" horiz-adv-x="638" 
d="M303 -7q-109 0 -175 72t-66 202q0 185 95 303t226 118q107 0 172 -72.5t65 -201.5q0 -186 -93 -303.5t-224 -117.5zM305 56q103 0 172 102t69 260q0 101 -45.5 153.5t-120.5 52.5q-102 0 -173 -101.5t-71 -259.5q0 -102 46 -154.5t123 -52.5z" />
    <glyph glyph-name="one.lining" horiz-adv-x="299" 
d="M96 0l108 617h-105l11 63h176l-120 -680h-70z" />
    <glyph glyph-name="two.lining" horiz-adv-x="519" 
d="M-14 0v7l319 292q67 62 100.5 110.5t33.5 100.5t-31.5 83t-88.5 31q-55 0 -96 -33.5t-61 -96.5l-67 15q22 84 83 131.5t143 47.5q87 0 138 -50t51 -130q0 -65 -40 -122.5t-114 -125.5l-172 -156q-38 -34 -63 -47l11 1q12 2 29 3t29 1h246l-12 -62h-438z" />
    <glyph glyph-name="three.lining" horiz-adv-x="530" 
d="M244 -8q-84 0 -145 39.5t-86 97.5l62 30q52 -103 167 -103q82 0 131 46.5t49 124.5q0 68 -48 107.5t-129 39.5q-35 0 -67 -10l-5 7l197 211l47 41q-34 -5 -58 -5h-229l10 62h390v-7l-197 -214l-45 -36q90 -5 148 -56.5t58 -140.5q0 -105 -71 -169.5t-179 -64.5z" />
    <glyph glyph-name="four.lining" horiz-adv-x="574" 
d="M461 185h74l-10 -59h-74l-22 -126h-71l22 126h-363l7 37l521 533h6zM390 185l49 278q2 13 6 30.5t7.5 30t3.5 14.5q-14 -28 -50 -64l-225 -240q-10 -11 -25.5 -24t-26 -21t-13.5 -9l12 1l29.5 2.5t30.5 1.5h202z" />
    <glyph glyph-name="five.lining" horiz-adv-x="531" 
d="M251 -8q-77 0 -138 37.5t-90 96.5l62 32q23 -46 65.5 -74t100.5 -28q81 0 127 45.5t46 120.5q0 68 -42.5 111t-117.5 43q-84 0 -159 -52l-6 3l62 353h346l-10 -62h-285l-37 -204q42 22 104 22q97 0 157 -60t60 -154q0 -104 -67.5 -167t-177.5 -63z" />
    <glyph glyph-name="six.lining" horiz-adv-x="547" 
d="M270 -8q-98 0 -161.5 63t-63.5 158q0 91 72 177l248 290h82l-175 -206q-20 -25 -59 -53q44 27 93 27q87 0 145.5 -60.5t58.5 -151.5q0 -105 -67.5 -174.5t-172.5 -69.5zM272 54q73 0 119.5 52t46.5 130q0 69 -41 112t-110 43q-76 0 -123.5 -52t-47.5 -126
q0 -69 42.5 -114t113.5 -45z" />
    <glyph glyph-name="seven.lining" horiz-adv-x="533" 
d="M69 0l400 617h-366l11 63h472v-7l-436 -673h-81z" />
    <glyph glyph-name="eight.lining" horiz-adv-x="554" 
d="M267 -8q-105 0 -167 52.5t-62 135.5q0 75 48.5 124.5t126.5 66.5q-84 35 -84 135q0 78 58.5 130t145.5 52q86 0 136.5 -48.5t50.5 -118.5q0 -54 -33.5 -97.5t-91.5 -60.5q115 -40 115 -162q0 -95 -70 -152t-173 -57zM269 55q75 0 121.5 39.5t46.5 108.5q0 61 -39 97.5
t-113 36.5q-72 0 -122.5 -40t-50.5 -111q0 -58 41.5 -94.5t115.5 -36.5zM317 392q58 0 95.5 35t37.5 88q0 46 -31 79t-89 33t-94.5 -35t-36.5 -86q0 -49 29.5 -81.5t88.5 -32.5z" />
    <glyph glyph-name="nine.lining" horiz-adv-x="554" 
d="M163 0l164 197q15 18 61 59q-46 -30 -95 -30q-89 0 -148.5 63t-59.5 155q0 103 70 173.5t175 70.5q99 0 162.5 -63t63.5 -158q0 -96 -78 -189l-232 -278h-83zM313 284q73 0 122.5 54t49.5 127q0 69 -42.5 114.5t-114.5 45.5q-77 0 -124 -53t-47 -127q0 -70 41.5 -115.5
t114.5 -45.5z" />
    <glyph glyph-name="percent.lining" horiz-adv-x="802" 
d="M234 353q-66 0 -111 45.5t-45 114.5q0 75 50.5 125t119.5 50q66 0 112 -46t46 -114q0 -75 -51 -125t-121 -50zM125 0l528 680h72l-528 -680h-72zM600 -8q-66 0 -111 45t-45 114q0 75 51 125t120 50q66 0 111.5 -45.5t45.5 -113.5q0 -76 -51 -125.5t-121 -49.5zM235 409
q46 0 77 32.5t31 86.5q0 46 -26.5 75t-69.5 29q-45 0 -75.5 -32.5t-30.5 -86.5q0 -47 25.5 -75.5t68.5 -28.5zM602 47q45 0 76 32.5t31 87.5q0 47 -26.5 75.5t-69.5 28.5q-45 0 -75.5 -33t-30.5 -87q0 -47 26 -75.5t69 -28.5z" />
    <glyph glyph-name="perthousand.lining" horiz-adv-x="1186" 
d="M234 353q-66 0 -111 45.5t-45 114.5q0 75 50.5 125t119.5 50q66 0 112 -46t46 -114q0 -75 -51 -125t-121 -50zM125 0l528 680h72l-528 -680h-72zM984 -8q-66 0 -111 45t-45 114q0 75 50.5 125t119.5 50q66 0 112 -45.5t46 -113.5q0 -76 -51 -125.5t-121 -49.5zM600 -8
q-66 0 -111 45t-45 114q0 75 51 125t120 50q66 0 111.5 -45.5t45.5 -113.5q0 -76 -51 -125.5t-121 -49.5zM235 409q46 0 77 32.5t31 86.5q0 46 -26.5 75t-69.5 29q-45 0 -75.5 -32.5t-30.5 -86.5q0 -47 25.5 -75.5t68.5 -28.5zM985 47q46 0 77 32.5t31 87.5q0 46 -26.5 75
t-69.5 29q-45 0 -75.5 -33t-30.5 -87q0 -47 25.5 -75.5t68.5 -28.5zM602 47q45 0 76 32.5t31 87.5q0 47 -26.5 75.5t-69.5 28.5q-45 0 -75.5 -33t-30.5 -87q0 -47 26 -75.5t69 -28.5z" />
    <glyph glyph-name="plus.lining" horiz-adv-x="400" 
d="M246 293l-25 -145h-62l25 145h-131l11 60h131l25 145h62l-25 -145h131l-11 -60h-131z" />
    <glyph glyph-name="minus.lining" horiz-adv-x="400" 
d="M377 293h-324l11 60h324z" />
    <glyph glyph-name="multiply.lining" horiz-adv-x="416" 
d="M271 316l98 -121l-46 -39l-98 121l-137 -121l-39 43l140 122l-98 121l47 39l97 -121l138 121l38 -43z" />
    <glyph glyph-name="divide.lining" horiz-adv-x="400" 
d="M53 293l11 60h324l-11 -60h-324zM250 429q-21 0 -36 15t-15 37t15 36.5t36 14.5t35.5 -14.5t14.5 -36.5t-14.5 -37t-35.5 -15zM193 114q-20 0 -35 15t-15 36q0 22 15 36.5t35 14.5q21 0 36 -14.5t15 -36.5t-15 -36.5t-36 -14.5z" />
    <glyph glyph-name="equal.lining" horiz-adv-x="399" 
d="M67 353l11 60h317l-11 -60h-317zM41 207l10 61h318l-11 -61h-317z" />
    <glyph glyph-name="less.lining" horiz-adv-x="380" 
d="M325 149l-266 167v10l326 164l-12 -70l-215 -102l177 -107z" />
    <glyph glyph-name="greater.lining" horiz-adv-x="380" 
d="M36 149l12 69l215 103l-177 107l10 62l266 -167v-11z" />
    <glyph glyph-name="degree.lining" horiz-adv-x="357" 
d="M238 423q-54 0 -92 38t-38 92q0 57 39.5 96t94.5 39q54 0 92.5 -37.5t38.5 -91.5q0 -58 -39.5 -97t-95.5 -39zM239 472q36 0 58 24.5t22 62.5q0 35 -21.5 57.5t-55.5 22.5q-36 0 -58 -24.5t-22 -62.5q0 -35 21.5 -57.5t55.5 -22.5z" />
    <glyph glyph-name="period.lining" horiz-adv-x="196" 
d="M71 -7q-21 0 -37 15.5t-16 37.5q0 23 16 38.5t37 15.5t36.5 -15.5t15.5 -38.5q0 -22 -15.5 -37.5t-36.5 -15.5z" />
    <glyph glyph-name="comma.lining" horiz-adv-x="196" 
d="M-8 -112l55 112q-29 14 -29 48q0 22 16 37.5t37 15.5q23 0 37.5 -15t14.5 -38q0 -20 -18 -46l-75 -114h-38z" />
    <glyph glyph-name="colon.lining" horiz-adv-x="205" 
d="M114 218q-21 0 -36.5 15t-15.5 38t15.5 38.5t36.5 15.5q22 0 37.5 -15.5t15.5 -38.5t-15.5 -38t-37.5 -15zM75 -7q-21 0 -36.5 15.5t-15.5 37.5q0 23 15.5 38.5t36.5 15.5q22 0 37.5 -15.5t15.5 -38.5q0 -22 -15.5 -37.5t-37.5 -15.5z" />
    <glyph glyph-name="semicolon.lining" horiz-adv-x="205" 
d="M114 218q-21 0 -36.5 15t-15.5 38t15.5 38.5t36.5 15.5q22 0 37.5 -15.5t15.5 -38.5t-15.5 -38t-37.5 -15zM-3 -112l55 112q-29 13 -29 48q0 22 15.5 37.5t36.5 15.5q23 0 38 -15t15 -38q0 -20 -18 -46l-75 -114h-38z" />
    <glyph glyph-name="parenleft.lining" horiz-adv-x="277" 
d="M147 -135q-107 140 -107 338q0 295 256 515l36 -39q-220 -205 -220 -474q0 -178 82 -308z" />
    <glyph glyph-name="parenright.lining" horiz-adv-x="275" 
d="M11 -135l-36 39q220 207 220 477q0 174 -82 306l46 31q107 -138 107 -335q0 -299 -255 -518z" />
    <glyph glyph-name="bracketleft.lining" horiz-adv-x="299" 
d="M14 -128l150 850h191l-10 -59h-122l-129 -732h122l-11 -59h-191z" />
    <glyph glyph-name="bracketright.lining" horiz-adv-x="300" 
d="M-24 -128l11 59h122l129 732h-122l10 59h192l-150 -850h-192z" />
    <glyph glyph-name="braceleft.lining" horiz-adv-x="362" 
d="M217 -128q-61 0 -94 34.5t-18 116.5l31 180q7 40 -3.5 54t-38.5 14h-59l10 59h56q30 0 47 16.5t24 57.5l33 184q14 78 50 106t91 28h71l-10 -59h-55q-34 0 -51.5 -16.5t-26.5 -63.5l-34 -194q-8 -44 -28 -63.5t-54 -25.5q63 -16 48 -98l-32 -185q-9 -49 4.5 -67.5
t48.5 -18.5h51l-11 -59h-50z" />
    <glyph glyph-name="braceright.lining" horiz-adv-x="362" 
d="M-25 -128l10 59h56q33 0 51 16.5t26 63.5l35 201q8 44 28 63.5t55 25.5q-62 16 -49 98l32 178q9 49 -4.5 67.5t-48.5 18.5h-51l10 59h51q60 0 93.5 -35t18.5 -116l-31 -173q-7 -40 3.5 -54t39.5 -14h59l-11 -59h-55q-30 0 -47 -16.5t-25 -57.5l-34 -191
q-14 -78 -50.5 -106t-90.5 -28h-71z" />
    <glyph glyph-name="section.lining" horiz-adv-x="538" 
d="M167 430q-17 36 -17 80q0 76 52.5 127t133.5 51q116 0 166 -101l-58 -33q-38 72 -108 72q-52 0 -82.5 -32.5t-30.5 -80.5q0 -72 72 -111l98 -55q58 -33 83.5 -69.5t25.5 -83.5q0 -94 -113 -132q20 -35 20 -79q0 -74 -51 -118.5t-136 -44.5q-67 0 -119 30.5t-79 81.5
l58 36q51 -85 138 -85q55 0 85.5 28t30.5 73q0 36 -19 57.5t-64 46.5l-94 53q-57 32 -81 66.5t-24 81.5q0 101 113 141zM357 101q75 26 75 87q0 31 -17.5 54t-59.5 46l-98 55q-40 23 -63 49q-70 -30 -70 -92q0 -32 16 -54t58 -46l93 -52q38 -20 66 -47z" />
    <glyph glyph-name="numbersign.lining" horiz-adv-x="434" 
d="M169 516h-79l10 55h83l27 109h58l-27 -109h97l28 109h57l-27 -109h68l-9 -55h-73l-27 -110h80l-10 -54h-84l-27 -108h-58l27 108h-97l-27 -108h-58l27 108h-67l10 54h71zM324 516h-97l-27 -110h97z" />
    <glyph glyph-name="space.tab" horiz-adv-x="200" 
 />
    <glyph glyph-name="dollar.tab" 
d="M194 -4q-57 11 -96.5 42t-56.5 70l57 29q31 -70 105 -87l33 190q-65 26 -95 59t-30 81q0 62 47 97t120 35h6l18 101h50l-19 -108q79 -19 113 -87l-51 -31q-23 49 -71 64l-30 -167l7 -2q69 -27 101.5 -61.5t32.5 -85.5q0 -69 -52 -106t-140 -37l-19 -108h-50zM252 46
q57 1 86.5 24t29.5 64q0 29 -19.5 48.5t-65.5 37.5zM274 458q-97 -2 -97 -75q0 -27 16 -45t54 -34z" />
    <glyph glyph-name="cent.tab" 
d="M220 1q-64 19 -103 72.5t-39 124.5q0 93 61.5 157.5t154.5 67.5l19 106h50l-19 -109q72 -12 117 -71l-50 -40q-31 41 -77 52l-55 -311h3q61 0 110 41l40 -44q-59 -55 -150 -55h-13l-19 -108h-50zM284 363q-62 -6 -99.5 -51.5t-37.5 -114.5q0 -47 22.5 -84.5t60.5 -52.5z
" />
    <glyph glyph-name="Euro.tab" 
d="M84 283h-59l9 53h62q26 81 89 128.5t139 47.5q116 0 181 -99l-51 -36q-24 39 -53.5 56.5t-75.5 17.5q-53 0 -95 -30.5t-62 -84.5h197l-9 -53h-201q-3 -19 -3 -41q0 -17 1 -25h191l-9 -53h-174q30 -112 138 -112q83 0 136 71l49 -37q-67 -94 -186 -94q-77 0 -133 46.5
t-75 125.5h-86l9 53h69q-1 8 -1 24q0 23 3 42z" />
    <glyph glyph-name="sterling.tab" 
d="M178 260h-97l10 55h79q-11 72 -11 113q0 89 51 139.5t136 50.5q116 0 169 -104l-55 -34q-39 77 -115 77q-54 0 -85 -33.5t-31 -100.5q0 -34 8 -108h154l-10 -55h-138q5 -52 5 -99q0 -35 -9 -63q56 -47 101 -47q31 0 51 10.5t41 33.5l41 -42q-52 -61 -133 -61
q-60 0 -126 58q-44 -58 -114 -58q-45 0 -71.5 25t-26.5 63q0 42 28 66t72 24q42 0 86 -30v11q0 35 -10 109zM174 86q-43 38 -72 38q-21 0 -33.5 -12t-12.5 -32q0 -19 12 -30.5t33 -11.5q48 0 73 48z" />
    <glyph glyph-name="yen.tab" 
d="M188 0l22 129h-169l11 55h167l-27 70h-129l10 55h100l-70 195h73l72 -214q4 -13 7 -30.5t5.5 -29.5t2.5 -13q8 33 35 71l155 216h75l-144 -195h98l-10 -55h-128l-51 -70h168l-11 -55h-169l-23 -129h-70z" />
    <glyph glyph-name="florin.tab" 
d="M201 207h-99l9 53h99l36 203q27 155 149 155q84 0 124 -73l-49 -34q-13 24 -28.5 35.5t-43.5 11.5q-67 0 -83 -94l-36 -204h139l-9 -53h-139l-74 -419h-69z" />
    <glyph glyph-name="zero.tab" 
d="M245 -8q-90 0 -142.5 62t-52.5 161q0 134 67.5 215.5t173.5 81.5q91 0 142.5 -62t51.5 -161q0 -134 -67 -215.5t-173 -81.5zM247 53q76 0 121.5 65t45.5 172q0 74 -33 117t-93 43q-75 0 -120.5 -65.5t-45.5 -171.5q0 -74 32.5 -117t92.5 -43z" />
    <glyph glyph-name="one.tab" 
d="M212 58l68 388h-123l10 58h193l-78 -446h128l-10 -58h-335l10 58h137z" />
    <glyph glyph-name="two.tab" 
d="M24 0v9l218 177q73 58 105.5 97t32.5 82q0 41 -25 63t-65 22q-89 0 -127 -96l-63 19q24 69 74 104t118 35q69 0 113.5 -39.5t44.5 -102.5q0 -57 -38 -105.5t-114 -109.5l-87 -71q-20 -15 -47 -29l10 1q9 1 21.5 2t20.5 1h206l-11 -59h-387z" />
    <glyph glyph-name="three.tab" 
d="M222 -103q-72 0 -126 33.5t-81 90.5l61 32q42 -95 146 -95q66 0 108 37t42 107q0 59 -39.5 93.5t-104.5 34.5q-45 0 -85 -19l-6 10l190 191l42 37q-34 -3 -56 -3h-195l10 58h358v-7l-184 -186l-38 -33q76 2 128 -47.5t52 -129.5q0 -92 -61 -148t-161 -56z" />
    <glyph glyph-name="four.tab" 
d="M390 76h72l-11 -55h-71l-20 -115h-68l20 115h-309l6 34l448 459h10zM322 76l41 228q2 16 16 64q-9 -18 -44 -53l-191 -202q-9 -9 -20.5 -19t-18.5 -15l-7 -5q28 2 54 2h170z" />
    <glyph glyph-name="five.tab" 
d="M217 -103q-71 0 -122 32t-74 81l60 29q41 -81 134 -81q69 0 110.5 40t41.5 106q0 60 -36.5 93.5t-103.5 33.5q-75 0 -138 -48l-6 4l55 317h317l-10 -58h-256l-31 -177q38 21 91 21q85 0 138 -52t53 -133q0 -91 -63 -149.5t-160 -58.5z" />
    <glyph glyph-name="six.tab" 
d="M250 -8q-88 0 -143.5 55.5t-55.5 137.5q0 84 77 170l225 256h80l-182 -206q-17 -20 -58 -47q47 28 91 28q80 0 132 -52.5t52 -133.5q0 -91 -62.5 -149.5t-155.5 -58.5zM250 52q66 0 107 41.5t41 106.5q0 60 -34.5 95.5t-95.5 35.5q-68 0 -107.5 -42t-39.5 -106
q0 -58 35 -94.5t94 -36.5z" />
    <glyph glyph-name="seven.tab" 
d="M56 -94l343 540h-309l10 58h403v-9l-372 -589h-75z" />
    <glyph glyph-name="eight.tab" 
d="M248 -8q-90 0 -146.5 51t-56.5 128q0 68 43 114.5t118 59.5q-66 37 -66 112q0 70 50 115.5t127 45.5q74 0 119 -41.5t45 -102.5q0 -52 -30.5 -89.5t-82.5 -52.5q49 -20 74.5 -58.5t25.5 -87.5q0 -89 -62.5 -141.5t-157.5 -52.5zM251 53q65 0 105.5 37.5t40.5 99.5
q0 56 -35.5 88t-97.5 32q-67 0 -107 -36.5t-40 -99.5q0 -53 36 -87t98 -34zM305 366q49 0 77.5 29t28.5 76q0 40 -26 65t-70 25q-48 0 -77 -29t-29 -76q0 -41 25 -65.5t71 -24.5z" />
    <glyph glyph-name="nine.tab" 
d="M97 -94l173 182q18 20 63 51q-41 -24 -86 -24q-80 0 -132.5 53t-52.5 134q0 91 62.5 150.5t154.5 59.5q89 0 144.5 -56t55.5 -139q0 -93 -89 -188l-210 -223h-83zM260 170q69 0 109 43t40 107q0 58 -35 95t-95 37q-66 0 -106.5 -42t-40.5 -108q0 -60 34 -96t94 -36z" />
    <glyph glyph-name="percent.tab" horiz-adv-x="750" 
d="M188 218q-59 0 -98 39t-39 99q0 66 46.5 111t106.5 45q58 0 96.5 -39t38.5 -98q0 -68 -45 -112.5t-106 -44.5zM149 0l403 504h68l-403 -504h-68zM564 -8q-59 0 -98 38.5t-39 98.5q0 66 46.5 111t106.5 45q58 0 96.5 -38.5t38.5 -97.5q0 -68 -45 -112.5t-106 -44.5z
M188 270q40 0 66 30t26 76q0 39 -21 61t-57 22q-39 0 -66 -29t-27 -74q0 -40 21.5 -63t57.5 -23zM564 44q40 0 66.5 29.5t26.5 75.5q0 39 -21.5 61.5t-57.5 22.5q-39 0 -65.5 -29.5t-26.5 -74.5q0 -40 21 -62.5t57 -22.5z" />
    <glyph glyph-name="perthousand.tab" horiz-adv-x="1100" 
d="M196 218q-59 0 -97.5 39t-38.5 99q0 66 46 111t106 45q59 0 97.5 -39t38.5 -98q0 -68 -45.5 -112.5t-106.5 -44.5zM158 0l403 504h68l-403 -504h-68zM905 -8q-59 0 -97.5 38.5t-38.5 98.5q0 66 46 111t106 45q58 0 97 -38.5t39 -97.5q0 -68 -45.5 -112.5t-106.5 -44.5z
M574 -8q-59 0 -98 38.5t-39 98.5q0 66 46.5 111t106.5 45q58 0 96.5 -38.5t38.5 -97.5q0 -68 -45 -112.5t-106 -44.5zM197 270q39 0 65.5 30t26.5 76q0 39 -21 61t-57 22q-39 0 -66 -29t-27 -74q0 -40 21.5 -63t57.5 -23zM906 44q39 0 65.5 29.5t26.5 75.5q0 39 -21.5 61.5
t-56.5 22.5q-40 0 -66.5 -29.5t-26.5 -74.5q0 -40 21.5 -62.5t57.5 -22.5zM574 44q40 0 66 29.5t26 75.5q0 39 -21.5 61.5t-56.5 22.5q-39 0 -66 -29.5t-27 -74.5q0 -40 21.5 -62.5t57.5 -22.5z" />
    <glyph glyph-name="plus.tab" 
d="M293 223l-27 -152h-61l27 152h-141l10 59h141l27 153h62l-27 -153h142l-11 -59h-142z" />
    <glyph glyph-name="minus.tab" 
d="M90 223l10 59h347l-10 -59h-347z" />
    <glyph glyph-name="multiply.tab" 
d="M310 248l99 -123l-46 -39l-99 122l-140 -122l-38 44l141 124l-99 123l46 39l99 -122l140 122l38 -44z" />
    <glyph glyph-name="divide.tab" 
d="M296 359q-20 0 -35 14.5t-15 35.5q0 22 15 36.5t35 14.5q21 0 35.5 -14.5t14.5 -36.5q0 -21 -14.5 -35.5t-35.5 -14.5zM91 223l10 59h345l-11 -59h-344zM241 45q-21 0 -35.5 14.5t-14.5 36.5q0 21 14.5 35.5t35.5 14.5t35.5 -14.5t14.5 -35.5q0 -22 -14.5 -36.5
t-35.5 -14.5z" />
    <glyph glyph-name="equal.tab" 
d="M107 282l10 61h334l-11 -61h-333zM84 152l11 61h333l-11 -61h-333z" />
    <glyph glyph-name="less.tab" 
d="M385 79l-292 159v10l351 170l-12 -68l-233 -109l196 -104z" />
    <glyph glyph-name="greater.tab" 
d="M93 79l12 68l233 108l-196 105l10 58l293 -159v-10z" />
    <glyph glyph-name="degree.tab" horiz-adv-x="350" 
d="M206 286q-47 0 -79.5 31.5t-32.5 77.5q0 50 35 83.5t84 33.5q47 0 79.5 -31.5t32.5 -77.5q0 -50 -35 -83.5t-84 -33.5zM206 330q30 0 48.5 21t18.5 53q0 29 -16.5 46t-44.5 17q-30 0 -48.5 -20.5t-18.5 -52.5q0 -29 16.5 -46.5t44.5 -17.5z" />
    <glyph glyph-name="period.tab" horiz-adv-x="200" 
d="M72 -7q-21 0 -37 15.5t-16 37.5q0 23 16 38.5t37 15.5t36.5 -15.5t15.5 -38.5q0 -22 -15.5 -37.5t-36.5 -15.5z" />
    <glyph glyph-name="comma.tab" horiz-adv-x="200" 
d="M-7 -112l55 112q-29 14 -29 48q0 22 16 37.5t37 15.5q23 0 37.5 -15t14.5 -38q0 -20 -18 -46l-75 -114h-38z" />
    <glyph glyph-name="colon.tab" horiz-adv-x="200" 
d="M111 218q-21 0 -36.5 15t-15.5 38t15.5 38.5t36.5 15.5q22 0 37.5 -15.5t15.5 -38.5t-15.5 -38t-37.5 -15zM72 -7q-21 0 -36.5 15.5t-15.5 37.5q0 23 15.5 38.5t36.5 15.5q22 0 37.5 -15.5t15.5 -38.5q0 -22 -15.5 -37.5t-37.5 -15.5z" />
    <glyph glyph-name="semicolon.tab" horiz-adv-x="200" 
d="M111 218q-21 0 -36.5 15t-15.5 38t15.5 38.5t36.5 15.5q22 0 37.5 -15.5t15.5 -38.5t-15.5 -38t-37.5 -15zM-7 -112l55 112q-29 14 -29 48q0 22 16 37.5t37 15.5q23 0 37.5 -15t14.5 -38q0 -20 -18 -46l-75 -114h-38z" />
    <glyph glyph-name="parenleft.tab" horiz-adv-x="300" 
d="M157 -133q-104 143 -104 338q0 294 249 513l37 -38q-214 -206 -214 -473q0 -173 78 -311z" />
    <glyph glyph-name="parenright.tab" horiz-adv-x="300" 
d="M29 -133l-37 38q214 206 214 475q0 171 -78 309l45 29q105 -142 105 -336q0 -90 -21.5 -170.5t-60 -144t-78 -109.5t-89.5 -91z" />
    <glyph glyph-name="bracketleft.tab" horiz-adv-x="300" 
d="M14 -128l150 850h191l-10 -59h-122l-129 -732h122l-11 -59h-191z" />
    <glyph glyph-name="bracketright.tab" horiz-adv-x="300" 
d="M-24 -128l10 59h122l130 732h-122l10 59h191l-150 -850h-191z" />
    <glyph glyph-name="braceleft.tab" horiz-adv-x="300" 
d="M164 -128q-60 0 -93.5 35t-18.5 116l33 180q6 40 -4.5 54t-38.5 14h-27l11 59h23q30 0 47 16.5t24 57.5l33 184q14 78 50 106t91 28h61l-10 -59h-46q-33 0 -51 -16.5t-26 -63.5l-34 -194q-8 -44 -28 -63.5t-54 -25.5q63 -16 48 -98l-33 -185q-9 -49 4.5 -67.5t48.5 -18.5
h42l-11 -59h-41z" />
    <glyph glyph-name="braceright.tab" horiz-adv-x="300" 
d="M-24 -128l10 59h47q34 0 51.5 16.5t25.5 63.5l36 201q8 44 28 63.5t54 25.5q-63 16 -48 98l31 178q9 49 -4.5 67.5t-48.5 18.5h-42l10 59h42q61 0 94 -34.5t18 -116.5l-31 -173q-7 -40 4 -54t39 -14h27l-10 -59h-24q-30 0 -47 -16.5t-24 -57.5l-34 -191q-14 -78 -51 -106
t-91 -28h-62z" />
    <glyph glyph-name="section.tab" 
d="M162 413q-12 27 -12 61q0 63 44 103.5t112 40.5q114 0 152 -95l-56 -27q-26 65 -95 65q-43 0 -66 -24t-23 -62q0 -57 58 -83l89 -42q108 -48 108 -136q0 -84 -96 -117q15 -27 15 -64q0 -61 -44 -98.5t-120 -37.5q-68 0 -115 31t-64 77l57 26q33 -77 120 -77q44 0 70 21.5
t26 57.5q0 29 -16.5 47t-53.5 35l-80 37q-58 27 -83.5 59t-25.5 82q0 44 27.5 75.5t71.5 44.5zM348 133q59 18 59 75q0 26 -15.5 46t-54.5 37l-86 41q-42 19 -66 45q-56 -20 -56 -77q0 -31 16 -50t53 -37l80 -36q46 -21 70 -44z" />
    <glyph glyph-name="numbersign.tab" 
d="M197 449h-88l10 55h92l27 109h57l-27 -109h105l27 109h57l-27 -109h77l-10 -55h-81l-27 -110h89l-10 -55h-93l-26 -107h-59l27 107h-104l-27 -107h-57l27 107h-76l10 55h79zM358 449h-104q-27 -110 -28 -110h105q2 7 5 18.5l9 35.5t9 40z" />
    <glyph glyph-name="space.tablining" horiz-adv-x="200" 
 />
    <glyph glyph-name="dollar.tablining" horiz-adv-x="580" 
d="M200 -116l20 112q-124 16 -189 129l58 38q55 -95 141 -106l50 278l-5 3q-128 74 -128 183q0 76 54 121.5t132 45.5h9l15 85h50l-16 -92q79 -17 128 -94l-53 -39q-39 57 -86 71l-42 -235l16 -10q70 -41 104 -86t34 -107q0 -86 -59.5 -137t-163.5 -52l-19 -108h-50z
M421 181q0 39 -22 67t-74 61l-45 -255q68 4 104.5 37.5t36.5 89.5zM217 525q0 -36 18 -62t58 -53l38 216q-48 0 -81 -27t-33 -74z" />
    <glyph glyph-name="cent.tablining" horiz-adv-x="580" 
d="M250 1q-64 19 -103 72.5t-39 124.5q0 93 61.5 157.5t154.5 67.5l19 106h50l-19 -109q72 -12 117 -71l-50 -40q-31 41 -77 52l-55 -311h3q61 0 110 41l40 -44q-59 -55 -150 -55h-13l-19 -108h-50zM314 363q-62 -6 -99.5 -51.5t-37.5 -114.5q0 -47 22.5 -84.5t60.5 -52.5z
" />
    <glyph glyph-name="Euro.tablining" horiz-adv-x="580" 
d="M308 -8q-96 0 -153.5 64.5t-61.5 182.5h-73l9 55h64q3 50 11 86h-59l9 55h62q35 115 107 184t166 69q138 0 187 -141l-62 -24q-22 53 -50.5 78t-79.5 25q-66 0 -116.5 -52.5t-76.5 -138.5h222l-9 -55h-227q-10 -45 -11 -86h222l-10 -55h-213q4 -87 41 -136t104 -49
q54 0 91.5 26.5t72.5 85.5l58 -30q-80 -144 -224 -144z" />
    <glyph glyph-name="sterling.tablining" horiz-adv-x="580" 
d="M196 277h-101l10 55h80q-17 85 -17 140q0 98 56 157t156 59q141 0 192 -122l-58 -31q-21 47 -52 69.5t-82 22.5q-67 0 -103 -40t-36 -115q0 -46 14 -140h180l-10 -55h-162q9 -63 9 -107q0 -35 -7 -60q67 -57 125 -57q34 0 55.5 13t43.5 41l47 -40q-32 -40 -64.5 -57.5
t-80.5 -17.5q-70 0 -148 66q-42 -66 -122 -66q-42 0 -73 25.5t-31 65.5q0 46 30 71.5t76 25.5q43 0 86 -26v13q0 41 -13 110zM198 97q-41 34 -74 34q-24 0 -39 -12.5t-15 -33.5q0 -19 14 -31.5t36 -12.5q56 0 78 56z" />
    <glyph glyph-name="yen.tablining" horiz-adv-x="580" 
d="M220 0l26 153h-196l10 56h197l7 38l-18 51h-171l11 55h144l-104 327h75l97 -311q10 -36 10 -69q6 24 33 67l206 313h75l-219 -327h144l-10 -55h-170l-36 -52l-6 -37h197l-11 -56h-196l-26 -153h-69z" />
    <glyph glyph-name="florin.tablining" horiz-adv-x="539" 
d="M214 258h-101l10 55h101l39 220q26 155 149 155q86 0 124 -73l-49 -34q-13 24 -28.5 35.5t-43.5 11.5q-68 0 -84 -94l-39 -221h138l-10 -55h-138l-82 -470h-69z" />
    <glyph glyph-name="zero.tablining" horiz-adv-x="580" 
d="M272 -8q-96 0 -149.5 70t-53.5 195q1 186 80 308.5t207 122.5q96 0 149.5 -70t53.5 -195q0 -185 -79.5 -308t-207.5 -123zM274 55q64 0 113 53.5t73.5 137.5t24.5 183q0 195 -132 195q-95 0 -153 -110.5t-57 -262.5q0 -196 131 -196z" />
    <glyph glyph-name="one.tablining" horiz-adv-x="580" 
d="M240 0l109 617h-161l11 63h231l-120 -680h-70z" />
    <glyph glyph-name="two.tablining" horiz-adv-x="580" 
d="M12 0v7l319 292q67 62 100.5 110.5t33.5 100.5t-31.5 83t-88.5 31q-55 0 -96 -33.5t-61 -96.5l-67 15q22 84 83 131.5t143 47.5q87 0 138 -50t51 -130q0 -65 -40 -122.5t-114 -125.5l-172 -156q-38 -34 -63 -47l11 1q12 2 29 3t29 1h246l-12 -62h-438z" />
    <glyph glyph-name="three.tablining" horiz-adv-x="580" 
d="M272 -8q-83 0 -143.5 39.5t-85.5 97.5l61 30q52 -103 167 -103q82 0 128 46.5t46 124.5q0 68 -47 107.5t-125 39.5q-35 0 -67 -10l-5 7l194 211l48 41q-35 -5 -59 -5h-226l11 62h386v-7l-195 -214q-9 -9 -20 -18t-18 -13l-6 -5q87 -4 144 -56t57 -141q0 -106 -69 -170
t-176 -64z" />
    <glyph glyph-name="four.tablining" horiz-adv-x="580" 
d="M456 185h71l-11 -59h-71l-22 -126h-70l22 126h-345l6 37l504 533h6zM385 185l49 277q2 9 18 75q-16 -32 -48 -67l-215 -234q-20 -22 -67 -57l13 1q13 2 31.5 3.5t31.5 1.5h187z" />
    <glyph glyph-name="five.tablining" horiz-adv-x="580" 
d="M275 -8q-76 0 -135 37t-88 95l62 32q52 -100 161 -100q79 0 124.5 46t45.5 120q0 69 -40.5 111.5t-114.5 42.5q-83 0 -155 -50l-7 3l62 351h344l-11 -62h-282l-37 -204q42 22 100 22q96 0 154.5 -60.5t58.5 -152.5q0 -102 -67 -166.5t-175 -64.5z" />
    <glyph glyph-name="six.tablining" horiz-adv-x="580" 
d="M286 -8q-96 0 -158.5 62.5t-62.5 156.5q0 92 71 174l251 295h82l-179 -211q-13 -15 -57 -52q43 27 88 27q87 0 144 -60t57 -151q0 -104 -66 -172.5t-170 -68.5zM288 54q73 0 118 51t45 128q0 70 -40 112t-108 42q-75 0 -121 -51t-46 -125q0 -69 41 -113t111 -44z" />
    <glyph glyph-name="seven.tablining" horiz-adv-x="580" 
d="M88 0l398 617h-350l11 63h453v-7l-433 -673h-79z" />
    <glyph glyph-name="eight.tablining" horiz-adv-x="580" 
d="M282 -8q-104 0 -165 52.5t-61 135.5q0 75 47 124.5t125 66.5q-84 35 -84 135q0 78 58.5 130t145.5 52q86 0 136.5 -48.5t50.5 -118.5q0 -54 -33.5 -97.5t-91.5 -60.5q113 -40 113 -162q0 -95 -69.5 -152t-171.5 -57zM284 55q74 0 119.5 39.5t45.5 108.5q0 61 -38 97.5
t-111 36.5q-71 0 -120.5 -40t-49.5 -111q0 -58 40 -94.5t114 -36.5zM332 392q58 0 95.5 35t37.5 88q0 46 -31 79t-89 33t-94.5 -35t-36.5 -86q0 -49 29.5 -81.5t88.5 -32.5z" />
    <glyph glyph-name="nine.tablining" horiz-adv-x="580" 
d="M169 0l168 202q11 13 62 58q-43 -29 -93 -29q-88 0 -146 62t-58 153q0 103 68.5 172.5t172.5 69.5q98 0 160 -62.5t62 -156.5t-77 -187l-236 -282h-83zM326 288q72 0 120.5 53.5t48.5 125.5q0 69 -41.5 113.5t-112.5 44.5q-76 0 -122 -51.5t-46 -125.5q0 -70 41 -115
t112 -45z" />
    <glyph glyph-name="percent.tablining" horiz-adv-x="800" 
d="M241 353q-63 0 -105.5 44.5t-42.5 111.5q0 75 49 127t117 52q63 0 106 -44.5t43 -111.5q0 -76 -49.5 -127.5t-117.5 -51.5zM124 0l528 680h72l-529 -680h-71zM587 -8q-63 0 -105.5 44t-42.5 112q0 75 49 126.5t117 51.5q64 0 107 -44.5t43 -111.5q0 -76 -49.5 -127
t-118.5 -51zM243 408q44 0 74 35t30 90q0 44 -24.5 72t-65.5 28q-44 0 -73.5 -35t-29.5 -90q0 -44 24 -72t65 -28zM590 47q44 0 73.5 34.5t29.5 89.5q0 44 -24 72t-65 28q-44 0 -73.5 -34.5t-29.5 -89.5q0 -44 24 -72t65 -28z" />
    <glyph glyph-name="perthousand.tablining" horiz-adv-x="1160" 
d="M238 353q-63 0 -105.5 44.5t-42.5 111.5q0 75 49 127t117 52q63 0 106 -44.5t43 -111.5q0 -76 -49 -127.5t-118 -51.5zM121 0l528 680h72l-528 -680h-72zM950 -8q-63 0 -105.5 44t-42.5 112q0 75 49 126.5t117 51.5q63 0 106 -44.5t43 -111.5q0 -76 -49 -127t-118 -51z
M585 -8q-64 0 -106 44t-42 112q0 75 49 126.5t117 51.5q63 0 106 -44.5t43 -111.5q0 -75 -49.5 -126.5t-117.5 -51.5zM240 408q45 0 74.5 35t29.5 90q0 44 -24.5 72t-65.5 28q-44 0 -73 -35t-29 -90q0 -44 23.5 -72t64.5 -28zM952 47q45 0 74.5 34.5t29.5 89.5
q0 44 -24.5 72t-65.5 28q-44 0 -73 -34.5t-29 -89.5q0 -44 23.5 -72t64.5 -28zM587 47q44 0 74 34.5t30 89.5q0 44 -24.5 72t-65.5 28q-44 0 -73.5 -34.5t-29.5 -89.5q0 -44 24 -72t65 -28z" />
    <glyph glyph-name="plus.tablining" horiz-adv-x="580" 
d="M336 293l-29 -165h-62l29 165h-156l11 60h156l29 165h62l-29 -165h155l-11 -60h-155z" />
    <glyph glyph-name="minus.tablining" horiz-adv-x="580" 
d="M118 293l11 60h373l-11 -60h-373z" />
    <glyph glyph-name="multiply.tablining" horiz-adv-x="539" 
d="M330 316l100 -123l-45 -39l-99 123l-141 -123l-38 43l142 124l-100 124l46 38l99 -123l140 123l39 -43z" />
    <glyph glyph-name="divide.tablining" horiz-adv-x="539" 
d="M319 429q-21 0 -36 15t-15 37t15 36.5t36 14.5t36 -14.5t15 -36.5t-15 -37t-36 -15zM98 293l11 60h373l-11 -60h-373zM263 114q-21 0 -36 15t-15 36q0 22 15 36.5t36 14.5t35.5 -14.5t14.5 -36.5q0 -21 -14.5 -36t-35.5 -15z" />
    <glyph glyph-name="equal.tablining" horiz-adv-x="580" 
d="M128 354l11 59h376l-12 -59h-375zM104 207l10 59h376l-11 -59h-375z" />
    <glyph glyph-name="less.tablining" horiz-adv-x="580" 
d="M428 132l-328 183v10l396 191l-12 -69l-280 -128l234 -130z" />
    <glyph glyph-name="greater.tablining" horiz-adv-x="580" 
d="M84 132l12 69l280 128l-234 130l10 57l328 -183v-10z" />
    <glyph glyph-name="degree.tablining" horiz-adv-x="376" 
d="M247 423q-53 0 -91.5 38t-38.5 92q0 57 39.5 96t95.5 39q54 0 92 -37.5t38 -91.5q0 -58 -39.5 -97t-95.5 -39zM248 472q36 0 58 24.5t22 62.5q0 35 -21.5 57.5t-55.5 22.5q-35 0 -57.5 -24.5t-22.5 -62.5q0 -35 21.5 -57.5t55.5 -22.5z" />
    <glyph glyph-name="period.tablining" horiz-adv-x="200" 
d="M72 -7q-21 0 -37 15.5t-16 37.5q0 23 16 38.5t37 15.5t36.5 -15.5t15.5 -38.5q0 -22 -15.5 -37.5t-36.5 -15.5z" />
    <glyph glyph-name="comma.tablining" horiz-adv-x="200" 
d="M-7 -112l55 112q-29 14 -29 48q0 22 16 37.5t37 15.5q23 0 37.5 -15t14.5 -38q0 -20 -18 -46l-75 -114h-38z" />
    <glyph glyph-name="colon.tablining" horiz-adv-x="200" 
d="M111 218q-21 0 -36.5 15t-15.5 38t15.5 38.5t36.5 15.5q22 0 37.5 -15.5t15.5 -38.5t-15.5 -38t-37.5 -15zM72 -7q-21 0 -36.5 15.5t-15.5 37.5q0 23 15.5 38.5t36.5 15.5q22 0 37.5 -15.5t15.5 -38.5q0 -22 -15.5 -37.5t-37.5 -15.5z" />
    <glyph glyph-name="semicolon.tablining" horiz-adv-x="200" 
d="M111 218q-21 0 -36.5 15t-15.5 38t15.5 38.5t36.5 15.5q22 0 37.5 -15.5t15.5 -38.5t-15.5 -38t-37.5 -15zM-7 -112l55 112q-29 14 -29 48q0 22 16 37.5t37 15.5q23 0 37.5 -15t14.5 -38q0 -20 -18 -46l-75 -114h-38z" />
    <glyph glyph-name="parenleft.tablining" horiz-adv-x="300" 
d="M157 -133q-104 143 -104 338q0 294 249 513l37 -38q-214 -206 -214 -473q0 -173 78 -311z" />
    <glyph glyph-name="parenright.tablining" horiz-adv-x="300" 
d="M29 -133l-37 38q214 206 214 475q0 171 -78 309l45 29q105 -142 105 -336q0 -90 -21.5 -170.5t-60 -144t-78 -109.5t-89.5 -91z" />
    <glyph glyph-name="bracketleft.tablining" horiz-adv-x="300" 
d="M14 -128l150 850h191l-10 -59h-122l-129 -732h122l-11 -59h-191z" />
    <glyph glyph-name="bracketright.tablining" horiz-adv-x="300" 
d="M-24 -128l10 59h122l130 732h-122l10 59h191l-150 -850h-191z" />
    <glyph glyph-name="braceleft.tablining" horiz-adv-x="300" 
d="M164 -128q-60 0 -93.5 35t-18.5 116l32 180q6 40 -4 54t-39 14h-26l10 59h23q30 0 47 16.5t24 57.5l34 184q14 78 50 106t91 28h61l-10 -59h-46q-33 0 -51 -16.5t-26 -63.5l-35 -194q-7 -44 -27 -63.5t-55 -25.5q62 -16 49 -98l-33 -185q-9 -49 4.5 -67.5t48.5 -18.5h42
l-11 -59h-41z" />
    <glyph glyph-name="braceright.tablining" horiz-adv-x="300" 
d="M-24 -128l10 59h47q34 0 51.5 16.5t25.5 63.5l36 201q8 44 28 63.5t54 25.5q-63 16 -48 98l31 178q9 49 -4.5 67.5t-48.5 18.5h-42l10 59h42q61 0 94 -34.5t18 -116.5l-31 -173q-7 -40 4 -54t39 -14h27l-10 -59h-24q-30 0 -47 -16.5t-24 -57.5l-34 -191q-14 -78 -51 -106
t-91 -28h-62z" />
    <glyph glyph-name="section.tablining" horiz-adv-x="580" 
d="M181 435q-19 35 -19 77q0 77 53 126.5t135 49.5q59 0 103 -28.5t69 -74.5l-58 -34q-40 75 -115 75q-53 0 -83.5 -30.5t-30.5 -80.5q0 -37 20.5 -63.5t59.5 -50.5l99 -58q58 -34 83 -71.5t25 -85.5q0 -92 -110 -127q18 -33 18 -76q0 -74 -53 -118.5t-141 -44.5
q-67 0 -120 31t-84 83l58 36q51 -87 144 -87q58 0 90 28t32 73q0 36 -18.5 57.5t-64.5 46.5l-100 56q-57 32 -81.5 68.5t-24.5 84.5q0 101 114 138zM380 99q73 20 73 83q0 31 -18 54.5t-60 48.5l-97 58q-41 24 -70 54q-72 -29 -72 -91q0 -33 16 -56.5t58 -45.5l102 -56
q43 -24 68 -49z" />
    <glyph glyph-name="numbersign.tablining" horiz-adv-x="580" 
d="M237 516h-98l10 55h102l27 109h58l-27 -109h108l27 109h57l-27 -109h90l-10 -55h-93q-29 -116 -30 -116h99l-10 -55h-102l-27 -109h-59l5 18t9 35l10 40l3 16h-107l-27 -109h-58l27 109h-88l9 55h93zM403 516h-108l-29 -116h107z" />
    <glyph glyph-name="zero.numerator" horiz-adv-x="470" 
d="M258 225q-83 0 -130.5 54t-47.5 142q0 110 64 188t159 78q83 0 130 -54t47 -141q0 -113 -63.5 -190t-158.5 -77zM259 281q69 0 111.5 61.5t42.5 149.5q0 63 -29 101t-82 38q-70 0 -113 -61.5t-43 -148.5q0 -66 29 -103t84 -37z" />
    <glyph glyph-name="one.numerator" horiz-adv-x="246" 
d="M107 233l68 391h-89l10 56h153l-79 -447h-63z" />
    <glyph glyph-name="two.numerator" horiz-adv-x="381" 
d="M31 233v9l204 186q84 78 84 134q0 31 -19.5 49.5t-52.5 18.5q-66 0 -104 -77l-55 27q22 48 64 77.5t96 29.5q60 0 98 -35t38 -90q0 -78 -99 -165l-81 -74q-23 -22 -61 -41l15 2q15 1 32.5 2.5t25.5 1.5h140l-10 -55h-315z" />
    <glyph glyph-name="three.numerator" horiz-adv-x="367" 
d="M199 225q-60 0 -105 28.5t-60 67.5l55 27q31 -65 110 -65q45 0 72.5 27.5t27.5 70.5q0 41 -30.5 66t-82.5 25q-27 0 -46 -7l-5 9l107 113l47 41q-34 -3 -59 -3h-129l10 55h277v-9l-114 -124q-26 -27 -37 -31q54 -5 91 -42t37 -94q0 -69 -46 -112t-120 -43z" />
    <glyph glyph-name="four.numerator" horiz-adv-x="401" 
d="M352 359h52l-9 -50h-52l-13 -76h-62l13 76h-246l5 34l360 343h10zM290 359l23 129l21 77q-26 -34 -55 -62l-107 -104q-11 -10 -24.5 -21t-21.5 -16l-8 -6q32 3 64 3h108z" />
    <glyph glyph-name="five.numerator" horiz-adv-x="366" 
d="M193 225q-55 0 -97.5 26.5t-62.5 66.5l55 30q34 -65 105 -65q49 0 78 27t29 71q0 42 -27.5 67t-74.5 25q-59 0 -107 -31l-7 6l42 232h243l-10 -55h-188l-20 -114q30 13 63 13q68 0 109.5 -39.5t41.5 -102.5q0 -72 -47 -114.5t-125 -42.5z" />
    <glyph glyph-name="six.numerator" horiz-adv-x="396" 
d="M227 225q-69 0 -116.5 44.5t-47.5 106.5q0 66 54 127l157 176h77l-100 -111q-27 -31 -62 -52q29 16 65 16q57 0 100.5 -41t43.5 -103q0 -72 -48.5 -117.5t-122.5 -45.5zM228 281q46 0 75.5 30t29.5 77q0 42 -27 68.5t-72 26.5q-47 0 -77 -29t-30 -77q0 -41 28.5 -68.5
t72.5 -27.5z" />
    <glyph glyph-name="seven.numerator" horiz-adv-x="380" 
d="M75 233l258 391h-232l10 56h323v-9l-287 -438h-72z" />
    <glyph glyph-name="eight.numerator" horiz-adv-x="394" 
d="M222 225q-70 0 -115 35.5t-45 92.5q0 48 31 80.5t82 44.5q-56 27 -56 90q0 51 41 85t104 34q61 0 97 -33t36 -82q0 -39 -24 -65.5t-64 -37.5q37 -14 58.5 -42.5t21.5 -64.5q0 -62 -48 -99.5t-119 -37.5zM223 278q46 0 73.5 24.5t27.5 63.5q0 36 -27 59.5t-69 23.5
q-44 0 -72 -24.5t-28 -64.5q0 -37 26 -59.5t69 -22.5zM255 495q34 0 56 21t22 52q0 29 -19.5 48.5t-51.5 19.5q-36 0 -58.5 -20t-22.5 -50q0 -31 21 -51t53 -20z" />
    <glyph glyph-name="nine.numerator" horiz-adv-x="396" 
d="M131 233l102 112q24 27 62 51q-32 -16 -64 -16q-57 0 -100.5 41t-43.5 103q0 72 48.5 117.5t122.5 45.5q69 0 116 -44.5t47 -106.5q0 -69 -55 -128l-159 -175h-76zM251 429q47 0 77 29.5t30 76.5q0 41 -29 69t-73 28q-46 0 -75 -30t-29 -77q0 -43 27 -69.5t72 -26.5z" />
    <glyph glyph-name="zero.denominator" horiz-adv-x="470" 
d="M216 -8q-83 0 -131 54t-48 142q0 110 64 188t160 78q83 0 130 -54t47 -141q0 -113 -63.5 -190t-158.5 -77zM217 48q69 0 111.5 61.5t42.5 149.5q0 63 -29 101t-82 38q-70 0 -113 -61.5t-43 -148.5q0 -66 29 -103t84 -37z" />
    <glyph glyph-name="one.denominator" horiz-adv-x="246" 
d="M65 0l68 391h-89l10 56h153l-79 -447h-63z" />
    <glyph glyph-name="two.denominator" horiz-adv-x="381" 
d="M-10 0v9l204 186q84 78 84 134q0 31 -19.5 49.5t-52.5 18.5q-66 0 -104 -77l-55 27q22 48 64 77.5t96 29.5q60 0 98 -35t38 -90q0 -78 -99 -165l-81 -74q-23 -22 -61 -41l15 1q15 2 32.5 3.5t25.5 1.5h140l-10 -55h-315z" />
    <glyph glyph-name="three.denominator" horiz-adv-x="367" 
d="M157 -8q-60 0 -105 28.5t-60 67.5l55 27q31 -65 110 -65q45 0 72.5 27.5t27.5 70.5q0 41 -30.5 66t-82.5 25q-27 0 -46 -7l-5 9l107 113l47 41q-34 -3 -59 -3h-129l10 55h277v-9l-114 -124q-26 -27 -37 -31q54 -5 91 -42t37 -94q0 -69 -46 -112t-120 -43z" />
    <glyph glyph-name="four.denominator" horiz-adv-x="401" 
d="M314 126h52l-9 -50h-52l-13 -76h-62l13 76h-246l5 34l360 343h10zM252 126l23 129l21 77q-26 -34 -55 -62l-107 -104q-11 -10 -24.5 -21t-21.5 -17l-8 -5q32 3 64 3h108z" />
    <glyph glyph-name="five.denominator" horiz-adv-x="366" 
d="M152 -8q-55 0 -97.5 26.5t-62.5 66.5l55 30q34 -65 105 -65q49 0 77.5 27.5t28.5 70.5q0 42 -27 67t-74 25q-61 0 -107 -31l-7 6l41 232h244l-10 -55h-188l-20 -114q30 13 63 13q68 0 109.5 -39.5t41.5 -102.5q0 -72 -47 -114.5t-125 -42.5z" />
    <glyph glyph-name="six.denominator" horiz-adv-x="396" 
d="M186 -8q-70 0 -117 44.5t-47 106.5q0 65 54 127l157 176h77l-100 -111q-29 -32 -63 -52q29 16 65 16q57 0 100.5 -41t43.5 -103q0 -72 -48.5 -117.5t-121.5 -45.5zM187 48q46 0 75.5 30t29.5 77q0 42 -27.5 69t-72.5 27q-47 0 -76.5 -29.5t-29.5 -77.5q0 -41 28.5 -68.5
t72.5 -27.5z" />
    <glyph glyph-name="seven.denominator" horiz-adv-x="379" 
d="M33 0l258 391h-231l10 56h322v-9l-286 -438h-73z" />
    <glyph glyph-name="eight.denominator" horiz-adv-x="394" 
d="M181 -8q-70 0 -115 35.5t-45 92.5q0 48 31 80.5t82 44.5q-56 29 -56 90q0 51 41 85t104 34q61 0 97 -32.5t36 -82.5q0 -39 -24 -65.5t-64 -37.5q37 -14 58.5 -42.5t21.5 -64.5q0 -62 -47.5 -99.5t-119.5 -37.5zM182 45q46 0 73.5 24.5t27.5 63.5q0 36 -27 59.5t-69 23.5
q-44 0 -72 -24.5t-28 -64.5q0 -37 26 -59.5t69 -22.5zM214 262q34 0 56 21t22 52q0 29 -19.5 49t-51.5 20q-36 0 -58.5 -20.5t-22.5 -50.5q0 -31 21 -51t53 -20z" />
    <glyph glyph-name="nine.denominator" horiz-adv-x="396" 
d="M89 0l102 112q22 24 62 52q-31 -17 -64 -17q-56 0 -99.5 41t-43.5 103q0 72 48.5 117.5t121.5 45.5q69 0 116.5 -44.5t47.5 -106.5q0 -67 -55 -128l-160 -175h-76zM209 196q47 0 77 29.5t30 76.5q0 42 -28.5 69.5t-72.5 27.5q-46 0 -75.5 -30t-29.5 -77q0 -43 27 -69.5
t72 -26.5z" />
    <glyph glyph-name="zero.subscript" horiz-adv-x="400" 
d="M135 -257q-71 0 -111.5 46t-40.5 120q0 94 54.5 160.5t136.5 66.5q70 0 110 -45.5t40 -119.5q0 -97 -54 -162.5t-135 -65.5zM136 -209q58 0 94.5 52.5t36.5 126.5q0 53 -25 85.5t-70 32.5q-60 0 -96.5 -52t-36.5 -127q0 -55 25 -86.5t72 -31.5z" />
    <glyph glyph-name="one.subscript" horiz-adv-x="210" 
d="M-6 -251l58 332h-76l9 48h130l-67 -380h-54z" />
    <glyph glyph-name="two.subscript" horiz-adv-x="324" 
d="M-71 -251v8l174 158q71 66 71 114q0 27 -16.5 42.5t-44.5 15.5q-55 0 -88 -66l-47 23q19 41 54.5 66t81.5 25q51 0 83 -29.5t32 -76.5q0 -67 -84 -141l-69 -62q-8 -8 -21 -16.5l-21 -13.5l-9 -5q47 5 62 5h119l-9 -47h-268z" />
    <glyph glyph-name="three.subscript" horiz-adv-x="311" 
d="M84 -258q-50 0 -88 24.5t-53 57.5l47 23q28 -56 94 -56q38 0 61.5 23.5t23.5 60.5q0 35 -26 56t-70 21q-25 0 -40 -5l-5 8l91 95l40 35q-28 -3 -50 -3h-108l8 47h236v-8l-99 -105q-21 -23 -34 -27q49 -5 81 -35.5t32 -79.5q0 -59 -39 -95.5t-102 -36.5z" />
    <glyph glyph-name="four.subscript" horiz-adv-x="341" 
d="M201 -144h44l-7 -42h-44l-11 -65h-53l11 65h-209l4 29l306 291h9zM149 -144l19 110q2 11 17 64q-13 -19 -46 -51l-91 -89q-9 -9 -20.5 -18t-18.5 -14l-7 -4q28 2 55 2h92z" />
    <glyph glyph-name="five.subscript" horiz-adv-x="311" 
d="M79 -258q-46 0 -82.5 22.5t-53.5 56.5l46 26q31 -56 90 -56q41 0 66 23t25 60q0 36 -23.5 57t-63.5 21q-51 0 -91 -25l-6 4l35 198h207l-8 -47h-160l-17 -96q28 10 54 10q58 0 93 -33.5t35 -87.5q0 -61 -40 -97t-106 -36z" />
    <glyph glyph-name="six.subscript" horiz-adv-x="336" 
d="M95 -258q-59 0 -99 38t-40 91q0 57 45 108l134 149h65l-85 -94q-24 -28 -54 -45q28 14 57 14q48 0 85 -34.5t37 -87.5q0 -61 -41.5 -100t-103.5 -39zM96 -210q40 0 64.5 25t24.5 66q0 36 -22.5 58.5t-61.5 22.5q-40 0 -65.5 -25.5t-25.5 -65.5q0 -35 24.5 -58t61.5 -23z
" />
    <glyph glyph-name="seven.subscript" horiz-adv-x="323" 
d="M-34 -251l219 332h-197l8 48h275v-8l-244 -372h-61z" />
    <glyph glyph-name="eight.subscript" horiz-adv-x="335" 
d="M105 -258q-59 0 -97.5 30t-38.5 79q0 40 26 68t70 38q-47 23 -47 77q0 43 34.5 72t88.5 29q52 0 82 -28t30 -71q0 -66 -74 -87q31 -11 49.5 -35t18.5 -55q0 -53 -40.5 -85t-101.5 -32zM106 -213q39 0 62.5 21t23.5 54q0 31 -23 50.5t-59 19.5q-38 0 -61.5 -20.5
t-23.5 -54.5q0 -32 22 -51t59 -19zM134 -28q28 0 46.5 17.5t18.5 43.5q0 25 -16.5 42t-43.5 17q-30 0 -49 -17.5t-19 -42.5q0 -26 17.5 -43t45.5 -17z" />
    <glyph glyph-name="nine.subscript" horiz-adv-x="336" 
d="M13 -251l87 95q18 20 53 44q-23 -14 -55 -14q-48 0 -85 34.5t-37 87.5q0 61 41.5 100t103.5 39q59 0 99 -37.5t40 -90.5q0 -57 -47 -109l-135 -149h-65zM115 -84q40 0 65.5 25t25.5 65q0 35 -24.5 58.5t-61.5 23.5q-39 0 -64 -25.5t-25 -65.5q0 -36 22.5 -58.5
t61.5 -22.5z" />
    <glyph glyph-name="zero.superscript" horiz-adv-x="400" 
d="M232 294q-71 0 -111.5 46t-40.5 120q0 94 54.5 160.5t136.5 66.5q70 0 110 -45.5t40 -119.5q0 -97 -54 -162.5t-135 -65.5zM233 342q58 0 94.5 52.5t36.5 126.5q0 53 -25 85.5t-70 32.5q-60 0 -96.5 -52t-36.5 -127q0 -55 25 -86.5t72 -31.5z" />
    <glyph glyph-name="one.superscript" horiz-adv-x="210" 
d="M91 300l58 332h-76l9 48h130l-67 -380h-54z" />
    <glyph glyph-name="two.superscript" horiz-adv-x="324" 
d="M26 300v8l174 158q71 66 71 114q0 27 -16.5 42.5t-44.5 15.5q-55 0 -88 -66l-47 23q19 41 54.5 66t81.5 25q51 0 83 -29.5t32 -76.5q0 -67 -84 -141l-69 -62q-8 -8 -20.5 -16.5t-21.5 -13.5l-9 -5q47 5 62 5h119l-9 -47h-268z" />
    <glyph glyph-name="three.superscript" horiz-adv-x="311" 
d="M181 293q-50 0 -88 24.5t-53 57.5l47 23q28 -56 94 -56q38 0 61.5 23.5t23.5 60.5q0 35 -26 56t-70 21q-25 0 -40 -5l-5 8l91 95l40 35q-28 -3 -50 -3h-108l8 47h236v-8l-99 -105q-21 -23 -34 -27q49 -5 81 -35.5t32 -79.5q0 -59 -39 -95.5t-102 -36.5z" />
    <glyph glyph-name="four.superscript" horiz-adv-x="341" 
d="M298 407h44l-7 -42h-44l-11 -65h-53l11 65h-209l4 29l306 291h9zM246 407l19 110q2 11 17 64q-13 -19 -46 -51l-91 -89q-9 -9 -20.5 -18t-18.5 -13l-7 -5q28 2 55 2h92z" />
    <glyph glyph-name="five.superscript" horiz-adv-x="311" 
d="M176 293q-46 0 -82.5 22.5t-53.5 56.5l46 26q31 -56 90 -56q41 0 66 23t25 60q0 36 -23.5 57t-63.5 21q-51 0 -91 -25l-6 4l35 198h207l-8 -47h-160l-17 -96q28 10 54 10q58 0 93 -33.5t35 -87.5q0 -61 -40 -97t-106 -36z" />
    <glyph glyph-name="six.superscript" horiz-adv-x="336" 
d="M192 293q-59 0 -99 38t-40 91q0 57 45 108l134 149h65l-85 -94q-24 -28 -54 -45q28 14 57 14q48 0 85 -34.5t37 -87.5q0 -61 -41.5 -100t-103.5 -39zM193 341q40 0 64.5 25t24.5 66q0 36 -22.5 58.5t-61.5 22.5q-40 0 -65.5 -25.5t-25.5 -65.5q0 -35 24.5 -58t61.5 -23z
" />
    <glyph glyph-name="seven.superscript" horiz-adv-x="323" 
d="M63 300l219 332h-197l8 48h275v-8l-244 -372h-61z" />
    <glyph glyph-name="eight.superscript" horiz-adv-x="335" 
d="M202 293q-59 0 -97.5 30t-38.5 79q0 40 26 68t70 38q-47 24 -47 77q0 43 34.5 72t88.5 29q52 0 82 -28t30 -71q0 -66 -74 -87q31 -11 49.5 -35t18.5 -55q0 -53 -40.5 -85t-101.5 -32zM203 338q39 0 62.5 21t23.5 54q0 31 -23 50.5t-59 19.5q-38 0 -61.5 -20.5
t-23.5 -54.5q0 -32 22 -51t59 -19zM231 523q28 0 46.5 17.5t18.5 43.5q0 25 -16.5 42t-43.5 17q-30 0 -49 -17.5t-19 -42.5q0 -26 17.5 -43t45.5 -17z" />
    <glyph glyph-name="nine.superscript" horiz-adv-x="336" 
d="M110 300l87 95q18 20 53 44q-23 -14 -55 -14q-48 0 -85 34.5t-37 87.5q0 61 41.5 100t103.5 39q59 0 99 -37.5t40 -90.5q0 -57 -47 -109l-135 -149h-65zM212 467q40 0 65.5 25t25.5 65q0 35 -24.5 58.5t-61.5 23.5q-39 0 -64 -25.5t-25 -65.5q0 -36 22.5 -58.5
t61.5 -22.5z" />
    <glyph glyph-name="G.alt" horiz-adv-x="776" 
d="M399 -8q-144 0 -234.5 91.5t-90.5 235.5q0 160 106.5 264.5t257.5 104.5q189 0 268 -133l-57 -38q-65 107 -213 107q-123 0 -206 -87t-83 -217q0 -117 70.5 -191t184.5 -74q108 0 178.5 58.5t87.5 144.5h-234l11 62h302q-11 -149 -103.5 -238.5t-244.5 -89.5z" />
    <glyph glyph-name="M.alt" horiz-adv-x="820" 
d="M19 0l200 688h9l166 -395l23 -70q22 40 45 70l299 395h10l-43 -688h-70l23 408q1 20 3.5 42.5t5.5 40t3 18.5q-23 -45 -53 -88l-235 -307h-8l-128 312q-29 73 -34 91q0 -1 -3.5 -17.5l-9 -41.5t-10.5 -44l-122 -414h-71z" />
    <glyph glyph-name="Q.alt1" horiz-adv-x="784" 
d="M404 -8l-27 -153h-67l27 158q-116 18 -190 106t-74 215q0 161 105 265.5t258 104.5q138 0 230.5 -91.5t92.5 -233.5q0 -158 -102.5 -262.5t-252.5 -108.5zM348 58l25 142h67l-25 -146q118 7 194.5 94.5t76.5 215.5q0 116 -69.5 188t-181.5 72q-125 0 -207 -87t-82 -219
q0 -102 55 -173t147 -87z" />
    <glyph glyph-name="Q.alt2" horiz-adv-x="783" 
d="M426 -3q28 -22 43 -32.5t44 -21.5t59 -11q59 0 100 45l48 -43q-56 -67 -148 -67q-37 0 -75 15t-57 27.5t-54 40.5q-5 4 -8 6q-28 21 -46 32.5t-46 22.5t-55 11q-72 0 -121 -73l-49 40q45 66 117 84q-106 90 -106 245q0 161 105 265.5t258 104.5q138 0 230.5 -91.5
t92.5 -233.5q0 -152 -94 -253.5t-238 -112.5zM397 55q125 0 206.5 88t81.5 221q0 116 -69.5 188t-181.5 72q-125 0 -207 -87t-82 -219q0 -116 69.5 -189.5t182.5 -73.5z" />
    <glyph glyph-name="u.alt" horiz-adv-x="489" 
d="M224 -8q-85 0 -130 50.5t-29 142.5l40 229h69l-42 -234q-12 -68 14.5 -98.5t78.5 -30.5q53 0 82.5 28t40.5 93l43 242h68l-44 -252q-30 -170 -191 -170z" />
    <glyph glyph-name="Gbreve.alt" horiz-adv-x="776" 
d="M399 -8q-144 0 -234.5 91.5t-90.5 235.5q0 160 106.5 264.5t257.5 104.5q189 0 268 -133l-57 -38q-65 107 -213 107q-123 0 -206 -87t-83 -217q0 -117 70.5 -191t184.5 -74q108 0 178.5 58.5t87.5 144.5h-234l11 62h302q-11 -149 -103.5 -238.5t-244.5 -89.5zM472 750
q-54 0 -86 34t-36 83l57 9q9 -71 65 -71q60 0 80 71l55 -9q-11 -51 -46 -84t-89 -33z" />
    <glyph glyph-name="Gcircumflex.alt" horiz-adv-x="776" 
d="M333 754l158 193h10l94 -193h-56l-56 108l-90 -108h-60zM399 -8q-144 0 -234.5 91.5t-90.5 235.5q0 160 106.5 264.5t257.5 104.5q189 0 268 -133l-57 -38q-65 107 -213 107q-123 0 -206 -87t-83 -217q0 -117 70.5 -191t184.5 -74q108 0 178.5 58.5t87.5 144.5h-234
l11 62h302q-11 -149 -103.5 -238.5t-244.5 -89.5z" />
    <glyph glyph-name="Gcommaaccent.alt" horiz-adv-x="777" 
d="M271 -256l48 102q-28 9 -28 45q0 21 15.5 35.5t34.5 14.5q22 0 36 -13.5t14 -35.5q0 -23 -17 -48l-65 -100h-38zM399 -8q-144 0 -234.5 91.5t-90.5 235.5q0 160 106.5 264.5t257.5 104.5q189 0 268 -133l-57 -38q-65 107 -213 107q-123 0 -206 -87t-83 -217
q0 -117 70.5 -191t184.5 -74q108 0 178.5 58.5t87.5 144.5h-234l11 62h302q-11 -149 -103.5 -238.5t-244.5 -89.5z" />
    <glyph glyph-name="Gdotaccent.alt" horiz-adv-x="777" 
d="M399 -8q-144 0 -234.5 91.5t-90.5 235.5q0 160 106.5 264.5t257.5 104.5q189 0 268 -133l-57 -38q-65 107 -213 107q-123 0 -206 -87t-83 -217q0 -117 70.5 -191t184.5 -74q108 0 178.5 58.5t87.5 144.5h-234l11 62h302q-11 -149 -103.5 -238.5t-244.5 -89.5zM477 757
q-20 0 -34.5 13.5t-14.5 34.5t14.5 35t33.5 14q20 0 34.5 -14t14.5 -35t-14.5 -34.5t-33.5 -13.5z" />
    <glyph glyph-name="e.alt" horiz-adv-x="499" 
d="M116 170q8 -55 46 -88t96 -33q79 0 129 52l43 -42q-65 -67 -172 -67q-94 0 -153 58.5t-59 147.5q0 96 62 160.5t153 64.5q93 0 143 -59.5t52 -157.5zM115 222l269 28q-5 50 -35.5 83.5t-88.5 33.5q-60 0 -99 -40t-46 -105z" />
    <glyph glyph-name="eacute.alt" horiz-adv-x="499" 
d="M244 505l98 193h84l-127 -193h-55zM116 170q8 -55 46 -88t96 -33q79 0 129 52l43 -42q-65 -67 -172 -67q-94 0 -153 58.5t-59 147.5q0 96 62 160.5t153 64.5q93 0 143 -59.5t52 -157.5zM115 222l269 28q-5 50 -35.5 83.5t-88.5 33.5q-60 0 -99 -40t-46 -105z" />
    <glyph glyph-name="ecaron.alt" horiz-adv-x="499" 
d="M270 494l-95 193h56l56 -108l91 108h60l-159 -193h-9zM116 170q8 -55 46 -88t96 -33q79 0 129 52l43 -42q-65 -67 -172 -67q-94 0 -153 58.5t-59 147.5q0 96 62 160.5t153 64.5q93 0 143 -59.5t52 -157.5zM115 222l269 28q-5 50 -35.5 83.5t-88.5 33.5q-60 0 -99 -40
t-46 -105z" />
    <glyph glyph-name="ecircumflex.alt" horiz-adv-x="499" 
d="M141 503l158 193h10l94 -193h-56l-56 108l-90 -108h-60zM116 170q8 -55 46 -88t96 -33q79 0 129 52l43 -42q-65 -67 -172 -67q-94 0 -153 58.5t-59 147.5q0 96 62 160.5t153 64.5q93 0 143 -59.5t52 -157.5zM115 222l269 28q-5 50 -35.5 83.5t-88.5 33.5q-60 0 -99 -40
t-46 -105z" />
    <glyph glyph-name="edieresis.alt" horiz-adv-x="499" 
d="M372 537q-18 0 -31.5 13.5t-13.5 32.5q0 18 13.5 31.5t31.5 13.5t31.5 -13t13.5 -32t-13.5 -32.5t-31.5 -13.5zM205 537q-18 0 -31.5 13.5t-13.5 32.5q0 18 13.5 31.5t31.5 13.5t31.5 -13t13.5 -32t-13.5 -32.5t-31.5 -13.5zM116 170q8 -55 46 -88t96 -33q79 0 129 52
l43 -42q-65 -67 -172 -67q-94 0 -153 58.5t-59 147.5q0 96 62 160.5t153 64.5q93 0 143 -59.5t52 -157.5zM115 222l269 28q-5 50 -35.5 83.5t-88.5 33.5q-60 0 -99 -40t-46 -105z" />
    <glyph glyph-name="edotaccent.alt" horiz-adv-x="499" 
d="M289 535q-20 0 -34.5 13.5t-14.5 34.5t14.5 35t33.5 14q20 0 34.5 -14t14.5 -35t-14.5 -34.5t-33.5 -13.5zM116 170q8 -55 46 -88t96 -33q79 0 129 52l43 -42q-65 -67 -172 -67q-94 0 -153 58.5t-59 147.5q0 96 62 160.5t153 64.5q93 0 143 -59.5t52 -157.5zM115 222
l269 28q-5 50 -35.5 83.5t-88.5 33.5q-60 0 -99 -40t-46 -105z" />
    <glyph glyph-name="egrave.alt" horiz-adv-x="499" 
d="M244 505l-87 193h80l61 -193h-54zM116 170q8 -55 46 -88t96 -33q79 0 129 52l43 -42q-65 -67 -172 -67q-94 0 -153 58.5t-59 147.5q0 96 62 160.5t153 64.5q93 0 143 -59.5t52 -157.5zM115 222l269 28q-5 50 -35.5 83.5t-88.5 33.5q-60 0 -99 -40t-46 -105z" />
    <glyph glyph-name="emacron.alt" horiz-adv-x="499" 
d="M166 539l10 54h229l-10 -54h-229zM116 170q8 -55 46 -88t96 -33q79 0 129 52l43 -42q-65 -67 -172 -67q-94 0 -153 58.5t-59 147.5q0 96 62 160.5t153 64.5q93 0 143 -59.5t52 -157.5zM115 222l269 28q-5 50 -35.5 83.5t-88.5 33.5q-60 0 -99 -40t-46 -105z" />
    <glyph glyph-name="eogonek.alt" horiz-adv-x="499" 
d="M115 222l269 28q-5 50 -35.5 83.5t-88.5 33.5q-60 0 -99 -40t-46 -105zM258 -8q-94 0 -153 58.5t-59 147.5q0 96 62 160.5t153 64.5q93 0 143 -59.5t52 -157.5l-340 -36q8 -55 46 -88t96 -33q80 0 130 52l42 -42q-10 -10 -42 -34t-50 -47l-26 -31q-19 -23 -26.5 -33.5
t-14.5 -26t-7 -32.5q0 -19 12.5 -30.5t30.5 -11.5q30 0 53 36l40 -23q-28 -58 -96 -58q-38 0 -65.5 22.5t-27.5 62.5q0 56 59 113l31 31q-22 -5 -43 -5z" />
    <glyph glyph-name="uacute.alt" horiz-adv-x="489" 
d="M267 505l98 193h84l-127 -193h-55zM224 -8q-85 0 -130 50.5t-29 142.5l40 229h69l-42 -234q-12 -68 14.5 -98.5t78.5 -30.5q53 0 82.5 28t40.5 93l43 242h68l-44 -252q-30 -170 -191 -170z" />
    <glyph glyph-name="ubreve.alt" horiz-adv-x="489" 
d="M224 -8q-85 0 -130 50.5t-29 142.5l40 229h69l-42 -234q-12 -68 14.5 -98.5t78.5 -30.5q53 0 82.5 28t40.5 93l43 242h68l-44 -252q-30 -170 -191 -170zM304 499q-54 0 -86 34t-36 83l57 9q9 -71 65 -71q60 0 80 71l55 -9q-11 -51 -46 -84t-89 -33z" />
    <glyph glyph-name="ucircumflex.alt" horiz-adv-x="489" 
d="M165 503l158 193h10l94 -193h-56l-56 108l-90 -108h-60zM224 -8q-85 0 -130 50.5t-29 142.5l40 229h69l-42 -234q-12 -68 14.5 -98.5t78.5 -30.5q53 0 82.5 28t40.5 93l43 242h68l-44 -252q-30 -170 -191 -170z" />
    <glyph glyph-name="udieresis.alt" horiz-adv-x="489" 
d="M395 537q-18 0 -31.5 13.5t-13.5 32.5q0 18 13.5 31.5t31.5 13.5t31.5 -13t13.5 -32t-13.5 -32.5t-31.5 -13.5zM228 537q-18 0 -31.5 13.5t-13.5 32.5q0 18 13.5 31.5t31.5 13.5t31.5 -13t13.5 -32t-13.5 -32.5t-31.5 -13.5zM224 -8q-85 0 -130 50.5t-29 142.5l40 229h69
l-42 -234q-12 -68 14.5 -98.5t78.5 -30.5q53 0 82.5 28t40.5 93l43 242h68l-44 -252q-30 -170 -191 -170z" />
    <glyph glyph-name="ugrave.alt" horiz-adv-x="489" 
d="M266 505l-87 193h80l61 -193h-54zM224 -8q-85 0 -130 50.5t-29 142.5l40 229h69l-42 -234q-12 -68 14.5 -98.5t78.5 -30.5q53 0 82.5 28t40.5 93l43 242h68l-44 -252q-30 -170 -191 -170z" />
    <glyph glyph-name="uhungarumlaut.alt" horiz-adv-x="487" 
d="M324 505l100 193h77l-122 -193h-55zM187 505l100 193h77l-122 -193h-55zM224 -8q-85 0 -130 50.5t-29 142.5l40 229h69l-42 -234q-12 -68 14.5 -98.5t78.5 -30.5q53 0 82.5 28t40.5 93l43 242h68l-44 -252q-30 -170 -191 -170z" />
    <glyph glyph-name="umacron.alt" horiz-adv-x="489" 
d="M190 539l10 54h229l-10 -54h-229zM224 -8q-85 0 -130 50.5t-29 142.5l40 229h69l-42 -234q-12 -68 14.5 -98.5t78.5 -30.5q53 0 82.5 28t40.5 93l43 242h68l-44 -252q-30 -170 -191 -170z" />
    <glyph glyph-name="uogonek.alt" horiz-adv-x="489" 
d="M191 -6q-71 10 -106 59.5t-20 131.5l40 229h69l-42 -234q-12 -68 14.5 -98.5t78.5 -30.5q53 0 82.5 28t40.5 93l43 242h68l-44 -252q-29 -161 -173 -169l-39 -46q-25 -30 -35 -49t-10 -42q0 -18 12 -29.5t30 -11.5q12 0 22 5.5t15.5 12t13.5 18.5l41 -25q-30 -58 -97 -58
q-38 0 -65.5 22.5t-27.5 62.5q0 55 60 113z" />
    <glyph glyph-name="uring.alt" horiz-adv-x="487" 
d="M309 484q-43 0 -73.5 29.5t-30.5 70.5q0 42 30.5 71.5t73.5 29.5t73.5 -29.5t30.5 -71.5q0 -41 -30.5 -70.5t-73.5 -29.5zM309 527q23 0 38 16t15 41q0 26 -14.5 41.5t-38.5 15.5t-39 -15.5t-15 -41.5q0 -25 15.5 -41t38.5 -16zM224 -8q-85 0 -130 50.5t-29 142.5l40 229
h69l-42 -234q-12 -68 14.5 -98.5t78.5 -30.5q53 0 82.5 28t40.5 93l43 242h68l-44 -252q-30 -170 -191 -170z" />
    <glyph glyph-name="y.alt" horiz-adv-x="504" 
d="M184 -223q-61 0 -107 26.5t-69 72.5l54 35q42 -74 122 -74q114 0 138 133l18 99q-53 -78 -141 -78q-70 0 -108 50t-23 134l42 239h68l-41 -233q-11 -60 11.5 -94.5t74.5 -34.5q114 0 137 129l42 233h68l-80 -453q-16 -92 -69.5 -138t-136.5 -46z" />
    <glyph glyph-name="yacute.alt" horiz-adv-x="504" 
d="M265 505l98 193h84l-127 -193h-55zM184 -223q-61 0 -107 26.5t-69 72.5l54 35q42 -74 122 -74q114 0 138 133l18 99q-53 -78 -141 -78q-70 0 -108 50t-23 134l42 239h68l-41 -233q-11 -60 11.5 -94.5t74.5 -34.5q114 0 137 129l42 233h68l-80 -453q-16 -92 -69.5 -138
t-136.5 -46z" />
    <glyph glyph-name="ydieresis.alt" horiz-adv-x="504" 
d="M391 537q-18 0 -31.5 13.5t-13.5 32.5q0 18 13.5 31.5t31.5 13.5t31.5 -13t13.5 -32t-13.5 -32.5t-31.5 -13.5zM224 537q-18 0 -31.5 13.5t-13.5 32.5q0 18 13.5 31.5t31.5 13.5t31.5 -13t13.5 -32t-13.5 -32.5t-31.5 -13.5zM184 -223q-61 0 -107 26.5t-69 72.5l54 35
q42 -74 122 -74q114 0 138 133l18 99q-53 -78 -141 -78q-70 0 -108 50t-23 134l42 239h68l-41 -233q-11 -60 11.5 -94.5t74.5 -34.5q114 0 137 129l42 233h68l-80 -453q-16 -92 -69.5 -138t-136.5 -46z" />
    <glyph glyph-name="ae.alt" horiz-adv-x="778" 
d="M381 342q58 81 158 81q94 0 144 -59.5t52 -157.5l-340 -36q8 -55 45.5 -88t95.5 -33q80 0 130 52l43 -42q-65 -67 -173 -67q-63 0 -109.5 29.5t-68.5 79.5q-43 -109 -178 -109q-68 0 -109 32t-41 86q0 69 47 101t121 32h133l1 3q10 58 -14 89.5t-70 31.5q-73 0 -118 -59
l-41 40q56 75 161 75q46 0 80.5 -21t50.5 -60zM394 222l269 28q-5 49 -36 83t-88 34q-59 0 -98.5 -40t-46.5 -105zM323 192h-125q-99 0 -99 -78q0 -31 22.5 -49t63.5 -18q56 0 88.5 25t40.5 67z" />
    <glyph glyph-name="oe.alt" horiz-adv-x="859" 
d="M438 103q-26 -52 -74 -81.5t-111 -29.5q-87 0 -147 59.5t-60 145.5q0 96 65.5 161t159.5 65q60 0 105 -30.5t68 -81.5q25 52 71.5 82t105.5 30q94 0 143.5 -59.5t51.5 -157.5l-340 -36q8 -55 46 -88t96 -33q79 0 129 52l43 -42q-65 -67 -172 -67q-64 0 -111 30t-69 81z
M475 222l269 28q-5 50 -35.5 83.5t-88.5 33.5q-60 0 -99 -40t-46 -105zM254 51q68 0 110 47t42 120q0 63 -38 104t-99 41q-67 0 -110 -47.5t-43 -119.5q0 -63 38.5 -104t99.5 -41z" />
    <glyph glyph-name="f_b.alt" horiz-adv-x="807" 
d="M128 356h-66l10 58h66l29 167q27 154 171 154q74 0 113 -47t24 -130l-39 -223q56 88 151 88q79 0 127.5 -55t48.5 -144q0 -100 -60 -166t-146 -66q-59 0 -103 33.5t-59 90.5l-17 -116h-68l98 562q10 55 -9.5 84.5t-63.5 29.5t-68 -25.5t-33 -78.5l-28 -158h102l-10 -58
h-102l-80 -454q-12 -67 -40 -90.5t-82 -23.5h-42l10 55h30q22 0 36 13.5t21 52.5zM541 51q68 0 110 49t42 124q0 62 -33.5 100.5t-89.5 38.5q-67 0 -111.5 -48t-44.5 -121q0 -63 34.5 -103t92.5 -40z" />
    <glyph glyph-name="f_f_b.alt" horiz-adv-x="1052" 
d="M128 356h-66l10 58h66l31 176q21 125 125 125q60 0 92 -44l-44 -42q-19 25 -46 25q-24 0 -38.5 -15t-21.5 -53l-30 -172h176l30 167q28 154 171 154q75 0 113.5 -47t23.5 -130l-39 -223q56 88 151 88q79 0 127.5 -55t48.5 -144q0 -100 -60 -166t-146 -66q-59 0 -103 33.5
t-60 90.5l-16 -116h-68l98 562q10 55 -9.5 84.5t-63.5 29.5t-68 -25.5t-33 -78.5l-28 -158h102l-10 -58h-102l-77 -432q-11 -67 -39.5 -90.5t-82.5 -23.5h-39l10 55h28q21 0 35 13.5t21 51.5l75 426h-176l-80 -454q-12 -67 -40 -90.5t-82 -23.5h-42l10 55h30q22 0 36 13.5
t21 52.5zM786 51q68 0 110 49t42 124q0 62 -33.5 100.5t-89.5 38.5q-67 0 -111.5 -48t-44.5 -121q0 -63 34.5 -103t92.5 -40z" />
    <glyph glyph-name="f_f_f_l.alt" horiz-adv-x="988" 
d="M617 356h-176l-78 -444q-12 -67 -40.5 -90.5t-81.5 -23.5h-42l10 55h30q22 0 36 13.5t21 52.5l77 437h-177l-80 -454q-12 -67 -40 -90.5t-82 -23.5h-42l10 55h30q22 0 36 13.5t21 52.5l79 447h-66l10 58h66l31 176q21 125 125 125q60 0 92 -44l-44 -42q-19 25 -46 25
q-24 0 -38.5 -15t-21.5 -53l-30 -172h177l33 186q21 125 125 125q60 0 92 -44l-44 -42q-19 25 -46 25q-24 0 -38.5 -15t-21.5 -53l-32 -182h176l30 167q27 154 171 154q74 0 113 -47.5t24 -129.5l-83 -471q-5 -32 20 -32h45l-9 -55h-54q-45 0 -61 22t-7 70l82 470
q10 55 -9.5 84.5t-63.5 29.5t-68 -25.5t-33 -78.5l-28 -158h102l-10 -58h-102l-77 -432q-12 -67 -40.5 -90.5t-81.5 -23.5h-39l10 55h27q22 0 36 13.5t21 51.5z" />
    <glyph glyph-name="f_f_h.alt" horiz-adv-x="1022" 
d="M372 356h-176l-80 -454q-12 -67 -40 -90.5t-82 -23.5h-42l10 55h30q22 0 36 13.5t21 52.5l79 447h-66l10 58h66l31 176q21 125 125 125q60 0 92 -44l-44 -42q-19 25 -46 25q-24 0 -38.5 -15t-21.5 -53l-30 -172h176l30 167q28 154 171 154q75 0 113.5 -47.5t23.5 -129.5
l-38 -221q52 86 143 86q70 0 108 -50t23 -134l-27 -152q-5 -32 20 -32h38l-10 -55h-43q-88 0 -71 94l24 139q11 60 -11.5 94.5t-74.5 34.5q-115 0 -138 -129l-41 -233h-68l99 562q10 55 -9.5 84.5t-63.5 29.5t-68 -25.5t-33 -78.5l-28 -158h102l-10 -58h-102l-77 -432
q-11 -67 -39.5 -90.5t-82.5 -23.5h-39l10 55h28q21 0 35 13.5t21 51.5z" />
    <glyph glyph-name="f_f_k.alt" horiz-adv-x="975" 
d="M451 414h102l-10 -58h-102l-77 -432q-11 -67 -39.5 -90.5t-82.5 -23.5h-39l10 55h28q21 0 35 13.5t21 51.5l75 426h-176l-80 -454q-12 -67 -40 -90.5t-82 -23.5h-42l10 55h30q22 0 36 13.5t21 52.5l79 447h-66l10 58h66l31 176q21 125 125 125q60 0 92 -44l-44 -42
q-19 25 -46 25q-24 0 -38.5 -15t-21.5 -53l-30 -172h176l30 167q28 154 171 154q75 0 113.5 -47.5t23.5 -129.5l-52 -299q-5 -26 -15 -61l227 216h82l-185 -175l97 -163q12 -21 35 -21h27l-10 -55h-29q-30 0 -48 11t-34 39l-89 149l-81 -71l-23 -128h-68l99 562
q10 55 -9.5 84.5t-63.5 29.5t-68 -25.5t-33 -78.5z" />
    <glyph glyph-name="ffl.alt" horiz-adv-x="742" 
d="M372 356h-176l-80 -454q-12 -67 -40 -90.5t-82 -23.5h-42l10 55h30q22 0 36 13.5t21 52.5l79 447h-66l10 58h66l31 176q21 125 125 125q60 0 92 -44l-44 -42q-19 25 -46 25q-24 0 -38.5 -15t-21.5 -53l-30 -172h176l30 167q28 154 171 154q75 0 113.5 -47.5t23.5 -129.5
l-82 -471q-6 -32 19 -32h45l-9 -55h-53q-45 0 -61 22t-8 70l82 470q10 55 -9.5 84.5t-63.5 29.5t-68 -25.5t-33 -78.5l-28 -158h102l-10 -58h-102l-77 -432q-11 -67 -39.5 -90.5t-82.5 -23.5h-39l10 55h28q21 0 35 13.5t21 51.5z" />
    <glyph glyph-name="f_h.alt" horiz-adv-x="777" 
d="M128 356h-66l10 58h66l29 167q27 154 171 154q74 0 113 -47.5t24 -129.5l-39 -221q53 86 144 86q70 0 108 -50t23 -134l-27 -152q-5 -32 20 -32h38l-10 -55h-43q-88 0 -71 94l24 139q11 60 -11.5 94.5t-74.5 34.5q-115 0 -138 -129l-41 -233h-68l99 562q10 55 -9.5 84.5
t-63.5 29.5t-68 -25.5t-33 -78.5l-28 -158h102l-10 -58h-102l-80 -454q-12 -67 -40 -90.5t-82 -23.5h-42l10 55h30q22 0 36 13.5t21 52.5z" />
    <glyph glyph-name="f_k.alt" horiz-adv-x="730" 
d="M206 414h102l-10 -58h-102l-80 -454q-12 -67 -40 -90.5t-82 -23.5h-42l10 55h30q22 0 36 13.5t21 52.5l79 447h-66l10 58h66l29 167q27 154 171 154q74 0 113 -47.5t24 -129.5l-53 -299q-5 -26 -15 -61l228 216h81l-185 -176l96 -162q13 -21 37 -21h26l-10 -55h-29
q-30 0 -48 11t-34 39l-89 149l-81 -69l-22 -130h-68l99 562q10 55 -9.5 84.5t-63.5 29.5t-68 -25.5t-33 -78.5z" />
    <glyph glyph-name="fl.alt" horiz-adv-x="497" 
d="M128 356h-66l10 58h66l29 167q27 154 171 154q74 0 113 -47.5t24 -129.5l-83 -471q-5 -32 20 -32h45l-9 -55h-54q-45 0 -61 22t-7 70l82 470q10 55 -9.5 84.5t-63.5 29.5t-68 -25.5t-33 -78.5l-28 -158h102l-10 -58h-102l-80 -454q-12 -67 -40 -90.5t-82 -23.5h-42l10 55
h30q22 0 36 13.5t21 52.5z" />
    <glyph glyph-name="space.up" horiz-adv-x="232" 
 />
    <glyph glyph-name="hyphen.up" horiz-adv-x="296" 
d="M50 236l11 61h207l-11 -61h-207z" />
    <glyph glyph-name="endash.up" horiz-adv-x="436" 
d="M44 236l11 61h358l-10 -61h-359z" />
    <glyph glyph-name="emdash.up" horiz-adv-x="683" 
d="M44 236l11 61h606l-11 -61h-606z" />
    <glyph glyph-name="guilsinglleft.up" horiz-adv-x="239" 
d="M109 84l-66 150v8l119 166h75l-125 -172l67 -152h-70z" />
    <glyph glyph-name="guilsinglright.up" horiz-adv-x="238" 
d="M16 84l126 172l-68 152h71l65 -150v-8l-119 -166h-75z" />
    <glyph glyph-name="guillemotleft.up" horiz-adv-x="390" 
d="M261 84l-66 150l1 8l118 166h75l-125 -172l67 -152h-70zM110 84l-66 150l1 8l119 166h74l-125 -172l67 -152h-70z" />
    <glyph glyph-name="guillemotright.up" horiz-adv-x="390" 
d="M167 84l126 172l-68 152h70l66 -151l-1 -8l-118 -165h-75zM16 84l126 172l-68 152h71l66 -151l-2 -8l-118 -165h-75z" />
    <glyph glyph-name="at.up" horiz-adv-x="872" 
d="M438 -105q-168 0 -272.5 106t-104.5 270q0 181 119.5 299t292.5 118q166 0 268.5 -100.5t102.5 -258.5q0 -115 -49 -173.5t-121 -58.5q-47 0 -76.5 22.5t-38.5 61.5q-49 -88 -138 -88q-74 0 -120.5 51t-46.5 129q0 89 53.5 147.5t130.5 58.5q50 0 85.5 -27.5t50.5 -73.5
l13 91h67l-40 -227q-16 -93 62 -93q45 0 76 47t31 136q0 133 -84 217.5t-225 84.5q-150 0 -249.5 -103.5t-99.5 -258.5q0 -141 85 -231.5t228 -90.5q92 0 169 36l22 -48q-81 -43 -191 -43zM435 150q52 0 88.5 43.5t36.5 102.5q0 53 -31.5 89.5t-79.5 36.5q-55 0 -90 -41
t-35 -108q0 -56 30.5 -89.5t80.5 -33.5z" />
    <glyph glyph-name="A.sc" horiz-adv-x="503" 
d="M364 0l-24 101h-216l-56 -101h-70l297 510h11l127 -510h-69zM239 306l-84 -149h172l-34 143q-13 53 -13 86q-29 -58 -41 -80z" />
    <glyph glyph-name="B.sc" horiz-adv-x="469" 
d="M37 0l89 504h170q60 0 94.5 -34.5t34.5 -83.5q0 -46 -24.5 -77.5t-65.5 -43.5q39 -9 61.5 -37t22.5 -72q0 -72 -46 -114t-130 -42h-206zM116 57h124q54 0 82.5 26.5t28.5 73.5q0 81 -83 81h-121zM157 290h113q42 0 65.5 24.5t23.5 63.5q0 30 -18.5 49.5t-53.5 19.5h-103z
" />
    <glyph glyph-name="C.sc" horiz-adv-x="551" 
d="M293 -8q-104 0 -173 70.5t-69 176.5q0 117 78.5 195t192.5 78q133 0 198 -102l-55 -38q-51 80 -145 80q-84 0 -140.5 -62t-56.5 -152q0 -82 48 -134t125 -52q92 0 151 72l51 -41q-81 -91 -205 -91z" />
    <glyph glyph-name="D.sc" horiz-adv-x="515" 
d="M37 0l89 504h124q109 0 171 -62.5t62 -164.5q0 -126 -78 -201.5t-211 -75.5h-157zM117 60h76q107 0 163 60.5t56 158.5q0 76 -42 120.5t-127 44.5h-59z" />
    <glyph glyph-name="E.sc" horiz-adv-x="447" 
d="M37 0l89 504h311l-11 -59h-243l-28 -162h215l-10 -57h-215l-29 -167h258l-10 -59h-327z" />
    <glyph glyph-name="F.sc" horiz-adv-x="427" 
d="M37 0l89 504h306l-11 -60h-237l-31 -181h215l-10 -59h-216l-36 -204h-69z" />
    <glyph glyph-name="G.sc" horiz-adv-x="564" 
d="M305 -8q-112 0 -183 68.5t-71 177.5q0 119 80 196.5t191 77.5q115 0 183 -76l-49 -44q-52 59 -137 59q-83 0 -140 -60.5t-57 -151.5q0 -85 50 -136.5t134 -51.5q63 0 120 32l18 105h-139l10 58h202l-35 -201q-75 -53 -177 -53z" />
    <glyph glyph-name="H.sc" horiz-adv-x="532" 
d="M37 0l89 504h69l-39 -226h247l39 226h69l-88 -504h-69l38 217h-247l-39 -217h-69z" />
    <glyph glyph-name="I.sc" horiz-adv-x="224" 
d="M41 0l89 504h69l-89 -504h-69z" />
    <glyph glyph-name="J.sc" horiz-adv-x="372" 
d="M141 -8q-48 0 -82.5 25t-50.5 61l58 31q28 -56 77 -56q64 0 77 75l66 376h69l-68 -385q-20 -127 -146 -127z" />
    <glyph glyph-name="K.sc" horiz-adv-x="481" 
d="M37 0l89 504h69l-36 -205q-7 -37 -26 -93q30 47 64 83l208 215h78l-219 -227l159 -277h-77l-132 232l-81 -82l-27 -150h-69z" />
    <glyph glyph-name="L.sc" horiz-adv-x="409" 
d="M37 0l89 504h69l-78 -444h231l-11 -60h-300z" />
    <glyph glyph-name="M.sc" horiz-adv-x="627" 
d="M37 0l90 510h9l179 -290l283 290h9l-90 -510h-66l48 274q3 19 10.5 53t7.5 35q-18 -36 -52 -70l-157 -160h-8l-100 155q-13 19 -38 82q0 -42 -10 -95l-48 -274h-67z" />
    <glyph glyph-name="N.sc" horiz-adv-x="537" 
d="M417 -6l-217 314q-36 53 -41 67q0 -41 -6 -73l-53 -302h-63l90 509h9l218 -313q9 -13 19 -30.5t15 -28.5l6 -11q1 46 7 81l52 297h63l-90 -510h-9z" />
    <glyph glyph-name="O.sc" horiz-adv-x="605" 
d="M297 -8q-104 0 -175 69.5t-71 176.5q0 119 80 196.5t194 77.5q104 0 175 -69t71 -176q0 -119 -80 -197t-194 -78zM300 53q86 0 143.5 62t57.5 154q0 80 -50 131t-128 51q-86 0 -143.5 -61t-57.5 -153q0 -81 50 -132.5t128 -51.5z" />
    <glyph glyph-name="P.sc" horiz-adv-x="463" 
d="M37 0l89 504h132q89 0 136.5 -39t47.5 -112q0 -86 -56 -131.5t-155 -45.5h-94l-31 -176h-69zM148 234h85q139 0 139 116q0 95 -120 95h-68z" />
    <glyph glyph-name="Q.sc" horiz-adv-x="605" 
d="M297 -8q-104 0 -175 69.5t-71 176.5q0 119 80 196.5t194 77.5q104 0 175 -69t71 -176q0 -131 -95 -211l59 -78l-50 -37l-61 81q-60 -30 -127 -30zM300 51q48 0 89 19l-67 90l50 36l67 -91q62 62 62 164q0 80 -50 131t-128 51q-86 0 -143.5 -61t-57.5 -153
q0 -81 50 -133.5t128 -52.5z" />
    <glyph glyph-name="R.sc" horiz-adv-x="481" 
d="M335 0l-89 182h-8h-100l-32 -182h-69l89 504h140q85 0 132 -39t47 -111q0 -64 -35 -105.5t-96 -57.5l95 -191h-74zM148 237h92q67 0 101 30t34 85q0 44 -29 68.5t-85 24.5h-77z" />
    <glyph glyph-name="S.sc" horiz-adv-x="418" 
d="M195 -8q-66 0 -114.5 31t-70.5 72l55 37q48 -81 131 -81q48 0 72.5 21.5t24.5 58.5q0 29 -18 50t-58 45l-32 20q-94 58 -94 137q0 57 39.5 93t101.5 36q93 0 138 -80l-51 -35q-34 58 -88 58q-31 0 -52 -19t-21 -50q0 -26 13 -44t46 -37l33 -20q56 -35 84 -69.5t28 -84.5
q0 -62 -46 -100.5t-121 -38.5z" />
    <glyph glyph-name="T.sc" horiz-adv-x="430" 
d="M144 0l79 444h-150l10 60h369l-10 -60h-150l-78 -444h-70z" />
    <glyph glyph-name="U.sc" horiz-adv-x="511" 
d="M238 -7q-86 0 -136 54t-34 145l55 312h69l-56 -316q-12 -65 17.5 -99.5t87.5 -34.5q106 0 125 114l58 336h69l-60 -346q-29 -165 -195 -165z" />
    <glyph glyph-name="V.sc" horiz-adv-x="502" 
d="M214 -6l-128 510h72l67 -288q13 -52 13 -102q19 58 43 97l167 293h73l-297 -510h-10z" />
    <glyph glyph-name="W.sc" horiz-adv-x="715" 
d="M167 -6l-82 510h71l41 -272q7 -49 7 -98q19 56 40 93l162 282h9l63 -285q10 -45 10 -93q25 74 34 92l142 281h71l-260 -510h-9l-64 297q-12 54 -12 85l-2 -6q-2 -5 -5.5 -13l-8 -18l-10 -21.5t-11.5 -21.5l-177 -302h-9z" />
    <glyph glyph-name="X.sc" horiz-adv-x="496" 
d="M1 0l219 275l-101 229h75l50 -119q10 -24 23 -75q23 47 44 74l93 120h78l-182 -229l122 -275h-75l-70 164q-5 11 -9.5 24t-6.5 22.5t-4 17.5l-2 8q-19 -39 -44 -70l-132 -166h-78z" />
    <glyph glyph-name="Y.sc" horiz-adv-x="477" 
d="M166 0l34 186l-118 318h75l65 -182q4 -11 8 -26.5t6.5 -27t4.5 -22.5l2 -10l7.5 15t18 33.5t22.5 35.5l129 184h75l-227 -320l-32 -184h-70z" />
    <glyph glyph-name="Z.sc" horiz-adv-x="459" 
d="M5 0v8l333 437h-228l11 59h335v-9l-333 -436h261l-10 -59h-369z" />
    <glyph glyph-name="Oslash.sc" horiz-adv-x="605" 
d="M524 415q47 -61 47 -148q0 -119 -80 -197t-194 -78q-94 0 -163 58l-63 -59l-35 38l63 59q-48 64 -48 150q0 119 80 196.5t194 77.5q97 0 164 -59l63 58l34 -38zM147 133l296 277q-47 42 -120 42q-87 0 -144.5 -61t-57.5 -154q0 -60 26 -104zM476 370l-295 -277
q47 -41 119 -41q86 0 143.5 62t57.5 155q0 57 -25 101z" />
    <glyph glyph-name="AE.sc" horiz-adv-x="720" 
d="M-14 0l429 504h299l-10 -59h-243l-28 -162h214l-10 -57h-214l-30 -167h259l-11 -59h-326l17 99h-186l-82 -99h-78zM191 152h151l28 160q4 27 26 101q-3 -6 -25 -37.5t-37 -50.5z" />
    <glyph glyph-name="OE.sc" horiz-adv-x="750" 
d="M286 0q-109 0 -173 62.5t-64 163.5q0 126 78.5 202t209.5 76h403l-11 -59h-242l-29 -162h215l-10 -57h-215l-29 -167h258l-10 -59h-381zM289 59h62l68 386h-80q-107 0 -163.5 -60.5t-56.5 -159.5q0 -76 42.5 -121t127.5 -45z" />
    <glyph glyph-name="Eth.sc" horiz-adv-x="517" 
d="M38 0l40 225h-55l11 58h54l39 221h124q109 0 171 -62.5t62 -164.5q0 -126 -78 -201.5t-211 -75.5h-157zM117 60h77q107 0 163 60.5t56 158.5q0 76 -42.5 120.5t-127.5 44.5h-58l-29 -161h125l-11 -58h-124z" />
    <glyph glyph-name="Dcroat.sc" horiz-adv-x="517" 
d="M38 0l40 225h-55l11 58h54l39 221h124q109 0 171 -62.5t62 -164.5q0 -126 -78 -201.5t-211 -75.5h-157zM117 60h77q107 0 163 60.5t56 158.5q0 76 -42.5 120.5t-127.5 44.5h-58l-29 -161h125l-11 -58h-124z" />
    <glyph glyph-name="dotlessi.sc" horiz-adv-x="224" 
d="M41 0l89 504h69l-89 -504h-69z" />
    <glyph glyph-name="Aacute.sc" horiz-adv-x="503" 
d="M279 576l98 193h84l-127 -193h-55zM364 0l-24 101h-216l-56 -101h-70l297 510h11l127 -510h-69zM239 306l-84 -149h172l-34 143q-13 53 -13 86q-29 -58 -41 -80z" />
    <glyph glyph-name="Abreve.sc" horiz-adv-x="503" 
d="M364 0l-24 101h-216l-56 -101h-70l297 510h11l127 -510h-69zM239 306l-84 -149h172l-34 143q-13 53 -13 86q-29 -58 -41 -80zM315 568q-54 0 -86 34t-36 83l57 9q9 -71 65 -71q60 0 80 71l55 -9q-11 -51 -46 -84t-89 -33z" />
    <glyph glyph-name="Acircumflex.sc" horiz-adv-x="503" 
d="M176 571l158 193h10l94 -193h-56l-56 108l-90 -108h-60zM364 0l-24 101h-216l-56 -101h-70l297 510h11l127 -510h-69zM239 306l-84 -149h172l-34 143q-13 53 -13 86q-29 -58 -41 -80z" />
    <glyph glyph-name="Adieresis.sc" horiz-adv-x="503" 
d="M397 584q-18 0 -31.5 13.5t-13.5 32.5q0 18 13.5 31.5t31.5 13.5t31.5 -13t13.5 -32t-13.5 -32.5t-31.5 -13.5zM230 584q-18 0 -31.5 13.5t-13.5 32.5q0 18 13.5 31.5t31.5 13.5t31.5 -13t13.5 -32t-13.5 -32.5t-31.5 -13.5zM364 0l-24 101h-216l-56 -101h-70l297 510h11
l127 -510h-69zM239 306l-84 -149h172l-34 143q-13 53 -13 86q-29 -58 -41 -80z" />
    <glyph glyph-name="Agrave.sc" horiz-adv-x="503" 
d="M364 0l-24 101h-216l-56 -101h-70l297 510h11l127 -510h-69zM239 306l-84 -149h172l-34 143q-13 53 -13 86q-29 -58 -41 -80zM279 576l-87 193h80l61 -193h-54z" />
    <glyph glyph-name="Amacron.sc" horiz-adv-x="503" 
d="M194 594l10 54h229l-10 -54h-229zM364 0l-24 101h-216l-56 -101h-70l297 510h11l127 -510h-69zM239 306l-84 -149h172l-34 143q-13 53 -13 86q-29 -58 -41 -80z" />
    <glyph glyph-name="Aogonek.sc" horiz-adv-x="503" 
d="M431 7l-50 -60q-45 -54 -45 -91q0 -18 12 -29.5t30 -11.5q12 0 22 5.5t15.5 12t13.5 18.5l41 -25q-30 -58 -97 -58q-38 0 -65.5 22.5t-27.5 62.5q0 55 60 113l26 25l-26 110h-216l-56 -101h-70l297 510h11zM239 306l-84 -149h172l-34 143q-13 53 -13 86q-29 -58 -41 -80z
" />
    <glyph glyph-name="Aring.sc" horiz-adv-x="503" 
d="M321 555q-43 0 -73.5 29.5t-30.5 70.5q0 42 30.5 71.5t73.5 29.5t73.5 -29.5t30.5 -71.5q0 -41 -30.5 -70.5t-73.5 -29.5zM321 598q23 0 38 16t15 41q0 26 -14.5 41.5t-38.5 15.5t-39 -15.5t-15 -41.5q0 -25 15.5 -41t38.5 -16zM364 0l-24 101h-216l-56 -101h-70l297 510
h11l127 -510h-69zM239 306l-84 -149h172l-34 143q-13 53 -13 86q-29 -58 -41 -80z" />
    <glyph glyph-name="Atilde.sc" horiz-adv-x="503" 
d="M364 0l-24 101h-216l-56 -101h-70l297 510h11l127 -510h-69zM239 306l-84 -149h172l-34 143q-13 53 -13 86q-29 -58 -41 -80zM219 579l-51 6q19 110 92 110q30 0 63 -31q35 -30 47 -30q15 0 24 13t18 47l51 -6q-18 -110 -93 -110q-30 0 -63 31q-2 2 -7 6.5t-7 6t-6 5
t-5.5 4.5t-5 3t-5.5 3t-5 1.5t-6 0.5q-15 0 -24 -13t-17 -47z" />
    <glyph glyph-name="Cacute.sc" horiz-adv-x="551" 
d="M309 576l98 193h84l-127 -193h-55zM293 -8q-104 0 -173 70.5t-69 176.5q0 117 78.5 195t192.5 78q133 0 198 -102l-55 -38q-51 80 -145 80q-84 0 -140.5 -62t-56.5 -152q0 -82 48 -134t125 -52q92 0 151 72l51 -41q-81 -91 -205 -91z" />
    <glyph glyph-name="Ccaron.sc" horiz-adv-x="551" 
d="M336 562l-95 193h56l56 -108l91 108h60l-159 -193h-9zM293 -8q-104 0 -173 70.5t-69 176.5q0 117 78.5 195t192.5 78q133 0 198 -102l-55 -38q-51 80 -145 80q-84 0 -140.5 -62t-56.5 -152q0 -82 48 -134t125 -52q92 0 151 72l51 -41q-81 -91 -205 -91z" />
    <glyph glyph-name="Ccedilla.sc" horiz-adv-x="551" 
d="M233 -232q-37 0 -63.5 17t-37.5 43l41 23q19 -38 57 -38q23 0 36.5 13t13.5 35q0 21 -13.5 35t-39.5 14h-21l16 92q-77 22 -124 86t-47 151q0 117 78.5 195t193.5 78q132 0 197 -102l-54 -36q-52 78 -146 78q-84 0 -140.5 -62t-56.5 -152q0 -82 48.5 -134t124.5 -52
q92 0 151 72l51 -41q-79 -91 -204 -91q-5 0 -14.5 0.5t-13.5 0.5l-7 -46q29 -5 50 -28.5t21 -58.5q0 -42 -28 -67t-69 -25z" />
    <glyph glyph-name="Ccircumflex.sc" horiz-adv-x="551" 
d="M206 571l158 193h10l94 -193h-56l-56 108l-90 -108h-60zM293 -8q-104 0 -173 70.5t-69 176.5q0 117 78.5 195t192.5 78q133 0 198 -102l-55 -38q-51 80 -145 80q-84 0 -140.5 -62t-56.5 -152q0 -82 48 -134t125 -52q92 0 151 72l51 -41q-81 -91 -205 -91z" />
    <glyph glyph-name="Cdotaccent.sc" horiz-adv-x="551" 
d="M293 -8q-104 0 -173 70.5t-69 176.5q0 117 78.5 195t192.5 78q133 0 198 -102l-55 -38q-51 80 -145 80q-84 0 -140.5 -62t-56.5 -152q0 -82 48 -134t125 -52q92 0 151 72l51 -41q-81 -91 -205 -91zM351 582q-20 0 -34.5 13.5t-14.5 34.5t14.5 35t33.5 14q20 0 34.5 -14
t14.5 -35t-14.5 -34.5t-33.5 -13.5z" />
    <glyph glyph-name="Dcaron.sc" horiz-adv-x="516" 
d="M37 0l89 504h124q109 0 171 -62.5t62 -164.5q0 -126 -78 -201.5t-211 -75.5h-157zM117 60h76q107 0 163 60.5t56 158.5q0 76 -42 120.5t-127 44.5h-59zM295 562l-95 193h56l56 -108l91 108h60l-159 -193h-9z" />
    <glyph glyph-name="Eacute.sc" horiz-adv-x="447" 
d="M37 0l89 504h311l-11 -59h-243l-28 -162h215l-10 -57h-215l-29 -167h258l-10 -59h-327zM259 576l98 193h84l-127 -193h-55z" />
    <glyph glyph-name="Ecaron.sc" horiz-adv-x="447" 
d="M286 562l-95 193h56l56 -108l91 108h60l-159 -193h-9zM37 0l89 504h311l-11 -59h-243l-28 -162h215l-10 -57h-215l-29 -167h258l-10 -59h-327z" />
    <glyph glyph-name="Ecircumflex.sc" horiz-adv-x="447" 
d="M157 571l158 193h10l94 -193h-56l-56 108l-90 -108h-60zM37 0l89 504h311l-11 -59h-243l-28 -162h215l-10 -57h-215l-29 -167h258l-10 -59h-327z" />
    <glyph glyph-name="Edieresis.sc" horiz-adv-x="447" 
d="M385 584q-18 0 -31.5 13.5t-13.5 32.5q0 18 13.5 31.5t31.5 13.5t31.5 -13t13.5 -32t-13.5 -32.5t-31.5 -13.5zM218 584q-18 0 -31.5 13.5t-13.5 32.5q0 18 13.5 31.5t31.5 13.5t31.5 -13t13.5 -32t-13.5 -32.5t-31.5 -13.5zM37 0l89 504h311l-11 -59h-243l-28 -162h215
l-10 -57h-215l-29 -167h258l-10 -59h-327z" />
    <glyph glyph-name="Edotaccent.sc" horiz-adv-x="447" 
d="M37 0l89 504h311l-11 -59h-243l-28 -162h215l-10 -57h-215l-29 -167h258l-10 -59h-327zM299 582q-20 0 -34.5 13.5t-14.5 34.5t14.5 35t33.5 14q20 0 34.5 -14t14.5 -35t-14.5 -34.5t-33.5 -13.5z" />
    <glyph glyph-name="Egrave.sc" horiz-adv-x="447" 
d="M37 0l89 504h311l-11 -59h-243l-28 -162h215l-10 -57h-215l-29 -167h258l-10 -59h-327zM259 576l-87 193h80l61 -193h-54z" />
    <glyph glyph-name="Emacron.sc" horiz-adv-x="447" 
d="M37 0l89 504h311l-11 -59h-243l-28 -162h215l-10 -57h-215l-29 -167h258l-10 -59h-327zM179 594l10 54h229l-10 -54h-229z" />
    <glyph glyph-name="Eogonek.sc" horiz-adv-x="447" 
d="M262 -232q-38 0 -65.5 22.5t-27.5 62.5q0 57 60 113l35 34h-227l89 504h311l-11 -59h-243l-28 -162h215l-10 -57h-215l-29 -167h258l-10 -59h-49l-45 -53q-19 -23 -26.5 -33.5t-14.5 -26t-7 -32.5q0 -19 12.5 -30.5t30.5 -11.5q30 0 53 36l41 -23q-30 -58 -97 -58z" />
    <glyph glyph-name="Gbreve.sc" horiz-adv-x="564" 
d="M305 -8q-112 0 -183 68.5t-71 177.5q0 119 80 196.5t191 77.5q115 0 183 -76l-49 -44q-52 59 -137 59q-83 0 -140 -60.5t-57 -151.5q0 -85 50 -136.5t134 -51.5q63 0 120 32l18 105h-139l10 58h202l-35 -201q-75 -53 -177 -53zM346 570q-54 0 -86 34t-36 83l57 9
q9 -71 65 -71q60 0 80 71l55 -9q-11 -51 -46 -84t-89 -33z" />
    <glyph glyph-name="Gcircumflex.sc" horiz-adv-x="564" 
d="M206 571l158 193h10l94 -193h-56l-56 108l-90 -108h-60zM305 -8q-112 0 -183 68.5t-71 177.5q0 119 80 196.5t191 77.5q115 0 183 -76l-49 -44q-52 59 -137 59q-83 0 -140 -60.5t-57 -151.5q0 -85 50 -136.5t134 -51.5q63 0 120 32l18 105h-139l10 58h202l-35 -201
q-75 -53 -177 -53z" />
    <glyph glyph-name="Gcommaaccent.sc" horiz-adv-x="565" 
d="M160 -256l48 102q-28 9 -28 45q0 21 15.5 35.5t34.5 14.5q22 0 36 -13.5t14 -35.5q0 -23 -17 -48l-65 -100h-38zM305 -8q-112 0 -183 68.5t-71 177.5q0 119 80 196.5t191 77.5q115 0 183 -76l-49 -44q-52 59 -137 59q-83 0 -140 -60.5t-57 -151.5q0 -85 50 -136.5
t134 -51.5q63 0 120 32l18 105h-139l10 58h202l-35 -201q-75 -53 -177 -53z" />
    <glyph glyph-name="Gdotaccent.sc" horiz-adv-x="565" 
d="M351 582q-20 0 -34.5 13.5t-14.5 34.5t14.5 35t33.5 14q20 0 34.5 -14t14.5 -35t-14.5 -34.5t-33.5 -13.5zM305 -8q-112 0 -183 68.5t-71 177.5q0 119 80 196.5t191 77.5q115 0 183 -76l-49 -44q-52 59 -137 59q-83 0 -140 -60.5t-57 -151.5q0 -85 50 -136.5t134 -51.5
q63 0 120 32l18 105h-139l10 58h202l-35 -201q-75 -53 -177 -53z" />
    <glyph glyph-name="Hbar.sc" horiz-adv-x="532" 
d="M31 354l8 47h69l18 103h69l-18 -103h247l18 103h69l-18 -103h69l-9 -47h-68l-62 -354h-69l38 217h-247l-39 -217h-69l62 354h-68zM155 275h248l13 79h-247z" />
    <glyph glyph-name="Hcircumflex.sc" horiz-adv-x="532" 
d="M196 571l158 193h10l94 -193h-56l-56 108l-90 -108h-60zM37 0l89 504h69l-39 -226h247l39 226h69l-88 -504h-69l38 217h-247l-39 -217h-69z" />
    <glyph glyph-name="Iacute.sc" horiz-adv-x="224" 
d="M146 576l98 193h84l-127 -193h-55zM41 0l89 504h69l-89 -504h-69z" />
    <glyph glyph-name="Icircumflex.sc" horiz-adv-x="224" 
d="M43 571l158 193h10l94 -193h-56l-56 108l-90 -108h-60zM41 0l89 504h69l-89 -504h-69z" />
    <glyph glyph-name="Idieresis.sc" horiz-adv-x="224" 
d="M270 584q-18 0 -31.5 13.5t-13.5 32.5q0 18 13.5 31.5t31.5 13.5t31.5 -13t13.5 -32t-13.5 -32.5t-31.5 -13.5zM103 584q-18 0 -31.5 13.5t-13.5 32.5q0 18 13.5 31.5t31.5 13.5t31.5 -13t13.5 -32t-13.5 -32.5t-31.5 -13.5zM41 0l89 504h69l-89 -504h-69z" />
    <glyph glyph-name="Idotaccent.sc" horiz-adv-x="224" 
d="M41 0l89 504h69l-89 -504h-69zM184 582q-20 0 -34.5 13.5t-14.5 34.5t14.5 35t33.5 14q20 0 34.5 -14t14.5 -35t-14.5 -34.5t-33.5 -13.5z" />
    <glyph glyph-name="Igrave.sc" horiz-adv-x="224" 
d="M41 0l89 504h69l-89 -504h-69zM146 576l-87 193h80l61 -193h-54z" />
    <glyph glyph-name="Imacron.sc" horiz-adv-x="224" 
d="M66 594l10 54h229l-10 -54h-229zM41 0l89 504h69l-89 -504h-69z" />
    <glyph glyph-name="Iogonek.sc" horiz-adv-x="224" 
d="M39 -13l91 517h69l-87 -493l-54 -64q-25 -30 -35 -49t-10 -42q0 -18 12 -29.5t30 -11.5q12 0 22 5.5t15.5 12t13.5 18.5l41 -25q-30 -58 -97 -58q-38 0 -65.5 22.5t-27.5 62.5q0 55 60 113z" />
    <glyph glyph-name="Jcircumflex.sc" horiz-adv-x="372" 
d="M197 571l158 193h10l94 -193h-56l-56 108l-90 -108h-60zM141 -8q-48 0 -82.5 25t-50.5 61l58 31q28 -56 77 -56q64 0 77 75l66 376h69l-68 -385q-20 -127 -146 -127z" />
    <glyph glyph-name="Kcommaaccent.sc" horiz-adv-x="481" 
d="M132 -256l48 102q-28 9 -28 45q0 21 15.5 35.5t34.5 14.5q22 0 36 -13.5t14 -35.5q0 -23 -17 -48l-65 -100h-38zM37 0l89 504h69l-36 -205q-7 -37 -26 -93q30 47 64 83l208 215h78l-219 -227l159 -277h-77l-132 232l-81 -82l-27 -150h-69z" />
    <glyph glyph-name="Lacute.sc" horiz-adv-x="409" 
d="M37 0l89 504h69l-78 -444h231l-11 -60h-300zM146 576l98 193h84l-127 -193h-55z" />
    <glyph glyph-name="Lcaron.sc" horiz-adv-x="408" 
d="M271 307l51 108q-29 13 -29 47q0 21 15.5 35.5t35.5 14.5q22 0 36.5 -14t14.5 -36t-18 -48l-69 -107h-37zM37 0l89 504h69l-78 -444h231l-11 -60h-300z" />
    <glyph glyph-name="Lcommaaccent.sc" horiz-adv-x="408" 
d="M37 0l89 504h69l-78 -444h231l-11 -60h-300zM105 -256l48 102q-28 9 -28 45q0 21 15.5 35.5t34.5 14.5q22 0 36 -13.5t14 -35.5q0 -23 -17 -48l-65 -100h-38z" />
    <glyph glyph-name="Lslash.sc" horiz-adv-x="420" 
d="M49 0l30 169l-58 -20l11 62l58 20l48 273h69l-44 -247l151 53l-11 -62l-151 -53l-23 -135h231l-11 -60h-300z" />
    <glyph glyph-name="Nacute.sc" horiz-adv-x="537" 
d="M417 -6l-217 314q-36 53 -41 67q0 -41 -6 -73l-53 -302h-63l90 509h9l218 -313q9 -13 19 -30.5t15 -28.5l6 -11q1 46 7 81l52 297h63l-90 -510h-9zM295 576l98 193h84l-127 -193h-55z" />
    <glyph glyph-name="Ncaron.sc" horiz-adv-x="536" 
d="M417 -6l-217 314q-36 53 -41 67q0 -41 -6 -73l-53 -302h-63l90 509h9l218 -313q19 -28 40 -70q0 40 7 81l52 297h63l-90 -510h-9zM322 562l-95 193h56l56 -108l91 108h60l-159 -193h-9z" />
    <glyph glyph-name="Ncommaaccent.sc" horiz-adv-x="536" 
d="M417 -6l-217 314q-36 53 -41 67q0 -41 -6 -73l-53 -302h-63l90 509h9l218 -313q9 -13 19 -30.5t15 -28.5l6 -11q1 46 7 81l52 297h63l-90 -510h-9zM160 -256l48 102q-28 9 -28 45q0 21 15.5 35.5t34.5 14.5q22 0 36 -13.5t14 -35.5q0 -23 -17 -48l-65 -100h-38z" />
    <glyph glyph-name="Ntilde.sc" horiz-adv-x="537" 
d="M417 -6l-217 314q-36 53 -41 67q0 -41 -6 -73l-53 -302h-63l90 509h9l218 -313q9 -13 19 -30.5t15 -28.5l6 -11q1 46 7 81l52 297h63l-90 -510h-9zM236 579l-51 6q19 110 92 110q30 0 63 -31q35 -30 47 -30q15 0 24 13t18 47l51 -6q-18 -110 -93 -110q-30 0 -63 31
q-2 2 -7 6.5t-7 6t-6 5t-5.5 4.5t-5 3t-5.5 3t-5 1.5t-6 0.5q-15 0 -24 -13t-17 -47z" />
    <glyph glyph-name="Oacute.sc" horiz-adv-x="605" 
d="M318 576l98 193h84l-127 -193h-55zM297 -8q-104 0 -175 69.5t-71 176.5q0 119 80 196.5t194 77.5q104 0 175 -69t71 -176q0 -119 -80 -197t-194 -78zM300 53q86 0 143.5 62t57.5 154q0 80 -50 131t-128 51q-86 0 -143.5 -61t-57.5 -153q0 -81 50 -132.5t128 -51.5z" />
    <glyph glyph-name="Ocircumflex.sc" horiz-adv-x="605" 
d="M215 571l158 193h10l94 -193h-56l-56 108l-90 -108h-60zM297 -8q-104 0 -175 69.5t-71 176.5q0 119 80 196.5t194 77.5q104 0 175 -69t71 -176q0 -119 -80 -197t-194 -78zM300 53q86 0 143.5 62t57.5 154q0 80 -50 131t-128 51q-86 0 -143.5 -61t-57.5 -153
q0 -81 50 -132.5t128 -51.5z" />
    <glyph glyph-name="Odieresis.sc" horiz-adv-x="605" 
d="M444 584q-18 0 -31.5 13.5t-13.5 32.5q0 18 13.5 31.5t31.5 13.5t31.5 -13t13.5 -32t-13.5 -32.5t-31.5 -13.5zM277 584q-18 0 -31.5 13.5t-13.5 32.5q0 18 13.5 31.5t31.5 13.5t31.5 -13t13.5 -32t-13.5 -32.5t-31.5 -13.5zM297 -8q-104 0 -175 69.5t-71 176.5
q0 119 80 196.5t194 77.5q104 0 175 -69t71 -176q0 -119 -80 -197t-194 -78zM300 53q86 0 143.5 62t57.5 154q0 80 -50 131t-128 51q-86 0 -143.5 -61t-57.5 -153q0 -81 50 -132.5t128 -51.5z" />
    <glyph glyph-name="Ograve.sc" horiz-adv-x="605" 
d="M318 576l-87 193h80l61 -193h-54zM297 -8q-104 0 -175 69.5t-71 176.5q0 119 80 196.5t194 77.5q104 0 175 -69t71 -176q0 -119 -80 -197t-194 -78zM300 53q86 0 143.5 62t57.5 154q0 80 -50 131t-128 51q-86 0 -143.5 -61t-57.5 -153q0 -81 50 -132.5t128 -51.5z" />
    <glyph glyph-name="Ohungarumlaut.sc" horiz-adv-x="606" 
d="M376 576l100 193h77l-122 -193h-55zM239 576l100 193h77l-122 -193h-55zM297 -8q-104 0 -175 69.5t-71 176.5q0 119 80 196.5t194 77.5q104 0 175 -69t71 -176q0 -119 -80 -197t-194 -78zM300 53q86 0 143.5 62t57.5 154q0 80 -50 131t-128 51q-86 0 -143.5 -61
t-57.5 -153q0 -81 50 -132.5t128 -51.5z" />
    <glyph glyph-name="Omacron.sc" horiz-adv-x="605" 
d="M238 594l10 54h229l-10 -54h-229zM297 -8q-104 0 -175 69.5t-71 176.5q0 119 80 196.5t194 77.5q104 0 175 -69t71 -176q0 -119 -80 -197t-194 -78zM300 53q86 0 143.5 62t57.5 154q0 80 -50 131t-128 51q-86 0 -143.5 -61t-57.5 -153q0 -81 50 -132.5t128 -51.5z" />
    <glyph glyph-name="Otilde.sc" horiz-adv-x="605" 
d="M297 -8q-104 0 -175 69.5t-71 176.5q0 119 80 196.5t194 77.5q104 0 175 -69t71 -176q0 -119 -80 -197t-194 -78zM300 53q86 0 143.5 62t57.5 154q0 80 -50 131t-128 51q-86 0 -143.5 -61t-57.5 -153q0 -81 50 -132.5t128 -51.5zM258 579l-51 6q19 110 92 110
q30 0 63 -31q35 -30 47 -30q15 0 24 13t18 47l51 -6q-18 -110 -93 -110q-30 0 -63 31q-2 2 -7 6.5t-7 6t-6 5t-5.5 4.5t-5 3t-5.5 3t-5 1.5t-6 0.5q-15 0 -24 -13t-17 -47z" />
    <glyph glyph-name="Racute.sc" horiz-adv-x="481" 
d="M335 0l-89 182h-8h-100l-32 -182h-69l89 504h140q85 0 132 -39t47 -111q0 -64 -35 -105.5t-96 -57.5l95 -191h-74zM148 237h92q67 0 101 30t34 85q0 44 -29 68.5t-85 24.5h-77zM249 576l98 193h84l-127 -193h-55z" />
    <glyph glyph-name="Rcaron.sc" horiz-adv-x="481" 
d="M335 0l-89 182h-8h-100l-32 -182h-69l89 504h140q85 0 132 -39t47 -111q0 -64 -35 -105.5t-96 -57.5l95 -191h-74zM148 237h92q67 0 101 30t34 85q0 44 -29 68.5t-85 24.5h-77zM275 562l-95 193h56l56 -108l91 108h60l-159 -193h-9z" />
    <glyph glyph-name="Rcommaaccent.sc" horiz-adv-x="481" 
d="M335 0l-89 182h-8h-100l-32 -182h-69l89 504h140q85 0 132 -39t47 -111q0 -64 -35 -105.5t-96 -57.5l95 -191h-74zM148 237h92q67 0 101 30t34 85q0 44 -29 68.5t-85 24.5h-77zM132 -256l48 102q-28 9 -28 45q0 21 15.5 35.5t34.5 14.5q22 0 36 -13.5t14 -35.5
q0 -23 -17 -48l-65 -100h-38z" />
    <glyph glyph-name="Sacute.sc" horiz-adv-x="418" 
d="M230 576l98 193h84l-127 -193h-55zM195 -8q-66 0 -114.5 31t-70.5 72l55 37q48 -81 131 -81q48 0 72.5 21.5t24.5 58.5q0 29 -18 50t-58 45l-32 20q-94 58 -94 137q0 57 39.5 93t101.5 36q93 0 138 -80l-51 -35q-34 58 -88 58q-31 0 -52 -19t-21 -50q0 -26 13 -44t46 -37
l33 -20q56 -35 84 -69.5t28 -84.5q0 -62 -46 -100.5t-121 -38.5z" />
    <glyph glyph-name="Scaron.sc" horiz-adv-x="418" 
d="M256 562l-95 193h56l56 -108l91 108h60l-159 -193h-9zM195 -8q-66 0 -114.5 31t-70.5 72l55 37q48 -81 131 -81q48 0 72.5 21.5t24.5 58.5q0 29 -18 50t-58 45l-32 20q-94 58 -94 137q0 57 39.5 93t101.5 36q93 0 138 -80l-51 -35q-34 58 -88 58q-31 0 -52 -19t-21 -50
q0 -26 13 -44t46 -37l33 -20q56 -35 84 -69.5t28 -84.5q0 -62 -46 -100.5t-121 -38.5z" />
    <glyph glyph-name="Scedilla.sc" horiz-adv-x="418" 
d="M157 -232q-38 0 -64.5 17t-37.5 43l42 23q17 -38 57 -38q22 0 35.5 13t13.5 35q0 21 -13.5 35t-39.5 14h-20l14 88q-47 10 -82 37.5t-52 59.5l55 37q48 -81 131 -81q48 0 72.5 21.5t24.5 58.5q0 29 -18 50t-58 45l-32 20q-94 58 -94 137q0 57 39.5 93t101.5 36
q93 0 138 -80l-51 -35q-34 58 -88 58q-31 0 -52 -19t-21 -50q0 -26 13 -44t46 -37l33 -20q56 -35 84 -69.5t28 -84.5q0 -62 -46 -100.5t-121 -38.5h-6l-7 -45q30 -5 51 -28.5t21 -58.5q0 -42 -28.5 -67t-68.5 -25z" />
    <glyph glyph-name="Scircumflex.sc" horiz-adv-x="418" 
d="M127 571l158 193h10l94 -193h-56l-56 108l-90 -108h-60zM195 -8q-66 0 -114.5 31t-70.5 72l55 37q48 -81 131 -81q48 0 72.5 21.5t24.5 58.5q0 29 -18 50t-58 45l-32 20q-94 58 -94 137q0 57 39.5 93t101.5 36q93 0 138 -80l-51 -35q-34 58 -88 58q-31 0 -52 -19t-21 -50
q0 -26 13 -44t46 -37l33 -20q56 -35 84 -69.5t28 -84.5q0 -62 -46 -100.5t-121 -38.5z" />
    <glyph glyph-name="Scommaaccent.sc" horiz-adv-x="418" 
d="M71 -256l48 102q-28 9 -28 45q0 21 15.5 35.5t34.5 14.5q22 0 36 -13.5t14 -35.5q0 -23 -17 -48l-65 -100h-38zM195 -8q-66 0 -114.5 31t-70.5 72l55 37q48 -81 131 -81q48 0 72.5 21.5t24.5 58.5q0 29 -18 50t-58 45l-32 20q-94 58 -94 137q0 57 39.5 93t101.5 36
q93 0 138 -80l-51 -35q-34 58 -88 58q-31 0 -52 -19t-21 -50q0 -26 13 -44t46 -37l33 -20q56 -35 84 -69.5t28 -84.5q0 -62 -46 -100.5t-121 -38.5z" />
    <glyph glyph-name="Tcaron.sc" horiz-adv-x="431" 
d="M144 0l79 444h-150l10 60h369l-10 -60h-150l-78 -444h-70zM277 562l-95 193h56l56 -108l91 108h60l-159 -193h-9z" />
    <glyph glyph-name="uni021A.sc" horiz-adv-x="431" 
d="M144 0l79 444h-150l10 60h369l-10 -60h-150l-78 -444h-14l-9 -53q30 -5 51 -28.5t21 -58.5q0 -42 -28.5 -67t-68.5 -25q-38 0 -64.5 17t-37.5 43l42 23q17 -38 57 -38q22 0 35.5 13t13.5 35q0 21 -13.5 35t-39.5 14h-20l15 90h-10z" />
    <glyph glyph-name="Tcommaaccent.sc" horiz-adv-x="431" 
d="M144 0l79 444h-150l10 60h369l-10 -60h-150l-78 -444h-70zM92 -256l48 102q-28 9 -28 45q0 21 15.5 35.5t34.5 14.5q22 0 36 -13.5t14 -35.5q0 -23 -17 -48l-65 -100h-38z" />
    <glyph glyph-name="Thorn.sc" horiz-adv-x="453" 
d="M37 0l89 504h68l-13 -79h62q89 0 136.5 -39.5t47.5 -111.5q0 -85 -56 -130t-155 -45h-93l-17 -99h-69zM133 156h86q138 0 138 116q0 94 -120 94h-67z" />
    <glyph glyph-name="Uacute.sc" horiz-adv-x="511" 
d="M238 -7q-86 0 -136 54t-34 145l55 312h69l-56 -316q-12 -65 17.5 -99.5t87.5 -34.5q106 0 125 114l58 336h69l-60 -346q-29 -165 -195 -165zM289 576l98 193h84l-127 -193h-55z" />
    <glyph glyph-name="Ubreve.sc" horiz-adv-x="511" 
d="M238 -7q-86 0 -136 54t-34 145l55 312h69l-56 -316q-12 -65 17.5 -99.5t87.5 -34.5q106 0 125 114l58 336h69l-60 -346q-29 -165 -195 -165zM325 568q-54 0 -86 34t-36 83l57 9q9 -71 65 -71q60 0 80 71l55 -9q-11 -51 -46 -84t-89 -33z" />
    <glyph glyph-name="Ucircumflex.sc" horiz-adv-x="511" 
d="M185 571l158 193h10l94 -193h-56l-56 108l-90 -108h-60zM238 -7q-86 0 -136 54t-34 145l55 312h69l-56 -316q-12 -65 17.5 -99.5t87.5 -34.5q106 0 125 114l58 336h69l-60 -346q-29 -165 -195 -165z" />
    <glyph glyph-name="Udieresis.sc" horiz-adv-x="511" 
d="M413 584q-18 0 -31.5 13.5t-13.5 32.5q0 18 13.5 31.5t31.5 13.5t31.5 -13t13.5 -32t-13.5 -32.5t-31.5 -13.5zM246 584q-18 0 -31.5 13.5t-13.5 32.5q0 18 13.5 31.5t31.5 13.5t31.5 -13t13.5 -32t-13.5 -32.5t-31.5 -13.5zM238 -7q-86 0 -136 54t-34 145l55 312h69
l-56 -316q-12 -65 17.5 -99.5t87.5 -34.5q106 0 125 114l58 336h69l-60 -346q-29 -165 -195 -165z" />
    <glyph glyph-name="Ugrave.sc" horiz-adv-x="511" 
d="M238 -7q-86 0 -136 54t-34 145l55 312h69l-56 -316q-12 -65 17.5 -99.5t87.5 -34.5q106 0 125 114l58 336h69l-60 -346q-29 -165 -195 -165zM289 576l-87 193h80l61 -193h-54z" />
    <glyph glyph-name="Uhungarumlaut.sc" horiz-adv-x="511" 
d="M238 -7q-86 0 -136 54t-34 145l55 312h69l-56 -316q-12 -65 17.5 -99.5t87.5 -34.5q106 0 125 114l58 336h69l-60 -346q-29 -165 -195 -165zM347 576l100 193h77l-122 -193h-55zM210 576l100 193h77l-122 -193h-55z" />
    <glyph glyph-name="Umacron.sc" horiz-adv-x="511" 
d="M238 -7q-86 0 -136 54t-34 145l55 312h69l-56 -316q-12 -65 17.5 -99.5t87.5 -34.5q106 0 125 114l58 336h69l-60 -346q-29 -165 -195 -165zM208 594l10 54h229l-10 -54h-229z" />
    <glyph glyph-name="Uogonek.sc" horiz-adv-x="511" 
d="M203 -4q-72 11 -110.5 63t-24.5 133l55 312h69l-56 -316q-12 -65 17.5 -99.5t87.5 -34.5q106 0 125 114l58 336h69l-60 -346q-27 -157 -180 -165l-39 -46q-25 -30 -35 -49t-10 -42q0 -18 12 -29.5t30 -11.5q12 0 22 5.5t15.5 12t13.5 18.5l41 -25q-30 -58 -97 -58
q-38 0 -65.5 22.5t-27.5 62.5q0 55 60 113z" />
    <glyph glyph-name="Uring.sc" horiz-adv-x="511" 
d="M238 -7q-86 0 -136 54t-34 145l55 312h69l-56 -316q-12 -65 17.5 -99.5t87.5 -34.5q106 0 125 114l58 336h69l-60 -346q-29 -165 -195 -165zM329 552q-43 0 -73.5 29.5t-30.5 70.5q0 42 30.5 71.5t73.5 29.5t73.5 -29.5t30.5 -71.5q0 -41 -30.5 -70.5t-73.5 -29.5z
M329 595q23 0 38 16t15 41q0 26 -14.5 41.5t-38.5 15.5t-39 -15.5t-15 -41.5q0 -25 15.5 -41t38.5 -16z" />
    <glyph glyph-name="Yacute.sc" horiz-adv-x="477" 
d="M166 0l34 186l-118 318h75l65 -182q4 -11 8 -26.5t6.5 -27t4.5 -22.5l2 -10l7.5 15t18 33.5t22.5 35.5l129 184h75l-227 -320l-32 -184h-70zM261 576l98 193h84l-127 -193h-55z" />
    <glyph glyph-name="Ydieresis.sc" horiz-adv-x="477" 
d="M166 0l34 186l-118 318h75l65 -182q4 -11 8 -26.5t6.5 -27t4.5 -22.5l2 -10l7.5 15t18 33.5t22.5 35.5l129 184h75l-227 -320l-32 -184h-70zM385 584q-18 0 -31.5 13.5t-13.5 32.5q0 18 13.5 31.5t31.5 13.5t31.5 -13t13.5 -32t-13.5 -32.5t-31.5 -13.5zM218 584
q-18 0 -31.5 13.5t-13.5 32.5q0 18 13.5 31.5t31.5 13.5t31.5 -13t13.5 -32t-13.5 -32.5t-31.5 -13.5z" />
    <glyph glyph-name="Zacute.sc" horiz-adv-x="459" 
d="M263 576l98 193h84l-127 -193h-55zM5 0v8l333 437h-228l11 59h335v-9l-333 -436h261l-10 -59h-369z" />
    <glyph glyph-name="Zcaron.sc" horiz-adv-x="460" 
d="M290 562l-95 193h56l56 -108l91 108h60l-159 -193h-9zM5 0v8l333 437h-228l11 59h335v-9l-333 -436h261l-10 -59h-369z" />
    <glyph glyph-name="Zdotaccent.sc" horiz-adv-x="460" 
d="M5 0v8l333 437h-228l11 59h335v-9l-333 -436h261l-10 -59h-369zM305 582q-20 0 -34.5 13.5t-14.5 34.5t14.5 35t33.5 14q20 0 34.5 -14t14.5 -35t-14.5 -34.5t-33.5 -13.5z" />
    <glyph glyph-name="space.sc" horiz-adv-x="228" 
 />
    <glyph glyph-name="dollar.sc" horiz-adv-x="427" 
d="M148 -4q-56 10 -95 40.5t-56 69.5l57 28q32 -68 103 -84l33 190q-119 46 -119 140q0 62 46 97t118 35h3l18 101h50l-19 -107q75 -18 110 -85l-51 -32q-23 49 -68 63l-30 -168l6 -2q67 -26 98.5 -60.5t31.5 -86.5q0 -68 -51.5 -105t-135.5 -38l-19 -108h-50zM206 46
q53 2 82 25t29 63q0 29 -18.5 49.5t-61.5 36.5zM228 458q-92 -3 -92 -75q0 -52 65 -79z" />
    <glyph glyph-name="cent.sc" horiz-adv-x="376" 
d="M152 1q-53 16 -85.5 60.5t-32.5 103.5q0 77 51 129t129 55l17 97h50l-18 -102q58 -13 92 -58l-49 -37q-21 29 -53 39l-42 -239q45 2 81 33l39 -42q-51 -47 -126 -47h-4l-18 -102h-50zM204 292q-46 -5 -74.5 -40t-28.5 -87q0 -37 16.5 -65.5t44.5 -41.5z" />
    <glyph glyph-name="Euro.sc" horiz-adv-x="528" 
d="M367 274h-203q-4 -30 -3 -60h195l-10 -55h-177q24 -107 133 -107q80 0 130 72l51 -36q-65 -96 -184 -96q-78 0 -131.5 44.5t-69.5 122.5h-82l10 55h64q-1 21 3 60h-57l10 55h58q26 83 89 133t143 50q118 0 172 -104l-56 -31q-41 74 -119 74q-54 0 -94.5 -33t-60.5 -89
h199z" />
    <glyph glyph-name="sterling.sc" horiz-adv-x="468" 
d="M147 213h-78l10 55h57q-8 50 -8 79q0 74 43.5 119.5t119.5 45.5q105 0 151 -91l-56 -32q-34 63 -95 63q-44 0 -68.5 -27t-24.5 -79q0 -24 6 -78h138l-10 -55h-120q6 -50 6 -78q0 -21 -5 -46q48 -37 89 -37q48 0 84 42l44 -41q-47 -61 -126 -61q-56 0 -113 49
q-36 -49 -99 -49q-38 0 -63.5 22t-25.5 55q0 36 26 57.5t64 21.5q30 0 64 -18v1q0 37 -10 82zM149 79q-32 25 -55 25q-18 0 -29 -9.5t-11 -24.5t10.5 -24.5t27.5 -9.5q41 0 57 43z" />
    <glyph glyph-name="yen.sc" horiz-adv-x="486" 
d="M293 195l-23 -35l-4 -20h149l-9 -55h-150l-15 -85h-69l15 85h-148l9 55h149l3 18l-12 37h-130l10 55h102l-81 254h74l65 -210q16 -59 16 -94q16 48 46 93l137 211h74l-171 -254h105l-10 -55h-132z" />
    <glyph glyph-name="florin.sc" horiz-adv-x="335" 
d="M110 220h-73l9 55h74l19 108q22 129 121 129q65 0 99 -54l-46 -37q-20 31 -51 31q-24 0 -36.5 -15t-19.5 -56l-19 -106h87l-9 -55h-88l-56 -314h-67z" />
    <glyph glyph-name="zero.sc" horiz-adv-x="519" 
d="M250 -8q-90 0 -146 65t-56 169q0 125 69 205.5t169 80.5q90 0 146 -65t56 -170q0 -125 -68.5 -205t-169.5 -80zM253 53q72 0 118 63t46 161q0 81 -35.5 127.5t-97.5 46.5q-73 0 -119.5 -63.5t-46.5 -161.5q0 -80 36 -126.5t99 -46.5z" />
    <glyph glyph-name="one.sc" horiz-adv-x="264" 
d="M86 0l79 443h-95l11 61h163l-89 -504h-69z" />
    <glyph glyph-name="two.sc" horiz-adv-x="417" 
d="M-9 0v9l243 214q52 46 73.5 78.5t21.5 69.5q0 34 -22.5 56t-60.5 22q-79 0 -113 -94l-66 19q21 68 68.5 103t112.5 35q67 0 109 -39.5t42 -99.5q0 -50 -28 -92.5t-84 -91.5l-104 -91q-24 -21 -63 -44l26 3q25 3 36 3h178l-10 -60h-359z" />
    <glyph glyph-name="three.sc" horiz-adv-x="423" 
d="M192 -8q-70 0 -117.5 32.5t-67.5 79.5l60 28q39 -79 124 -79q57 0 88 30.5t31 81.5q0 49 -33.5 77t-91.5 28q-34 0 -56 -9l-4 6l133 143q8 9 19.5 18.5t18.5 14.5l7 5q-39 -4 -62 -4h-151l10 60h308v-9l-131 -143q-16 -18 -42 -35q59 -4 101.5 -46t42.5 -107
q0 -78 -51.5 -125t-135.5 -47z" />
    <glyph glyph-name="four.sc" horiz-adv-x="472" 
d="M271 0l15 87h-275l8 46l401 376h10l-65 -366h60l-10 -56h-60l-15 -87h-69zM145 176q-17 -16 -49 -37l8 1q8 0 21.5 1t26.5 1h145l30 167q2 13 5.5 27.5t6.5 24.5t3 12q-8 -12 -45 -49z" />
    <glyph glyph-name="five.sc" horiz-adv-x="422" 
d="M188 -8q-63 0 -109.5 28.5t-68.5 72.5l60 33q38 -73 118 -73q54 0 87 30.5t33 81.5q0 49 -30.5 77t-85.5 28q-61 0 -118 -34l-4 4l46 264h270l-10 -60h-211l-23 -132q31 13 70 13q75 0 120.5 -44.5t45.5 -115.5q0 -78 -53 -125.5t-137 -47.5z" />
    <glyph glyph-name="six.sc" horiz-adv-x="451" 
d="M218 -8q-77 0 -129 49.5t-52 122.5q0 75 58 142l170 198h79l-108 -129q-25 -30 -68 -60q42 24 80 24q66 0 114 -47t48 -117q0 -81 -54.5 -132t-137.5 -51zM218 52q54 0 88 34t34 88q0 49 -31 80.5t-80 31.5q-55 0 -89.5 -36t-34.5 -86q0 -49 31.5 -80.5t81.5 -31.5z" />
    <glyph glyph-name="seven.sc" horiz-adv-x="428" 
d="M50 0l287 443h-261l11 61h359v-9l-319 -495h-77z" />
    <glyph glyph-name="eight.sc" horiz-adv-x="444" 
d="M212 -8q-78 0 -128.5 39.5t-50.5 105.5q0 53 34.5 89.5t92.5 48.5q-63 33 -63 102q0 58 45.5 96.5t117.5 38.5q69 0 109 -37t40 -93q0 -44 -27 -74t-72 -43q42 -17 66.5 -48t24.5 -71q0 -70 -54 -112t-135 -42zM214 49q54 0 86 28t32 74q0 41 -32 67t-81 26
q-52 0 -84 -27t-32 -73q0 -43 31.5 -69t79.5 -26zM250 294q40 0 66 23.5t26 60.5q0 34 -23.5 57t-60.5 23q-42 0 -68.5 -23.5t-26.5 -59.5q0 -35 24.5 -58t62.5 -23z" />
    <glyph glyph-name="nine.sc" horiz-adv-x="452" 
d="M127 0l108 125q29 33 68 64q-42 -25 -81 -25q-66 0 -114 47.5t-48 116.5q0 80 55 132t136 52q80 0 130.5 -49t50.5 -123q0 -82 -64 -154l-162 -186h-79zM242 216q53 0 87.5 36t34.5 88q0 48 -30.5 80t-82.5 32q-56 0 -89 -36t-33 -87q0 -49 31 -81t82 -32z" />
    <glyph glyph-name="percent.sc" horiz-adv-x="778" 
d="M194 218q-60 0 -101 39.5t-41 100.5q0 66 46 110t108 44q60 0 101 -39t41 -99q0 -68 -45.5 -112t-108.5 -44zM163 0l401 504h70l-401 -504h-70zM589 -8q-60 0 -101 39.5t-41 100.5q0 66 46 109.5t108 43.5q60 0 101 -39t41 -99q0 -68 -45.5 -111.5t-108.5 -43.5zM194 271
q40 0 66.5 28t26.5 74q0 40 -22 62.5t-59 22.5q-40 0 -66.5 -27.5t-26.5 -71.5q0 -41 22.5 -64.5t58.5 -23.5zM589 44q40 0 66.5 28.5t26.5 73.5q0 40 -22.5 63t-58.5 23q-40 0 -66.5 -28t-26.5 -72q0 -41 22.5 -64.5t58.5 -23.5z" />
    <glyph glyph-name="perthousand.sc" horiz-adv-x="1120" 
d="M194 218q-60 0 -101 39.5t-41 100.5q0 66 46 110t108 44q60 0 101 -39t41 -99q0 -68 -45.5 -112t-108.5 -44zM163 0l401 504h70l-401 -504h-70zM931 -8q-60 0 -101 39.5t-41 100.5q0 66 46 109.5t109 43.5q59 0 100 -39t41 -99q0 -68 -45.5 -111.5t-108.5 -43.5zM589 -8
q-60 0 -101 39.5t-41 100.5q0 66 46 109.5t108 43.5q60 0 101 -39t41 -99q0 -68 -45.5 -111.5t-108.5 -43.5zM194 271q40 0 66.5 28t26.5 74q0 40 -22 62.5t-59 22.5q-40 0 -66.5 -27.5t-26.5 -71.5q0 -41 22.5 -64.5t58.5 -23.5zM932 44q40 0 66.5 28.5t26.5 73.5
q0 40 -22.5 63t-58.5 23q-40 0 -67 -28t-27 -72q0 -41 22.5 -64.5t59.5 -23.5zM589 44q40 0 66.5 28.5t26.5 73.5q0 40 -22.5 63t-58.5 23q-40 0 -66.5 -28t-26.5 -72q0 -41 22.5 -64.5t58.5 -23.5z" />
    <glyph glyph-name="plus.sc" horiz-adv-x="371" 
d="M219 223l-22 -125h-62l22 125h-115l11 59h114l23 126h62l-23 -126h116l-11 -59h-115z" />
    <glyph glyph-name="minus.sc" horiz-adv-x="370" 
d="M334 223h-292l11 59h292z" />
    <glyph glyph-name="multiply.sc" horiz-adv-x="383" 
d="M243 250l84 -104l-46 -39l-84 103l-117 -102l-38 41l119 104l-84 105l46 38l83 -103l119 104l38 -42z" />
    <glyph glyph-name="divide.sc" horiz-adv-x="370" 
d="M219 345q-20 0 -35 14.5t-15 36.5q0 21 15 35.5t35 14.5q21 0 35.5 -14.5t14.5 -35.5q0 -22 -14.5 -36.5t-35.5 -14.5zM169 59q-21 0 -35.5 14.5t-14.5 35.5q0 22 14.5 36.5t35.5 14.5t35.5 -14.5t14.5 -36.5q0 -21 -14.5 -35.5t-35.5 -14.5zM42 223l11 59h292l-11 -59
h-292z" />
    <glyph glyph-name="equal.sc" horiz-adv-x="369" 
d="M55 282l11 61h285l-11 -61h-285zM33 152l10 62h285l-11 -62h-284z" />
    <glyph glyph-name="less.sc" horiz-adv-x="354" 
d="M281 94l-242 144v11l294 143l-12 -67l-183 -84l153 -86z" />
    <glyph glyph-name="greater.sc" horiz-adv-x="354" 
d="M25 94l12 67l184 84l-154 86l10 61l242 -144v-11z" />
    <glyph glyph-name="degree.sc" horiz-adv-x="323" 
d="M187 286q-47 0 -79.5 31.5t-32.5 77.5q0 50 35 83.5t85 33.5q47 0 79 -31.5t32 -77.5q0 -50 -35 -83.5t-84 -33.5zM187 330q30 0 48.5 21t18.5 53q0 29 -16 46t-44 17q-30 0 -49 -20.5t-19 -52.5q0 -29 16.5 -46.5t44.5 -17.5z" />
    </font>
</defs>
</svg>
